{"glyphs":{"0":{"ha":867,"x_min":53,"x_max":819,"o":"m 383 -11 q 196 34 269 -11 q 88 153 122 79 q 53 318 53 228 q 108 560 53 453 q 263 727 164 667 q 489 788 363 788 q 676 742 601 788 q 785 623 750 697 q 819 458 819 549 q 764 217 819 324 q 609 49 708 110 q 383 -11 510 -11 m 399 64 q 542 185 501 64 q 582 463 582 307 q 469 714 582 714 q 326 592 367 714 q 286 317 286 471 q 399 64 286 64 z "},"1":{"ha":631,"x_min":42,"x_max":567,"o":"m 192 92 l 263 601 q 99 567 157 576 l 86 651 q 251 708 156 667 q 401 788 346 750 l 513 763 l 417 92 l 567 72 l 560 0 l 42 0 l 49 72 l 192 92 z "},"2":{"ha":847,"x_min":26,"x_max":797,"o":"m 26 72 q 359 309 229 182 q 489 539 489 436 q 458 624 489 593 q 372 656 426 656 q 239 624 304 656 q 144 560 174 593 l 93 647 q 163 706 115 674 q 281 763 210 738 q 439 788 353 788 q 660 725 593 788 q 726 574 726 663 q 582 320 726 443 q 240 103 438 197 l 619 132 l 697 268 l 797 236 l 729 0 l 49 0 l 26 72 z "},"3":{"ha":749,"x_min":-15,"x_max":665,"o":"m 144 -251 q -15 -229 88 -251 l 14 -128 q 100 -139 56 -139 q 290 -104 214 -139 q 401 -14 365 -69 q 436 106 436 42 q 399 194 436 160 q 279 228 361 228 q 236 225 267 228 l 163 204 l 178 303 q 314 358 256 319 q 403 448 372 397 q 435 553 435 499 q 411 622 435 593 q 338 650 388 650 q 115 569 211 650 l 75 650 q 154 710 100 678 q 278 765 208 743 q 419 788 349 788 q 592 738 526 788 q 658 597 658 689 q 585 425 658 510 q 411 297 511 340 q 457 300 442 300 q 610 249 556 300 q 665 115 665 199 q 594 -76 665 8 q 404 -206 524 -160 q 144 -251 285 -251 z "},"4":{"ha":857,"x_min":-28,"x_max":790,"o":"m 429 0 l 18 0 l -28 57 q 213 437 74 183 q 415 851 353 690 l 442 851 l 656 758 q 464 467 599 661 q 258 185 329 272 l 171 86 l 446 110 l 475 333 l 689 386 l 660 125 l 790 136 l 772 0 l 636 0 l 606 -254 l 396 -254 l 429 0 z "},"5":{"ha":757,"x_min":28,"x_max":710,"o":"m 44 -125 q 80 -133 58 -129 q 118 -136 101 -136 q 298 -97 226 -136 q 402 1 369 -58 q 435 125 435 60 q 391 245 435 201 q 264 289 347 289 q 108 249 186 289 l 67 281 l 169 778 l 588 778 l 603 788 l 710 788 l 672 633 l 332 635 l 263 367 q 333 396 282 382 q 424 410 383 410 q 616 342 553 410 q 679 174 679 275 q 613 -42 679 51 q 429 -188 546 -136 q 167 -240 313 -240 q 91 -234 138 -240 q 28 -224 44 -228 l 44 -125 z "},"6":{"ha":819,"x_min":63,"x_max":764,"o":"m 397 -14 q 225 32 301 -14 q 106 158 149 78 q 63 339 63 239 q 141 660 63 508 q 357 918 219 811 q 665 1065 494 1025 l 701 975 q 536 887 617 950 q 397 744 456 824 q 318 592 339 665 q 395 652 347 629 q 510 675 443 675 q 694 602 625 675 q 764 415 764 529 q 716 203 764 303 q 584 45 668 104 q 397 -14 500 -14 m 394 79 q 510 170 471 79 q 549 374 549 261 q 516 508 549 467 q 435 550 483 550 q 352 524 388 550 q 296 463 317 497 q 278 271 278 360 q 303 128 278 178 q 394 79 329 79 z "},"7":{"ha":743,"x_min":47,"x_max":765,"o":"m 581 654 l 257 654 l 193 490 l 47 490 l 99 778 l 742 778 l 765 743 l 369 -256 l 163 -190 l 581 654 z "},"8":{"ha":851,"x_min":60,"x_max":811,"o":"m 60 236 q 130 403 60 325 q 306 524 200 482 q 172 772 172 640 q 216 913 172 849 q 339 1014 260 976 q 521 1051 418 1051 q 742 1003 674 1051 q 811 858 811 954 q 750 702 811 778 q 593 576 689 626 q 724 444 672 518 q 775 289 775 369 q 718 132 775 201 q 569 24 661 63 q 381 -14 478 -14 q 151 46 243 -14 q 60 236 60 106 m 507 644 q 636 850 636 721 q 603 944 636 913 q 519 975 569 975 q 411 935 451 975 q 371 824 371 894 q 404 733 371 774 q 507 644 438 693 m 258 235 q 295 121 258 169 q 406 72 332 72 q 519 119 472 72 q 567 244 567 165 q 551 314 567 285 q 512 365 536 343 q 438 425 488 388 l 396 457 q 258 235 258 369 z "},"9":{"ha":846,"x_min":82,"x_max":782,"o":"m 449 789 q 621 749 546 789 q 739 631 696 708 q 782 443 782 553 q 702 122 782 275 q 483 -141 622 -32 q 174 -290 343 -250 l 138 -200 q 307 -114 225 -174 q 449 24 389 -54 q 528 183 508 103 q 450 123 497 146 q 336 100 403 100 q 202 140 260 100 q 113 252 144 181 q 82 414 82 324 q 130 600 82 514 q 262 738 178 686 q 449 789 346 789 m 451 696 q 336 623 375 696 q 297 456 297 550 q 330 279 297 333 q 411 225 363 225 q 492 251 457 225 q 550 313 526 278 q 568 469 568 394 q 542 638 568 581 q 451 696 517 696 z "},"\u0000":{"ha":833,"x_min":0,"x_max":0,"o":""},"\r":{"ha":329,"x_min":0,"x_max":0,"o":""}," ":{"ha":329,"x_min":0,"x_max":0,"o":""},"A":{"ha":917,"x_min":-110,"x_max":946,"o":"m 435 1032 l 669 1032 l 838 93 l 946 72 l 942 0 l 475 0 l 478 72 l 585 92 l 557 282 l 228 282 l 147 92 l 275 72 l 269 0 l -110 0 l -104 72 l -10 92 l 435 1032 m 485 888 l 271 385 l 543 385 l 490 757 l 485 888 z "},"Á":{"ha":917,"x_min":-110,"x_max":946,"o":"m 435 1032 l 669 1032 l 838 93 l 946 72 l 942 0 l 475 0 l 478 72 l 585 92 l 557 282 l 228 282 l 147 92 l 275 72 l 269 0 l -110 0 l -104 72 l -10 92 l 435 1032 m 485 888 l 271 385 l 543 385 l 490 757 l 485 888 m 676 1365 l 804 1240 q 702 1140 779 1193 q 568 1065 625 1086 l 490 1133 l 676 1365 z "},"Ă":{"ha":917,"x_min":-110,"x_max":946,"o":"m 435 1032 l 669 1032 l 838 93 l 946 72 l 942 0 l 475 0 l 478 72 l 585 92 l 557 282 l 228 282 l 147 92 l 275 72 l 269 0 l -110 0 l -104 72 l -10 92 l 435 1032 m 485 888 l 271 385 l 543 385 l 490 757 l 485 888 m 563 1107 q 349 1319 349 1107 q 353 1365 349 1344 l 479 1365 q 483 1303 479 1325 q 506 1268 488 1282 q 565 1254 525 1254 q 676 1365 676 1254 l 799 1365 q 735 1178 799 1249 q 563 1107 672 1107 z "},"Ắ":{"ha":917,"x_min":-110,"x_max":946,"o":"m 692 1660 l 800 1556 q 702 1460 783 1526 q 574 1374 621 1393 l 514 1419 l 692 1660 m 554 1107 q 393 1169 443 1107 q 343 1319 343 1231 q 346 1365 343 1335 l 471 1365 l 471 1335 q 488 1276 471 1297 q 558 1254 506 1254 q 645 1283 625 1254 q 668 1365 665 1313 l 792 1365 l 792 1342 q 767 1230 792 1283 q 688 1142 742 1176 q 554 1107 635 1107 m 435 1032 l 669 1032 l 838 93 l 946 72 l 942 0 l 475 0 l 478 72 l 585 92 l 557 282 l 228 282 l 147 92 l 275 72 l 269 0 l -110 0 l -104 72 l -10 92 l 435 1032 m 485 888 l 271 385 l 543 385 l 490 757 l 485 888 z "},"Ặ":{"ha":917,"x_min":-110,"x_max":946,"o":"m 435 1032 l 669 1032 l 838 93 l 946 72 l 942 0 l 475 0 l 478 72 l 585 92 l 557 282 l 228 282 l 147 92 l 275 72 l 269 0 l -110 0 l -104 72 l -10 92 l 435 1032 m 485 888 l 271 385 l 543 385 l 490 757 l 485 888 m 283 -206 q 316 -124 283 -156 q 389 -93 349 -93 q 450 -119 428 -93 q 472 -183 472 -146 q 438 -267 472 -237 q 360 -296 404 -296 q 306 -270 328 -296 q 283 -206 283 -244 m 563 1107 q 349 1319 349 1107 q 353 1365 349 1344 l 479 1365 q 483 1303 479 1325 q 506 1268 488 1282 q 565 1254 525 1254 q 676 1365 676 1254 l 799 1365 q 735 1178 799 1249 q 563 1107 672 1107 z "},"Ằ":{"ha":917,"x_min":-110,"x_max":946,"o":"m 578 1389 q 462 1467 538 1406 q 363 1571 386 1528 l 475 1669 l 636 1428 l 578 1389 m 556 1107 q 394 1169 444 1107 q 344 1319 344 1231 q 347 1365 344 1335 l 472 1365 l 472 1335 q 489 1276 472 1297 q 560 1254 506 1254 q 647 1283 626 1254 q 669 1365 667 1313 l 793 1365 l 793 1342 q 768 1230 793 1283 q 690 1142 743 1176 q 556 1107 636 1107 m 435 1032 l 669 1032 l 838 93 l 946 72 l 942 0 l 475 0 l 478 72 l 585 92 l 557 282 l 228 282 l 147 92 l 275 72 l 269 0 l -110 0 l -104 72 l -10 92 l 435 1032 m 485 888 l 271 385 l 543 385 l 490 757 l 485 888 z "},"Ẳ":{"ha":917,"x_min":-110,"x_max":946,"o":"m 551 1389 q 538 1417 546 1396 q 531 1447 529 1439 q 540 1467 533 1460 q 563 1486 547 1474 q 594 1518 588 1503 l 594 1521 q 596 1535 596 1525 q 556 1563 596 1563 q 524 1560 528 1563 l 540 1681 q 559 1684 544 1682 q 585 1686 574 1686 q 699 1659 657 1686 q 740 1578 740 1632 q 738 1549 740 1571 q 713 1503 732 1522 q 674 1471 693 1483 q 647 1453 654 1458 q 628 1431 635 1443 q 624 1396 622 1418 l 551 1389 m 556 1107 q 394 1169 444 1107 q 344 1319 344 1231 q 347 1365 344 1335 l 472 1365 l 472 1335 q 489 1276 472 1297 q 560 1254 506 1254 q 647 1283 626 1254 q 669 1365 667 1313 l 793 1365 l 793 1342 q 768 1230 793 1283 q 690 1142 743 1176 q 556 1107 636 1107 m 435 1032 l 669 1032 l 838 93 l 946 72 l 942 0 l 475 0 l 478 72 l 585 92 l 557 282 l 228 282 l 147 92 l 275 72 l 269 0 l -110 0 l -104 72 l -10 92 l 435 1032 m 485 888 l 271 385 l 543 385 l 490 757 l 485 888 z "},"Ẵ":{"ha":917,"x_min":-110,"x_max":946,"o":"m 435 1032 l 669 1032 l 838 93 l 946 72 l 942 0 l 475 0 l 478 72 l 585 92 l 557 282 l 228 282 l 147 92 l 275 72 l 269 0 l -110 0 l -104 72 l -10 92 l 435 1032 m 485 888 l 271 385 l 543 385 l 490 757 l 485 888 m 558 1107 q 397 1169 447 1107 q 347 1319 347 1231 q 350 1365 347 1335 l 475 1365 l 475 1335 q 492 1276 475 1297 q 563 1254 508 1254 q 649 1283 629 1254 q 672 1365 669 1313 l 796 1365 l 796 1342 q 771 1230 796 1283 q 692 1142 746 1176 q 558 1107 639 1107 m 335 1531 q 408 1609 357 1574 q 508 1644 460 1644 q 572 1629 547 1644 q 626 1585 597 1614 q 663 1553 647 1564 q 697 1543 678 1543 q 753 1560 732 1543 q 801 1611 774 1576 l 861 1522 q 792 1438 843 1475 q 690 1400 742 1400 q 622 1415 647 1400 q 567 1457 596 1429 q 526 1490 543 1479 q 486 1501 510 1500 q 434 1486 458 1501 q 386 1446 410 1471 l 335 1531 z "},"Â":{"ha":917,"x_min":-110,"x_max":946,"o":"m 435 1032 l 669 1032 l 838 93 l 946 72 l 942 0 l 475 0 l 478 72 l 585 92 l 557 282 l 228 282 l 147 92 l 275 72 l 269 0 l -110 0 l -104 72 l -10 92 l 435 1032 m 485 888 l 271 385 l 543 385 l 490 757 l 485 888 m 310 1124 l 558 1365 l 679 1365 l 821 1124 l 738 1085 l 601 1225 l 382 1085 l 310 1124 z "},"Ấ":{"ha":917,"x_min":-110,"x_max":1043,"o":"m 935 1560 l 1043 1456 q 945 1360 1026 1426 q 817 1274 864 1293 l 757 1319 l 935 1560 m 282 1128 l 532 1381 l 653 1381 l 794 1128 l 711 1088 l 574 1219 l 356 1089 l 282 1128 m 435 1032 l 669 1032 l 838 93 l 946 72 l 942 0 l 475 0 l 478 72 l 585 92 l 557 282 l 228 282 l 147 92 l 275 72 l 269 0 l -110 0 l -104 72 l -10 92 l 435 1032 m 485 888 l 271 385 l 543 385 l 490 757 l 485 888 z "},"Ậ":{"ha":917,"x_min":-110,"x_max":946,"o":"m 435 1032 l 669 1032 l 838 93 l 946 72 l 942 0 l 475 0 l 478 72 l 585 92 l 557 282 l 228 282 l 147 92 l 275 72 l 269 0 l -110 0 l -104 72 l -10 92 l 435 1032 m 485 888 l 271 385 l 543 385 l 490 757 l 485 888 m 283 -206 q 316 -124 283 -156 q 389 -93 349 -93 q 450 -119 428 -93 q 472 -183 472 -146 q 438 -267 472 -237 q 360 -296 404 -296 q 306 -270 328 -296 q 283 -206 283 -244 m 310 1124 l 558 1365 l 679 1365 l 821 1124 l 738 1085 l 601 1225 l 382 1085 l 310 1124 z "},"Ầ":{"ha":917,"x_min":-110,"x_max":946,"o":"m 828 1342 q 712 1419 788 1358 q 613 1524 636 1481 l 725 1622 l 886 1381 l 828 1342 m 300 1126 l 550 1379 l 671 1379 l 813 1126 l 729 1086 l 592 1218 l 374 1088 l 300 1126 m 435 1032 l 669 1032 l 838 93 l 946 72 l 942 0 l 475 0 l 478 72 l 585 92 l 557 282 l 228 282 l 147 92 l 275 72 l 269 0 l -110 0 l -104 72 l -10 92 l 435 1032 m 485 888 l 271 385 l 543 385 l 490 757 l 485 888 z "},"Ẩ":{"ha":917,"x_min":-110,"x_max":1001,"o":"m 813 1258 q 799 1287 807 1265 q 792 1317 790 1308 q 801 1336 794 1329 q 824 1356 808 1343 q 856 1388 849 1372 l 856 1390 q 857 1404 857 1394 q 817 1432 857 1432 q 785 1429 789 1432 l 801 1550 q 820 1553 806 1551 q 846 1556 835 1556 q 960 1528 918 1556 q 1001 1447 1001 1501 q 999 1418 1001 1440 q 974 1372 993 1392 q 935 1340 954 1353 q 908 1322 915 1328 q 890 1300 896 1313 q 885 1265 883 1288 l 813 1258 m 296 1128 l 546 1381 l 667 1381 l 808 1128 l 725 1088 l 588 1219 l 369 1089 l 296 1128 m 435 1032 l 669 1032 l 838 93 l 946 72 l 942 0 l 475 0 l 478 72 l 585 92 l 557 282 l 228 282 l 147 92 l 275 72 l 269 0 l -110 0 l -104 72 l -10 92 l 435 1032 m 485 888 l 271 385 l 543 385 l 490 757 l 485 888 z "},"Ẫ":{"ha":917,"x_min":-110,"x_max":946,"o":"m 385 1535 q 451 1607 404 1575 q 542 1639 497 1639 q 600 1625 576 1639 q 649 1585 624 1611 q 682 1556 668 1565 q 714 1547 696 1547 q 765 1563 744 1547 q 808 1608 785 1578 l 863 1528 q 799 1451 844 1485 q 707 1417 753 1417 q 644 1430 668 1417 q 594 1468 621 1443 q 559 1498 574 1489 q 522 1508 544 1507 q 475 1495 496 1508 q 431 1458 454 1482 l 385 1535 m 294 1126 l 544 1379 l 665 1379 l 807 1126 l 724 1086 l 586 1218 l 368 1088 l 294 1126 m 435 1032 l 669 1032 l 838 93 l 946 72 l 942 0 l 475 0 l 478 72 l 585 92 l 557 282 l 228 282 l 147 92 l 275 72 l 269 0 l -110 0 l -104 72 l -10 92 l 435 1032 m 485 888 l 271 385 l 543 385 l 490 757 l 485 888 z "},"Ä":{"ha":917,"x_min":-110,"x_max":946,"o":"m 435 1032 l 669 1032 l 838 93 l 946 72 l 942 0 l 475 0 l 478 72 l 585 92 l 557 282 l 228 282 l 147 92 l 275 72 l 269 0 l -110 0 l -104 72 l -10 92 l 435 1032 m 485 888 l 271 385 l 543 385 l 490 757 l 485 888 m 400 1126 q 335 1154 361 1126 q 308 1224 308 1182 q 339 1313 308 1281 q 422 1346 369 1346 q 494 1320 468 1346 q 519 1253 519 1294 q 490 1160 519 1193 q 400 1126 460 1126 m 707 1126 q 642 1154 668 1126 q 615 1224 615 1182 q 646 1313 615 1281 q 729 1346 676 1346 q 800 1320 775 1346 q 825 1253 825 1294 q 795 1160 825 1193 q 707 1126 765 1126 z "},"Ạ":{"ha":917,"x_min":-110,"x_max":946,"o":"m 435 1032 l 669 1032 l 838 93 l 946 72 l 942 0 l 475 0 l 478 72 l 585 92 l 557 282 l 228 282 l 147 92 l 275 72 l 269 0 l -110 0 l -104 72 l -10 92 l 435 1032 m 485 888 l 271 385 l 543 385 l 490 757 l 485 888 m 283 -206 q 316 -124 283 -156 q 389 -93 349 -93 q 450 -119 428 -93 q 472 -183 472 -146 q 438 -267 472 -237 q 360 -296 404 -296 q 306 -270 328 -296 q 283 -206 283 -244 z "},"À":{"ha":917,"x_min":-110,"x_max":946,"o":"m 435 1032 l 669 1032 l 838 93 l 946 72 l 942 0 l 475 0 l 478 72 l 585 92 l 557 282 l 228 282 l 147 92 l 275 72 l 269 0 l -110 0 l -104 72 l -10 92 l 435 1032 m 485 888 l 271 385 l 543 385 l 490 757 l 485 888 m 563 1065 q 429 1138 504 1086 q 328 1240 354 1190 l 454 1365 l 642 1133 l 563 1065 z "},"Ả":{"ha":917,"x_min":-110,"x_max":946,"o":"m 435 1032 l 669 1032 l 838 93 l 946 72 l 942 0 l 475 0 l 478 72 l 585 92 l 557 282 l 228 282 l 147 92 l 275 72 l 269 0 l -110 0 l -104 72 l -10 92 l 435 1032 m 485 888 l 271 385 l 543 385 l 490 757 l 485 888 m 510 1133 q 493 1167 503 1142 q 485 1203 483 1193 q 496 1227 488 1218 q 524 1250 504 1236 q 563 1289 553 1269 l 563 1293 q 564 1308 564 1299 q 515 1343 564 1343 q 476 1340 482 1343 l 497 1486 q 519 1490 501 1488 q 550 1493 536 1493 q 688 1460 638 1493 q 739 1363 739 1428 q 735 1326 739 1346 q 707 1272 729 1294 q 660 1233 685 1250 q 626 1210 636 1217 q 603 1183 610 1197 q 597 1142 596 1168 l 510 1133 z "},"Ā":{"ha":917,"x_min":-110,"x_max":946,"o":"m 435 1032 l 669 1032 l 838 93 l 946 72 l 942 0 l 475 0 l 478 72 l 585 92 l 557 282 l 228 282 l 147 92 l 275 72 l 269 0 l -110 0 l -104 72 l -10 92 l 435 1032 m 485 888 l 271 385 l 543 385 l 490 757 l 485 888 m 381 1300 l 768 1300 l 754 1157 l 367 1157 l 381 1300 z "},"Ą":{"ha":917,"x_min":-110,"x_max":946,"o":"m 785 0 q 654 -146 654 -89 q 665 -184 654 -174 q 699 -194 676 -194 q 747 -183 724 -194 q 803 -144 769 -171 l 828 -221 q 723 -297 782 -268 q 594 -325 664 -325 q 497 -294 531 -325 q 463 -207 463 -262 q 472 -167 463 -190 q 493 -124 481 -143 q 560 -49 525 -78 q 636 0 594 -21 l 475 0 l 478 72 l 585 92 l 557 282 l 228 282 l 147 92 l 275 72 l 269 0 l -110 0 l -104 72 l -10 92 l 435 1032 l 669 1032 l 838 93 l 946 72 l 942 0 l 785 0 m 485 888 l 271 385 l 543 385 l 490 757 l 485 888 z "},"Å":{"ha":917,"x_min":-110,"x_max":946,"o":"m 432 1028 q 351 1080 381 1044 q 322 1167 322 1115 q 406 1319 322 1274 q 592 1365 489 1365 q 744 1326 685 1365 q 804 1215 804 1288 q 767 1101 804 1146 q 668 1032 731 1056 l 838 93 l 946 72 l 942 0 l 475 0 l 478 72 l 585 92 l 557 282 l 228 282 l 147 92 l 275 72 l 269 0 l -110 0 l -104 72 l -10 92 l 432 1028 m 575 1274 q 490 1253 526 1274 q 454 1183 454 1232 q 485 1127 454 1149 q 554 1106 517 1106 q 672 1196 672 1106 q 642 1252 672 1231 q 575 1274 613 1274 m 485 888 l 271 385 l 543 385 l 490 757 l 485 888 z "},"Ǻ":{"ha":917,"x_min":-110,"x_max":946,"o":"m 432 1028 q 351 1080 381 1044 q 322 1167 322 1115 q 406 1319 322 1274 q 592 1365 489 1365 q 744 1326 685 1365 q 804 1215 804 1288 q 767 1101 804 1146 q 668 1032 731 1056 l 838 93 l 946 72 l 942 0 l 475 0 l 478 72 l 585 92 l 557 282 l 228 282 l 147 92 l 275 72 l 269 0 l -110 0 l -104 72 l -10 92 l 432 1028 m 575 1274 q 490 1253 526 1274 q 454 1183 454 1232 q 485 1127 454 1149 q 554 1106 517 1106 q 672 1196 672 1106 q 642 1252 672 1231 q 575 1274 613 1274 m 485 888 l 271 385 l 543 385 l 490 757 l 485 888 m 726 1706 l 854 1581 q 752 1480 829 1533 q 618 1406 675 1426 l 540 1474 l 726 1706 z "},"Ã":{"ha":917,"x_min":-110,"x_max":946,"o":"m 435 1032 l 669 1032 l 838 93 l 946 72 l 942 0 l 475 0 l 478 72 l 585 92 l 557 282 l 228 282 l 147 92 l 275 72 l 269 0 l -110 0 l -104 72 l -10 92 l 435 1032 m 485 888 l 271 385 l 543 385 l 490 757 l 485 888 m 318 1221 q 382 1301 335 1267 q 492 1336 429 1336 q 556 1321 531 1336 q 610 1276 581 1306 q 647 1245 632 1256 q 681 1235 661 1235 q 785 1303 735 1235 l 844 1214 q 777 1128 825 1165 q 674 1090 729 1090 q 605 1105 631 1090 q 550 1147 579 1119 q 510 1181 528 1169 q 467 1192 493 1192 q 417 1177 440 1192 q 369 1138 394 1163 l 318 1221 z "},"Æ":{"ha":1364,"x_min":-140,"x_max":1338,"o":"m 278 1032 l 1338 1032 l 1313 782 l 1163 782 l 1139 933 l 910 951 l 860 589 l 1168 617 l 1144 461 l 847 483 l 794 92 l 1108 115 l 1188 318 l 1332 308 l 1285 0 l 440 0 l 450 72 l 558 92 l 583 282 l 261 282 l 163 92 l 290 72 l 286 0 l -140 0 l -135 72 l -28 92 l 465 933 l 267 951 l 278 1032 m 613 951 l 315 385 l 597 385 l 671 951 l 613 951 z "},"Ǽ":{"ha":1364,"x_min":-140,"x_max":1338,"o":"m 989 1365 l 1117 1240 q 1015 1140 1092 1193 q 881 1065 938 1086 l 803 1133 l 989 1365 m 278 1032 l 1338 1032 l 1313 782 l 1163 782 l 1139 933 l 910 951 l 860 589 l 1168 617 l 1144 461 l 847 483 l 794 92 l 1108 115 l 1188 318 l 1332 308 l 1285 0 l 440 0 l 450 72 l 558 92 l 583 282 l 261 282 l 163 92 l 290 72 l 286 0 l -140 0 l -135 72 l -28 92 l 465 933 l 267 951 l 278 1032 m 613 951 l 315 385 l 597 385 l 671 951 l 613 951 z "},"B":{"ha":953,"x_min":-8,"x_max":911,"o":"m 344 1032 q 450 1038 378 1032 q 588 1043 536 1043 q 843 978 775 1043 q 911 807 911 913 q 848 639 911 703 q 657 544 785 575 q 788 518 732 546 q 875 442 844 490 q 906 339 906 394 q 783 69 906 153 q 410 -14 660 -14 q 350 -11 386 -14 q 299 -7 314 -8 q 193 0 233 0 l -8 0 l -3 72 l 92 92 l 206 940 l 107 957 l 115 1032 l 344 1032 m 385 581 q 416 580 403 579 q 438 581 429 581 l 469 581 q 626 632 564 581 q 688 790 688 683 q 649 915 688 872 q 533 957 610 957 q 435 949 471 957 l 385 581 m 318 88 q 381 76 344 81 q 439 71 417 71 q 602 126 547 71 q 657 296 657 181 q 611 442 657 396 q 457 488 565 488 q 372 485 406 488 l 318 88 z "},"Ḃ":{"ha":953,"x_min":-8,"x_max":911,"o":"m 529 1093 q 449 1128 485 1093 q 413 1207 413 1164 q 454 1301 415 1264 q 554 1339 493 1339 q 641 1307 606 1339 q 676 1233 676 1275 q 638 1133 676 1172 q 529 1093 600 1093 m 344 1032 q 450 1038 378 1032 q 588 1043 536 1043 q 843 978 775 1043 q 911 807 911 913 q 848 639 911 703 q 657 544 785 575 q 788 518 732 546 q 875 442 844 490 q 906 339 906 394 q 783 69 906 153 q 410 -14 660 -14 q 350 -11 386 -14 q 299 -7 314 -8 q 193 0 233 0 l -8 0 l -3 72 l 92 92 l 206 940 l 107 957 l 115 1032 l 344 1032 m 385 581 q 416 580 403 579 q 438 581 429 581 l 469 581 q 626 632 564 581 q 688 790 688 683 q 649 915 688 872 q 533 957 610 957 q 435 949 471 957 l 385 581 m 318 88 q 381 76 344 81 q 439 71 417 71 q 602 126 547 71 q 657 296 657 181 q 611 442 657 396 q 457 488 565 488 q 372 485 406 488 l 318 88 z "},"C":{"ha":882,"x_min":40,"x_max":910,"o":"m 669 946 q 606 957 639 957 q 435 880 504 957 q 335 685 367 803 q 306 446 303 567 q 356 184 311 269 q 496 99 401 99 q 572 108 535 99 q 643 149 610 117 q 697 285 669 181 l 833 285 l 804 92 q 672 19 750 49 q 460 -11 593 -11 q 142 113 243 -11 q 40 432 40 236 q 115 761 40 624 q 325 972 189 899 q 643 1044 461 1044 q 769 1038 724 1044 q 860 1019 814 1032 l 888 1013 l 910 1007 l 868 735 l 696 735 l 669 946 z "},"Ć":{"ha":882,"x_min":40,"x_max":910,"o":"m 669 946 q 606 957 639 957 q 435 880 504 957 q 335 685 367 803 q 306 446 303 567 q 356 184 311 269 q 496 99 401 99 q 572 108 535 99 q 643 149 610 117 q 697 285 669 181 l 833 285 l 804 92 q 672 19 750 49 q 460 -11 593 -11 q 142 113 243 -11 q 40 432 40 236 q 115 761 40 624 q 325 972 189 899 q 643 1044 461 1044 q 769 1038 724 1044 q 860 1019 814 1032 l 888 1013 l 910 1007 l 868 735 l 696 735 l 669 946 m 751 1365 l 879 1240 q 777 1140 854 1193 q 643 1065 700 1086 l 565 1133 l 751 1365 z "},"Č":{"ha":882,"x_min":40,"x_max":939,"o":"m 669 946 q 606 957 639 957 q 435 880 504 957 q 335 685 367 803 q 306 446 303 567 q 356 184 311 269 q 496 99 401 99 q 572 108 535 99 q 643 149 610 117 q 697 285 669 181 l 833 285 l 804 92 q 672 19 750 49 q 460 -11 593 -11 q 142 113 243 -11 q 40 432 40 236 q 115 761 40 624 q 325 972 189 899 q 643 1044 461 1044 q 769 1038 724 1044 q 860 1019 814 1032 l 888 1013 l 910 1007 l 868 735 l 696 735 l 669 946 m 426 1326 l 510 1365 l 647 1249 l 865 1365 l 939 1328 l 689 1085 l 568 1085 l 426 1326 z "},"Ç":{"ha":882,"x_min":40,"x_max":910,"o":"m 606 957 q 435 880 504 957 q 335 685 367 803 q 306 446 303 567 q 356 184 311 269 q 496 99 401 99 q 572 108 535 99 q 643 149 610 117 q 697 285 669 181 l 833 285 l 804 92 q 705 31 763 57 q 557 -6 647 4 q 575 -81 568 -36 q 582 -160 582 -125 q 379 -326 582 -326 q 302 -321 349 -326 q 244 -308 256 -315 l 269 -204 q 322 -215 292 -215 q 414 -185 382 -215 q 446 -83 446 -156 q 442 -11 446 -43 q 138 117 235 -6 q 40 432 40 240 q 115 761 40 624 q 325 972 189 899 q 643 1044 461 1044 q 769 1038 724 1044 q 860 1019 814 1032 l 888 1013 l 910 1007 l 868 735 l 696 735 l 669 946 q 606 957 639 957 z "},"Ĉ":{"ha":882,"x_min":40,"x_max":910,"o":"m 669 946 q 606 957 639 957 q 435 880 504 957 q 335 685 367 803 q 306 446 303 567 q 356 184 311 269 q 496 99 401 99 q 572 108 535 99 q 643 149 610 117 q 697 285 669 181 l 833 285 l 804 92 q 672 19 750 49 q 460 -11 593 -11 q 142 113 243 -11 q 40 432 40 236 q 115 761 40 624 q 325 972 189 899 q 643 1044 461 1044 q 769 1038 724 1044 q 860 1019 814 1032 l 888 1013 l 910 1007 l 868 735 l 696 735 l 669 946 m 385 1124 l 633 1365 l 754 1365 l 896 1124 l 813 1085 l 676 1225 l 457 1085 l 385 1124 z "},"Ċ":{"ha":882,"x_min":40,"x_max":910,"o":"m 626 1093 q 546 1128 582 1093 q 510 1207 510 1164 q 551 1301 513 1264 q 651 1339 590 1339 q 738 1307 703 1339 q 774 1233 774 1275 q 735 1133 774 1172 q 626 1093 697 1093 m 669 946 q 606 957 639 957 q 435 880 504 957 q 335 685 367 803 q 306 446 303 567 q 356 184 311 269 q 496 99 401 99 q 572 108 535 99 q 643 149 610 117 q 697 285 669 181 l 833 285 l 804 92 q 672 19 750 49 q 460 -11 593 -11 q 142 113 243 -11 q 40 432 40 236 q 115 761 40 624 q 325 972 189 899 q 643 1044 461 1044 q 769 1038 724 1044 q 860 1019 814 1032 l 888 1013 l 910 1007 l 868 735 l 696 735 l 669 946 z "},"D":{"ha":1022,"x_min":-24,"x_max":1015,"o":"m 331 1032 q 440 1038 365 1032 q 576 1043 529 1043 q 911 930 807 1043 q 1015 625 1015 817 q 867 159 1015 329 q 407 -11 718 -11 q 357 -6 382 -11 q 226 0 296 0 l -24 0 l -15 72 l 92 92 l 206 940 l 108 957 l 115 1032 l 331 1032 m 329 92 q 422 75 382 75 q 615 154 539 75 q 726 354 692 233 q 760 601 760 475 q 710 874 760 792 q 550 957 660 957 q 483 951 513 957 q 442 940 454 946 l 329 92 z "},"Ð":{"ha":1021,"x_min":-24,"x_max":1015,"o":"m 318 1033 q 444 1039 358 1033 q 576 1044 533 1044 q 911 931 807 1044 q 1015 626 1015 818 q 867 160 1015 331 q 407 -10 718 -10 q 357 -4 382 -10 q 208 1 288 1 l -24 1 l -15 74 l 92 93 l 143 476 l 50 476 l 68 592 l 158 592 l 206 942 l 108 958 l 115 1033 l 318 1033 m 329 93 q 422 76 382 76 q 615 156 539 76 q 726 356 692 235 q 760 603 760 476 q 710 876 760 793 q 550 958 660 958 q 483 953 513 958 q 442 942 454 947 l 396 592 l 596 592 l 579 476 l 381 476 l 329 93 z "},"Ď":{"ha":1026,"x_min":-24,"x_max":1015,"o":"m 407 1326 l 490 1365 l 628 1249 l 846 1365 l 919 1328 l 669 1085 l 549 1085 l 407 1326 m 331 1032 q 440 1038 365 1032 q 576 1043 529 1043 q 911 930 807 1043 q 1015 625 1015 817 q 867 159 1015 329 q 407 -11 718 -11 q 357 -6 382 -11 q 226 0 296 0 l -24 0 l -15 72 l 92 92 l 206 940 l 108 957 l 115 1032 l 331 1032 m 329 92 q 422 75 382 75 q 615 154 539 75 q 726 354 692 233 q 760 601 760 475 q 710 874 760 792 q 550 957 660 957 q 483 951 513 957 q 442 940 454 946 l 329 92 z "},"Đ":{"ha":1028,"x_min":-24,"x_max":1015,"o":"m 318 1033 q 444 1039 358 1033 q 576 1044 533 1044 q 911 931 807 1044 q 1015 626 1015 818 q 867 160 1015 331 q 407 -10 718 -10 q 357 -4 382 -10 q 208 1 288 1 l -24 1 l -15 74 l 92 93 l 143 476 l 50 476 l 68 592 l 158 592 l 206 942 l 108 958 l 115 1033 l 318 1033 m 329 93 q 422 76 382 76 q 615 156 539 76 q 726 356 692 235 q 760 603 760 476 q 710 876 760 793 q 550 958 660 958 q 483 953 513 958 q 442 942 454 947 l 396 592 l 596 592 l 579 476 l 381 476 l 329 93 z "},"Ḋ":{"ha":1026,"x_min":-24,"x_max":1015,"o":"m 607 1093 q 526 1128 563 1093 q 490 1207 490 1164 q 532 1301 493 1264 q 632 1339 571 1339 q 719 1307 683 1339 q 754 1233 754 1275 q 716 1133 754 1172 q 607 1093 678 1093 m 331 1032 q 440 1038 365 1032 q 576 1043 529 1043 q 911 930 807 1043 q 1015 625 1015 817 q 867 159 1015 329 q 407 -11 718 -11 q 357 -6 382 -11 q 226 0 296 0 l -24 0 l -15 72 l 92 92 l 206 940 l 108 957 l 115 1032 l 331 1032 m 329 92 q 422 75 382 75 q 615 154 539 75 q 726 354 692 233 q 760 601 760 475 q 710 874 760 792 q 550 957 660 957 q 483 951 513 957 q 442 940 454 946 l 329 92 z "},"E":{"ha":885,"x_min":-25,"x_max":871,"o":"m 114 1032 l 871 1032 l 847 782 l 696 782 l 674 933 l 443 951 l 394 589 l 706 619 l 681 463 l 381 483 l 328 92 l 642 115 l 722 318 l 867 308 l 818 0 l -25 0 l -15 72 l 93 92 l 204 940 l 106 957 l 114 1032 z "},"É":{"ha":885,"x_min":-25,"x_max":871,"o":"m 682 1365 l 810 1240 q 708 1140 785 1193 q 574 1065 631 1086 l 496 1133 l 682 1365 m 114 1032 l 871 1032 l 847 782 l 696 782 l 674 933 l 443 951 l 394 589 l 706 619 l 681 463 l 381 483 l 328 92 l 642 115 l 722 318 l 867 308 l 818 0 l -25 0 l -15 72 l 93 92 l 204 940 l 106 957 l 114 1032 z "},"Ĕ":{"ha":885,"x_min":-25,"x_max":871,"o":"m 567 1107 q 353 1319 353 1107 q 357 1365 353 1344 l 483 1365 q 488 1303 483 1325 q 510 1268 492 1282 q 569 1254 529 1254 q 681 1365 681 1254 l 803 1365 q 740 1178 803 1249 q 567 1107 676 1107 m 114 1032 l 871 1032 l 847 782 l 696 782 l 674 933 l 443 951 l 394 589 l 706 619 l 681 463 l 381 483 l 328 92 l 642 115 l 722 318 l 867 308 l 818 0 l -25 0 l -15 72 l 93 92 l 204 940 l 106 957 l 114 1032 z "},"Ě":{"ha":885,"x_min":-25,"x_max":871,"o":"m 356 1326 l 439 1365 l 576 1249 l 794 1365 l 868 1328 l 618 1085 l 497 1085 l 356 1326 m 114 1032 l 871 1032 l 847 782 l 696 782 l 674 933 l 443 951 l 394 589 l 706 619 l 681 463 l 381 483 l 328 92 l 642 115 l 722 318 l 867 308 l 818 0 l -25 0 l -15 72 l 93 92 l 204 940 l 106 957 l 114 1032 z "},"Ê":{"ha":885,"x_min":-25,"x_max":871,"o":"m 114 1032 l 871 1032 l 847 782 l 696 782 l 674 933 l 443 951 l 394 589 l 706 619 l 681 463 l 381 483 l 328 92 l 642 115 l 722 318 l 867 308 l 818 0 l -25 0 l -15 72 l 93 92 l 204 940 l 106 957 l 114 1032 m 314 1124 l 563 1365 l 683 1365 l 825 1124 l 742 1085 l 606 1225 l 386 1085 l 314 1124 z "},"Ế":{"ha":885,"x_min":-25,"x_max":1047,"o":"m 939 1557 l 1047 1453 q 949 1357 1031 1424 q 821 1271 868 1290 l 761 1317 l 939 1557 m 286 1125 l 536 1378 l 657 1378 l 799 1125 l 715 1085 l 578 1217 l 360 1086 l 286 1125 m 114 1032 l 871 1032 l 847 782 l 696 782 l 674 933 l 443 951 l 394 589 l 706 619 l 681 463 l 381 483 l 328 92 l 642 115 l 722 318 l 867 308 l 818 0 l -25 0 l -15 72 l 93 92 l 204 940 l 106 957 l 114 1032 z "},"Ệ":{"ha":885,"x_min":-25,"x_max":871,"o":"m 114 1032 l 871 1032 l 847 782 l 696 782 l 674 933 l 443 951 l 394 589 l 706 619 l 681 463 l 381 483 l 328 92 l 642 115 l 722 318 l 867 308 l 818 0 l -25 0 l -15 72 l 93 92 l 204 940 l 106 957 l 114 1032 m 268 -206 q 301 -124 268 -156 q 374 -93 333 -93 q 435 -119 413 -93 q 457 -183 457 -146 q 423 -267 457 -237 q 344 -296 389 -296 q 290 -270 313 -296 q 268 -206 268 -244 m 314 1124 l 563 1365 l 683 1365 l 825 1124 l 742 1085 l 606 1225 l 386 1085 l 314 1124 z "},"Ề":{"ha":885,"x_min":-25,"x_max":890,"o":"m 832 1340 q 716 1418 792 1357 q 617 1522 640 1479 l 729 1621 l 890 1379 l 832 1340 m 304 1125 l 554 1378 l 675 1378 l 817 1125 l 733 1085 l 596 1217 l 378 1086 l 304 1125 m 114 1032 l 871 1032 l 847 782 l 696 782 l 674 933 l 443 951 l 394 589 l 706 619 l 681 463 l 381 483 l 328 92 l 642 115 l 722 318 l 867 308 l 818 0 l -25 0 l -15 72 l 93 92 l 204 940 l 106 957 l 114 1032 z "},"Ể":{"ha":885,"x_min":-25,"x_max":1006,"o":"m 817 1254 q 803 1283 811 1261 q 796 1313 794 1304 q 806 1332 799 1325 q 828 1351 813 1339 q 860 1383 853 1368 l 860 1386 q 861 1400 861 1390 q 821 1428 861 1428 q 789 1425 793 1428 l 806 1546 q 824 1549 810 1547 q 850 1551 839 1551 q 964 1524 922 1551 q 1006 1443 1006 1497 q 1003 1414 1006 1436 q 978 1368 997 1388 q 939 1336 958 1349 q 913 1318 919 1324 q 894 1296 900 1308 q 889 1261 888 1283 l 817 1254 m 300 1124 l 550 1376 l 671 1376 l 813 1124 l 729 1083 l 592 1215 l 374 1085 l 300 1124 m 114 1032 l 871 1032 l 847 782 l 696 782 l 674 933 l 443 951 l 394 589 l 706 619 l 681 463 l 381 483 l 328 92 l 642 115 l 722 318 l 867 308 l 818 0 l -25 0 l -15 72 l 93 92 l 204 940 l 106 957 l 114 1032 z "},"Ễ":{"ha":885,"x_min":-25,"x_max":871,"o":"m 389 1529 q 455 1601 408 1569 q 546 1633 501 1633 q 604 1619 581 1633 q 653 1579 628 1606 q 686 1551 672 1560 q 718 1542 700 1542 q 769 1557 749 1542 q 813 1603 789 1572 l 867 1522 q 803 1445 849 1479 q 711 1411 757 1411 q 649 1424 672 1411 q 599 1463 625 1438 q 563 1492 578 1483 q 526 1503 549 1501 q 479 1490 500 1503 q 435 1453 458 1476 l 389 1529 m 299 1121 l 549 1374 l 669 1374 l 811 1121 l 728 1081 l 590 1213 l 372 1082 l 299 1121 m 114 1032 l 871 1032 l 847 782 l 696 782 l 674 933 l 443 951 l 394 589 l 706 619 l 681 463 l 381 483 l 328 92 l 642 115 l 722 318 l 867 308 l 818 0 l -25 0 l -15 72 l 93 92 l 204 940 l 106 957 l 114 1032 z "},"Ë":{"ha":885,"x_min":-25,"x_max":871,"o":"m 406 1126 q 340 1154 367 1126 q 314 1224 314 1182 q 344 1313 314 1281 q 428 1346 375 1346 q 499 1320 474 1346 q 525 1253 525 1294 q 495 1160 525 1193 q 406 1126 465 1126 m 713 1126 q 647 1154 674 1126 q 621 1224 621 1182 q 651 1313 621 1281 q 735 1346 682 1346 q 806 1320 781 1346 q 831 1253 831 1294 q 801 1160 831 1193 q 713 1126 771 1126 m 114 1032 l 871 1032 l 847 782 l 696 782 l 674 933 l 443 951 l 394 589 l 706 619 l 681 463 l 381 483 l 328 92 l 642 115 l 722 318 l 867 308 l 818 0 l -25 0 l -15 72 l 93 92 l 204 940 l 106 957 l 114 1032 z "},"Ė":{"ha":885,"x_min":-25,"x_max":871,"o":"m 556 1093 q 475 1128 511 1093 q 439 1207 439 1164 q 481 1301 442 1264 q 581 1339 519 1339 q 667 1307 632 1339 q 703 1233 703 1275 q 665 1133 703 1172 q 556 1093 626 1093 m 114 1032 l 871 1032 l 847 782 l 696 782 l 674 933 l 443 951 l 394 589 l 706 619 l 681 463 l 381 483 l 328 92 l 642 115 l 722 318 l 867 308 l 818 0 l -25 0 l -15 72 l 93 92 l 204 940 l 106 957 l 114 1032 z "},"Ẹ":{"ha":885,"x_min":-25,"x_max":871,"o":"m 114 1032 l 871 1032 l 847 782 l 696 782 l 674 933 l 443 951 l 394 589 l 706 619 l 681 463 l 381 483 l 328 92 l 642 115 l 722 318 l 867 308 l 818 0 l -25 0 l -15 72 l 93 92 l 204 940 l 106 957 l 114 1032 m 268 -206 q 301 -124 268 -156 q 374 -93 333 -93 q 435 -119 413 -93 q 457 -183 457 -146 q 423 -267 457 -237 q 344 -296 389 -296 q 290 -270 313 -296 q 268 -206 268 -244 z "},"È":{"ha":885,"x_min":-25,"x_max":871,"o":"m 568 1065 q 435 1138 510 1086 q 333 1240 360 1190 l 460 1365 l 647 1133 l 568 1065 m 114 1032 l 871 1032 l 847 782 l 696 782 l 674 933 l 443 951 l 394 589 l 706 619 l 681 463 l 381 483 l 328 92 l 642 115 l 722 318 l 867 308 l 818 0 l -25 0 l -15 72 l 93 92 l 204 940 l 106 957 l 114 1032 z "},"Ẻ":{"ha":885,"x_min":-25,"x_max":871,"o":"m 114 1032 l 871 1032 l 847 782 l 696 782 l 674 933 l 443 951 l 394 589 l 706 619 l 681 463 l 381 483 l 328 92 l 642 115 l 722 318 l 867 308 l 818 0 l -25 0 l -15 72 l 93 92 l 204 940 l 106 957 l 114 1032 m 514 1133 q 497 1167 507 1142 q 489 1203 488 1193 q 500 1227 492 1218 q 528 1250 508 1236 q 567 1289 557 1269 l 567 1293 q 568 1308 568 1299 q 519 1343 568 1343 q 481 1340 486 1343 l 501 1486 q 523 1490 506 1488 q 554 1493 540 1493 q 692 1460 642 1493 q 743 1363 743 1428 q 739 1326 743 1346 q 711 1272 733 1294 q 665 1233 689 1250 q 631 1210 640 1217 q 607 1183 614 1197 q 601 1142 600 1168 l 514 1133 z "},"Ē":{"ha":885,"x_min":-25,"x_max":871,"o":"m 386 1300 l 774 1300 l 760 1157 l 372 1157 l 386 1300 m 114 1032 l 871 1032 l 847 782 l 696 782 l 674 933 l 443 951 l 394 589 l 706 619 l 681 463 l 381 483 l 328 92 l 642 115 l 722 318 l 867 308 l 818 0 l -25 0 l -15 72 l 93 92 l 204 940 l 106 957 l 114 1032 z "},"Ę":{"ha":899,"x_min":-25,"x_max":871,"o":"m 758 0 q 628 -146 628 -89 q 639 -184 628 -174 q 672 -194 650 -194 q 720 -183 697 -194 q 776 -144 743 -171 l 801 -221 q 696 -297 756 -268 q 568 -325 636 -325 q 470 -294 504 -325 q 436 -207 436 -262 q 445 -167 436 -190 q 467 -124 454 -143 q 533 -49 499 -78 q 610 0 568 -21 l -25 0 l -15 72 l 93 92 l 204 940 l 106 957 l 114 1032 l 871 1032 l 847 782 l 696 782 l 674 933 l 443 951 l 394 589 l 706 619 l 681 463 l 381 483 l 328 92 l 642 115 l 722 318 l 867 308 l 818 0 l 758 0 z "},"Ẽ":{"ha":885,"x_min":-25,"x_max":871,"o":"m 114 1032 l 871 1032 l 847 782 l 696 782 l 674 933 l 443 951 l 394 589 l 706 619 l 681 463 l 381 483 l 328 92 l 642 115 l 722 318 l 867 308 l 818 0 l -25 0 l -15 72 l 93 92 l 204 940 l 106 957 l 114 1032 m 322 1221 q 386 1301 339 1267 q 496 1336 433 1336 q 560 1321 535 1336 q 614 1276 585 1306 q 651 1245 636 1256 q 685 1235 665 1235 q 789 1303 739 1235 l 849 1214 q 781 1128 829 1165 q 678 1090 733 1090 q 609 1105 635 1090 q 554 1147 583 1119 q 515 1181 532 1169 q 471 1192 497 1192 q 422 1177 444 1192 q 374 1138 399 1163 l 322 1221 z "},"F":{"ha":831,"x_min":-8,"x_max":883,"o":"m 115 1032 l 883 1032 l 856 772 l 706 772 l 686 933 l 444 950 l 394 582 l 721 601 l 699 449 l 381 475 l 332 92 l 519 72 l 514 0 l -8 0 l 0 72 l 93 92 l 204 940 l 106 957 l 115 1032 z "},"Ḟ":{"ha":831,"x_min":-8,"x_max":883,"o":"m 563 1093 q 482 1128 518 1093 q 446 1207 446 1164 q 488 1301 449 1264 q 588 1339 526 1339 q 674 1307 639 1339 q 710 1233 710 1275 q 672 1133 710 1172 q 563 1093 633 1093 m 115 1032 l 883 1032 l 856 772 l 706 772 l 686 933 l 444 950 l 394 582 l 721 601 l 699 449 l 381 475 l 332 92 l 519 72 l 514 0 l -8 0 l 0 72 l 93 92 l 204 940 l 106 957 l 115 1032 z "},"G":{"ha":960,"x_min":40,"x_max":946,"o":"m 856 57 q 726 35 782 50 q 578 1 640 13 q 432 -11 515 -11 q 209 51 297 -11 q 81 215 121 113 q 40 444 40 318 q 106 762 40 626 q 299 971 171 897 q 610 1044 426 1044 q 760 1036 704 1044 q 875 1013 815 1028 l 904 1006 l 946 997 l 901 772 l 739 772 l 732 928 q 613 957 678 957 q 365 818 438 957 q 293 446 293 679 q 340 190 293 289 q 478 92 386 92 q 628 111 576 92 l 664 400 l 526 411 l 539 511 l 917 511 l 856 57 z "},"Ǵ":{"ha":960,"x_min":40,"x_max":946,"o":"m 856 57 q 726 35 782 50 q 578 1 640 13 q 432 -11 515 -11 q 209 51 297 -11 q 81 215 121 113 q 40 444 40 318 q 106 762 40 626 q 299 971 171 897 q 610 1044 426 1044 q 760 1036 704 1044 q 875 1013 815 1028 l 904 1006 l 946 997 l 901 772 l 739 772 l 732 928 q 613 957 678 957 q 365 818 438 957 q 293 446 293 679 q 340 190 293 289 q 478 92 386 92 q 628 111 576 92 l 664 400 l 526 411 l 539 511 l 917 511 l 856 57 m 735 1365 l 863 1240 q 760 1140 838 1193 q 626 1065 683 1086 l 549 1133 l 735 1365 z "},"Ğ":{"ha":969,"x_min":40,"x_max":946,"o":"m 621 1107 q 407 1319 407 1107 q 411 1365 407 1344 l 538 1365 q 542 1303 538 1325 q 565 1268 546 1282 q 624 1254 583 1254 q 735 1365 735 1254 l 857 1365 q 794 1178 857 1249 q 621 1107 731 1107 m 856 57 q 726 35 782 50 q 578 1 640 13 q 432 -11 515 -11 q 209 51 297 -11 q 81 215 121 113 q 40 444 40 318 q 106 762 40 626 q 299 971 171 897 q 610 1044 426 1044 q 760 1036 704 1044 q 875 1013 815 1028 l 904 1006 l 946 997 l 901 772 l 739 772 l 732 928 q 613 957 678 957 q 365 818 438 957 q 293 446 293 679 q 340 190 293 289 q 478 92 386 92 q 628 111 576 92 l 664 400 l 526 411 l 539 511 l 917 511 l 856 57 z "},"Ǧ":{"ha":960,"x_min":40,"x_max":946,"o":"m 856 57 q 726 35 782 50 q 578 1 640 13 q 432 -11 515 -11 q 209 51 297 -11 q 81 215 121 113 q 40 444 40 318 q 106 762 40 626 q 299 971 171 897 q 610 1044 426 1044 q 760 1036 704 1044 q 875 1013 815 1028 l 904 1006 l 946 997 l 901 772 l 739 772 l 732 928 q 613 957 678 957 q 365 818 438 957 q 293 446 293 679 q 340 190 293 289 q 478 92 386 92 q 628 111 576 92 l 664 400 l 526 411 l 539 511 l 917 511 l 856 57 m 410 1326 l 493 1365 l 631 1249 l 849 1365 l 922 1328 l 672 1085 l 551 1085 l 410 1326 z "},"Ĝ":{"ha":960,"x_min":40,"x_max":946,"o":"m 856 57 q 726 35 782 50 q 578 1 640 13 q 432 -11 515 -11 q 209 51 297 -11 q 81 215 121 113 q 40 444 40 318 q 106 762 40 626 q 299 971 171 897 q 610 1044 426 1044 q 760 1036 704 1044 q 875 1013 815 1028 l 904 1006 l 946 997 l 901 772 l 739 772 l 732 928 q 613 957 678 957 q 365 818 438 957 q 293 446 293 679 q 340 190 293 289 q 478 92 386 92 q 628 111 576 92 l 664 400 l 526 411 l 539 511 l 917 511 l 856 57 m 368 1124 l 617 1365 l 738 1365 l 879 1124 l 796 1085 l 660 1225 l 440 1085 l 368 1124 z "},"Ģ":{"ha":969,"x_min":40,"x_max":946,"o":"m 351 -315 q 383 -282 368 -304 q 397 -228 397 -260 q 385 -181 397 -201 q 353 -158 372 -160 l 360 -96 l 464 -25 q 540 -75 510 -35 q 571 -169 571 -115 q 548 -269 571 -224 q 490 -344 525 -315 q 418 -379 454 -372 l 350 -332 l 351 -315 m 856 57 q 726 35 782 50 q 578 1 640 13 q 432 -11 515 -11 q 209 51 297 -11 q 81 215 121 113 q 40 444 40 318 q 106 762 40 626 q 299 971 171 897 q 610 1044 426 1044 q 760 1036 704 1044 q 875 1013 815 1028 l 904 1006 l 946 997 l 901 772 l 739 772 l 732 928 q 613 957 678 957 q 365 818 438 957 q 293 446 293 679 q 340 190 293 289 q 478 92 386 92 q 628 111 576 92 l 664 400 l 526 411 l 539 511 l 917 511 l 856 57 z "},"Ġ":{"ha":969,"x_min":40,"x_max":946,"o":"m 610 1093 q 529 1128 565 1093 q 493 1207 493 1164 q 535 1301 496 1264 q 635 1339 574 1339 q 722 1307 686 1339 q 757 1233 757 1275 q 719 1133 757 1172 q 610 1093 681 1093 m 856 57 q 726 35 782 50 q 578 1 640 13 q 432 -11 515 -11 q 209 51 297 -11 q 81 215 121 113 q 40 444 40 318 q 106 762 40 626 q 299 971 171 897 q 610 1044 426 1044 q 760 1036 704 1044 q 875 1013 815 1028 l 904 1006 l 946 997 l 901 772 l 739 772 l 732 928 q 613 957 678 957 q 365 818 438 957 q 293 446 293 679 q 340 190 293 289 q 478 92 386 92 q 628 111 576 92 l 664 400 l 526 411 l 539 511 l 917 511 l 856 57 z "},"Ḡ":{"ha":960,"x_min":40,"x_max":946,"o":"m 856 57 q 726 35 782 50 q 578 1 640 13 q 432 -11 515 -11 q 209 51 297 -11 q 81 215 121 113 q 40 444 40 318 q 106 762 40 626 q 299 971 171 897 q 610 1044 426 1044 q 760 1036 704 1044 q 875 1013 815 1028 l 904 1006 l 946 997 l 901 772 l 739 772 l 732 928 q 613 957 678 957 q 365 818 438 957 q 293 446 293 679 q 340 190 293 289 q 478 92 386 92 q 628 111 576 92 l 664 400 l 526 411 l 539 511 l 917 511 l 856 57 m 439 1300 l 826 1300 l 813 1157 l 425 1157 l 439 1300 z "},"H":{"ha":1124,"x_min":-6,"x_max":1172,"o":"m 119 1032 l 578 1032 l 569 957 l 447 940 l 399 572 l 772 572 l 821 940 l 701 957 l 710 1032 l 1172 1032 l 1164 957 l 1060 940 l 949 92 l 1054 72 l 1046 0 l 569 0 l 579 72 l 708 92 l 760 478 l 385 478 l 335 92 l 453 72 l 447 0 l -6 0 l 1 72 l 96 92 l 208 940 l 110 957 l 119 1032 z "},"Ħ":{"ha":1124,"x_min":-4,"x_max":1169,"o":"m 117 1038 l 575 1038 l 567 963 l 444 946 l 421 761 l 794 761 l 818 946 l 699 963 l 707 1038 l 1169 1038 l 1161 963 l 1057 946 l 1033 761 l 1154 761 l 1144 665 l 1022 665 l 950 92 l 1056 72 l 1047 0 l 571 0 l 581 72 l 710 92 l 753 422 l 378 422 l 336 92 l 454 72 l 449 0 l -4 0 l 3 72 l 97 92 l 169 665 l 53 665 l 61 761 l 182 761 l 206 946 l 107 963 l 117 1038 m 408 665 l 390 518 l 764 518 l 783 665 l 408 665 z "},"Ĥ":{"ha":1124,"x_min":-6,"x_max":1172,"o":"m 119 1032 l 578 1032 l 569 957 l 447 940 l 399 572 l 772 572 l 821 940 l 701 957 l 710 1032 l 1172 1032 l 1164 957 l 1060 940 l 949 92 l 1054 72 l 1046 0 l 569 0 l 579 72 l 708 92 l 760 478 l 385 478 l 335 92 l 453 72 l 447 0 l -6 0 l 1 72 l 96 92 l 208 940 l 110 957 l 119 1032 m 424 1124 l 672 1365 l 793 1365 l 935 1124 l 851 1085 l 715 1225 l 496 1085 l 424 1124 z "},"I":{"ha":521,"x_min":-12,"x_max":574,"o":"m 118 1032 l 574 1032 l 565 957 l 449 940 l 338 92 l 456 72 l 451 0 l -12 0 l -3 72 l 99 92 l 210 940 l 111 957 l 118 1032 z "},"Ĳ":{"ha":1022,"x_min":-12,"x_max":1075,"o":"m 118 1032 l 574 1032 l 565 957 l 449 940 l 338 92 l 456 72 l 451 0 l -12 0 l -3 72 l 99 92 l 210 940 l 111 957 l 118 1032 m 963 871 q 885 271 910 451 q 847 51 861 90 q 692 -138 807 -64 q 429 -233 578 -212 l 393 -161 q 546 -73 496 -129 q 610 58 596 -17 q 733 939 675 406 l 635 957 l 644 1032 l 1075 1032 l 1068 957 l 971 940 l 963 871 z "},"Í":{"ha":521,"x_min":-12,"x_max":613,"o":"m 118 1032 l 574 1032 l 565 957 l 449 940 l 338 92 l 456 72 l 451 0 l -12 0 l -3 72 l 99 92 l 210 940 l 111 957 l 118 1032 m 485 1365 l 613 1240 q 510 1140 588 1193 q 376 1065 433 1086 l 299 1133 l 485 1365 z "},"Ĭ":{"ha":521,"x_min":-12,"x_max":607,"o":"m 118 1032 l 574 1032 l 565 957 l 449 940 l 338 92 l 456 72 l 451 0 l -12 0 l -3 72 l 99 92 l 210 940 l 111 957 l 118 1032 m 371 1107 q 157 1319 157 1107 q 161 1365 157 1344 l 288 1365 q 292 1303 288 1325 q 315 1268 296 1282 q 374 1254 333 1254 q 485 1365 485 1254 l 607 1365 q 544 1178 607 1249 q 371 1107 481 1107 z "},"Î":{"ha":521,"x_min":-12,"x_max":629,"o":"m 118 1032 l 574 1032 l 565 957 l 449 940 l 338 92 l 456 72 l 451 0 l -12 0 l -3 72 l 99 92 l 210 940 l 111 957 l 118 1032 m 118 1124 l 367 1365 l 488 1365 l 629 1124 l 546 1085 l 410 1225 l 190 1085 l 118 1124 z "},"Ï":{"ha":521,"x_min":-12,"x_max":633,"o":"m 118 1032 l 574 1032 l 565 957 l 449 940 l 338 92 l 456 72 l 451 0 l -12 0 l -3 72 l 99 92 l 210 940 l 111 957 l 118 1032 m 208 1126 q 143 1154 169 1126 q 117 1224 117 1182 q 147 1313 117 1281 q 231 1346 178 1346 q 302 1320 276 1346 q 328 1253 328 1294 q 298 1160 328 1193 q 208 1126 268 1126 m 515 1126 q 450 1154 476 1126 q 424 1224 424 1182 q 454 1313 424 1281 q 538 1346 485 1346 q 608 1320 583 1346 q 633 1253 633 1294 q 603 1160 633 1193 q 515 1126 574 1126 z "},"İ":{"ha":521,"x_min":-12,"x_max":574,"o":"m 118 1032 l 574 1032 l 565 957 l 449 940 l 338 92 l 456 72 l 451 0 l -12 0 l -3 72 l 99 92 l 210 940 l 111 957 l 118 1032 m 360 1093 q 279 1128 315 1093 q 243 1207 243 1164 q 285 1301 246 1264 q 385 1339 324 1339 q 472 1307 436 1339 q 507 1233 507 1275 q 469 1133 507 1172 q 360 1093 431 1093 z "},"Ị":{"ha":521,"x_min":-12,"x_max":574,"o":"m 118 1032 l 574 1032 l 565 957 l 449 940 l 338 92 l 456 72 l 451 0 l -12 0 l -3 72 l 99 92 l 210 940 l 111 957 l 118 1032 m 86 -206 q 119 -124 86 -156 q 192 -93 151 -93 q 253 -119 231 -93 q 275 -183 275 -146 q 241 -267 275 -237 q 163 -296 207 -296 q 108 -270 131 -296 q 86 -206 86 -244 z "},"Ì":{"ha":521,"x_min":-12,"x_max":574,"o":"m 118 1032 l 574 1032 l 565 957 l 449 940 l 338 92 l 456 72 l 451 0 l -12 0 l -3 72 l 99 92 l 210 940 l 111 957 l 118 1032 m 371 1065 q 238 1138 313 1086 q 136 1240 163 1190 l 263 1365 l 450 1133 l 371 1065 z "},"Ỉ":{"ha":521,"x_min":-12,"x_max":574,"o":"m 118 1032 l 574 1032 l 565 957 l 449 940 l 338 92 l 456 72 l 451 0 l -12 0 l -3 72 l 99 92 l 210 940 l 111 957 l 118 1032 m 318 1133 q 301 1167 311 1142 q 293 1203 292 1193 q 304 1227 296 1218 q 332 1250 313 1236 q 371 1289 361 1269 l 371 1293 q 372 1308 372 1299 q 324 1343 372 1343 q 285 1340 290 1343 l 306 1486 q 327 1490 310 1488 q 358 1493 344 1493 q 497 1460 446 1493 q 547 1363 547 1428 q 543 1326 547 1346 q 515 1272 538 1294 q 469 1233 493 1250 q 435 1210 444 1217 q 411 1183 418 1197 q 406 1142 404 1168 l 318 1133 z "},"Ī":{"ha":521,"x_min":-12,"x_max":576,"o":"m 118 1032 l 574 1032 l 565 957 l 449 940 l 338 92 l 456 72 l 451 0 l -12 0 l -3 72 l 99 92 l 210 940 l 111 957 l 118 1032 m 189 1300 l 576 1300 l 563 1157 l 175 1157 l 189 1300 z "},"Į":{"ha":521,"x_min":-22,"x_max":574,"o":"m 300 0 q 168 -146 168 -87 q 180 -184 168 -174 q 214 -194 192 -194 q 260 -183 239 -194 q 318 -144 282 -171 l 342 -221 q 238 -297 297 -268 q 108 -325 178 -325 q 11 -294 44 -325 q -22 -207 -22 -262 q -14 -166 -22 -190 q 8 -124 -6 -142 q 75 -49 40 -78 q 151 0 110 -21 l -12 0 l -3 72 l 99 92 l 210 940 l 111 957 l 118 1032 l 574 1032 l 565 957 l 449 940 l 338 92 l 456 72 l 451 0 l 300 0 z "},"Ĩ":{"ha":521,"x_min":-12,"x_max":653,"o":"m 118 1032 l 574 1032 l 565 957 l 449 940 l 338 92 l 456 72 l 451 0 l -12 0 l -3 72 l 99 92 l 210 940 l 111 957 l 118 1032 m 126 1221 q 190 1301 143 1267 q 300 1336 238 1336 q 364 1321 339 1336 q 418 1276 389 1306 q 455 1245 440 1256 q 489 1235 469 1235 q 593 1303 543 1235 l 653 1214 q 585 1128 633 1165 q 482 1090 538 1090 q 413 1105 439 1090 q 358 1147 388 1119 q 319 1181 336 1169 q 275 1192 301 1192 q 226 1177 249 1192 q 178 1138 203 1163 l 126 1221 z "},"J":{"ha":501,"x_min":-128,"x_max":554,"o":"m 442 871 q 365 271 389 451 q 326 51 340 90 q 172 -138 286 -64 q -92 -233 57 -212 l -128 -161 q 25 -73 -25 -129 q 89 58 75 -17 q 213 939 154 406 l 114 957 l 124 1032 l 554 1032 l 547 957 l 450 940 l 442 871 z "},"Ĵ":{"ha":501,"x_min":-128,"x_max":610,"o":"m 442 871 q 365 271 389 451 q 326 51 340 90 q 172 -138 286 -64 q -92 -233 57 -212 l -128 -161 q 25 -73 -25 -129 q 89 58 75 -17 q 213 939 154 406 l 114 957 l 124 1032 l 554 1032 l 547 957 l 450 940 l 442 871 m 99 1124 l 347 1365 l 468 1365 l 610 1124 l 526 1085 l 390 1225 l 171 1085 l 99 1124 z "},"K":{"ha":1008,"x_min":-15,"x_max":1063,"o":"m 653 625 q 708 520 674 593 q 753 426 743 447 q 806 315 788 350 q 891 152 864 200 q 940 92 918 104 l 1019 72 l 1011 0 l 717 0 q 683 15 696 3 q 658 52 671 26 q 621 139 644 78 q 582 243 607 171 q 549 333 576 258 q 492 464 521 408 l 364 336 l 332 92 l 450 72 l 443 0 l -15 0 l -6 72 l 93 92 l 204 940 l 107 957 l 115 1032 l 574 1032 l 565 957 l 443 940 l 383 490 l 807 940 l 715 958 l 722 1032 l 1063 1032 l 1054 957 l 968 940 l 653 625 z "},"Ķ":{"ha":1008,"x_min":-15,"x_max":1063,"o":"m 389 -314 q 420 -281 406 -303 q 435 -226 435 -258 q 422 -179 435 -200 q 390 -157 410 -158 l 397 -94 l 501 -24 q 578 -74 547 -33 q 608 -168 608 -114 q 585 -268 608 -222 q 527 -342 563 -314 q 456 -378 492 -371 l 388 -331 l 389 -314 m 653 625 q 708 520 674 593 q 753 426 743 447 q 806 315 788 350 q 891 152 864 200 q 940 92 918 104 l 1019 72 l 1011 0 l 717 0 q 683 15 696 3 q 658 52 671 26 q 621 139 644 78 q 582 243 607 171 q 549 333 576 258 q 492 464 521 408 l 364 336 l 332 92 l 450 72 l 443 0 l -15 0 l -6 72 l 93 92 l 204 940 l 107 957 l 115 1032 l 574 1032 l 565 957 l 443 940 l 383 490 l 807 940 l 715 958 l 722 1032 l 1063 1032 l 1054 957 l 968 940 l 653 625 z "},"L":{"ha":861,"x_min":-8,"x_max":840,"o":"m 115 1032 l 575 1032 l 567 957 l 443 940 l 331 88 l 575 101 l 718 407 l 840 392 l 769 0 l -8 0 l 0 72 l 93 92 l 204 940 l 106 957 l 115 1032 z "},"Ĺ":{"ha":861,"x_min":-8,"x_max":840,"o":"m 522 1367 l 650 1242 q 548 1141 625 1194 q 414 1067 471 1088 l 336 1135 l 522 1367 m 115 1032 l 575 1032 l 567 957 l 443 940 l 331 88 l 575 101 l 718 407 l 840 392 l 769 0 l -8 0 l 0 72 l 93 92 l 204 940 l 106 957 l 115 1032 z "},"Ľ":{"ha":861,"x_min":-8,"x_max":840,"o":"m 115 1032 l 575 1032 l 567 957 l 443 940 l 331 88 l 575 101 l 718 407 l 840 392 l 769 0 l -8 0 l 0 72 l 93 92 l 204 940 l 106 957 l 115 1032 m 646 718 q 665 808 657 751 q 674 922 674 865 q 657 1058 674 1035 l 671 1088 l 811 1118 q 830 1069 824 1106 q 836 990 836 1033 q 810 818 836 906 q 738 681 783 731 l 650 701 l 646 718 z "},"Ļ":{"ha":861,"x_min":-8,"x_max":840,"o":"m 231 -314 q 262 -281 247 -303 q 276 -226 276 -258 q 264 -179 276 -200 q 232 -157 251 -158 l 239 -94 l 343 -24 q 419 -74 389 -33 q 450 -168 450 -114 q 427 -268 450 -222 q 369 -342 404 -314 q 297 -378 333 -371 l 229 -331 l 231 -314 m 115 1032 l 575 1032 l 567 957 l 443 940 l 331 88 l 575 101 l 718 407 l 840 392 l 769 0 l -8 0 l 0 72 l 93 92 l 204 940 l 106 957 l 115 1032 z "},"Ŀ":{"ha":861,"x_min":-8,"x_max":869,"o":"m 115 1032 l 575 1032 l 567 957 l 443 940 l 331 88 l 575 101 l 718 407 l 840 392 l 769 0 l -8 0 l 0 72 l 93 92 l 204 940 l 106 957 l 115 1032 m 640 622 q 680 720 640 682 q 769 758 719 758 q 843 726 817 758 q 869 649 869 693 q 828 548 869 583 q 733 513 788 513 q 667 544 694 513 q 640 622 640 575 z "},"Ł":{"ha":861,"x_min":-8,"x_max":840,"o":"m 115 1033 l 575 1033 l 567 958 l 443 942 l 393 565 l 600 649 l 624 563 l 381 467 l 331 89 l 575 103 l 718 408 l 840 393 l 769 1 l -8 1 l 0 74 l 93 93 l 129 367 l 31 328 l 6 407 l 142 463 l 204 942 l 106 958 l 115 1033 z "},"M":{"ha":1371,"x_min":-60,"x_max":1386,"o":"m 972 1032 l 1386 1032 l 1376 957 l 1257 940 l 1231 92 l 1353 72 l 1347 0 l 864 0 l 869 74 l 997 92 l 1036 669 l 1050 940 l 953 703 l 656 -1 l 540 -12 l 449 686 l 411 940 l 353 679 l 211 92 l 364 72 l 357 0 l -60 0 l -51 72 l 58 92 l 279 940 l 147 957 l 158 1032 l 626 1032 l 694 461 l 708 346 l 746 461 l 972 1032 z "},"Ṁ":{"ha":1368,"x_min":-60,"x_max":1386,"o":"m 808 1093 q 728 1128 764 1093 q 692 1207 692 1164 q 733 1301 694 1264 q 833 1339 772 1339 q 920 1307 885 1339 q 956 1233 956 1275 q 917 1133 956 1172 q 808 1093 879 1093 m 972 1032 l 1386 1032 l 1376 957 l 1257 940 l 1231 92 l 1353 72 l 1347 0 l 864 0 l 869 74 l 997 92 l 1036 669 l 1050 940 l 953 703 l 656 -1 l 540 -12 l 449 686 l 411 940 l 353 679 l 211 92 l 364 72 l 357 0 l -60 0 l -51 72 l 58 92 l 279 940 l 147 957 l 158 1032 l 626 1032 l 694 461 l 708 346 l 746 461 l 972 1032 z "},"N":{"ha":1054,"x_min":-12,"x_max":1121,"o":"m 115 1032 l 493 1032 l 744 363 l 797 207 l 890 940 l 774 957 l 781 1032 l 1121 1032 l 1114 957 l 1031 940 l 886 0 l 643 0 l 378 692 l 325 864 l 240 92 l 369 72 l 363 0 l -12 0 l -7 72 l 93 92 l 219 940 l 104 957 l 115 1032 z "},"Ń":{"ha":1054,"x_min":-12,"x_max":1121,"o":"m 753 1365 l 881 1240 q 778 1140 856 1193 q 644 1065 701 1086 l 567 1133 l 753 1365 m 115 1032 l 493 1032 l 744 363 l 797 207 l 890 940 l 774 957 l 781 1032 l 1121 1032 l 1114 957 l 1031 940 l 886 0 l 643 0 l 378 692 l 325 864 l 240 92 l 369 72 l 363 0 l -12 0 l -7 72 l 93 92 l 219 940 l 104 957 l 115 1032 z "},"Ň":{"ha":1054,"x_min":-12,"x_max":1121,"o":"m 426 1326 l 510 1365 l 647 1249 l 865 1365 l 939 1328 l 689 1085 l 568 1085 l 426 1326 m 115 1032 l 493 1032 l 744 363 l 797 207 l 890 940 l 774 957 l 781 1032 l 1121 1032 l 1114 957 l 1031 940 l 886 0 l 643 0 l 378 692 l 325 864 l 240 92 l 369 72 l 363 0 l -12 0 l -7 72 l 93 92 l 219 940 l 104 957 l 115 1032 z "},"Ņ":{"ha":1054,"x_min":-12,"x_max":1121,"o":"m 347 -315 q 378 -282 364 -304 q 393 -228 393 -260 q 381 -181 393 -201 q 349 -158 368 -160 l 356 -96 l 460 -25 q 536 -75 506 -35 q 567 -169 567 -115 q 544 -269 567 -224 q 485 -344 521 -315 q 414 -379 450 -372 l 346 -332 l 347 -315 m 115 1032 l 493 1032 l 744 363 l 797 207 l 890 940 l 774 957 l 781 1032 l 1121 1032 l 1114 957 l 1031 940 l 886 0 l 643 0 l 378 692 l 325 864 l 240 92 l 369 72 l 363 0 l -12 0 l -7 72 l 93 92 l 219 940 l 104 957 l 115 1032 z "},"Ṅ":{"ha":1054,"x_min":-12,"x_max":1121,"o":"m 115 1032 l 493 1032 l 744 363 l 797 207 l 890 940 l 774 957 l 781 1032 l 1121 1032 l 1114 957 l 1031 940 l 886 0 l 643 0 l 378 692 l 325 864 l 240 92 l 369 72 l 363 0 l -12 0 l -7 72 l 93 92 l 219 940 l 104 957 l 115 1032 m 626 1093 q 546 1128 582 1093 q 510 1207 510 1164 q 551 1301 513 1264 q 651 1339 590 1339 q 738 1307 703 1339 q 774 1233 774 1275 q 735 1133 774 1172 q 626 1093 697 1093 z "},"Ŋ":{"ha":1054,"x_min":-15,"x_max":1115,"o":"m 885 0 q 826 -156 872 -83 q 703 -276 781 -229 q 524 -329 625 -324 l 492 -249 q 585 -206 538 -240 q 664 -117 633 -171 q 690 0 694 -64 l 374 697 l 319 869 l 239 92 l 368 72 l 360 0 l -15 0 l -10 72 l 92 92 l 214 946 l 99 963 l 110 1038 l 488 1038 l 753 421 l 801 251 l 885 946 l 768 963 l 775 1038 l 1115 1038 l 1108 963 l 1025 946 l 885 0 z "},"Ñ":{"ha":1054,"x_min":-12,"x_max":1121,"o":"m 394 1221 q 458 1301 411 1267 q 568 1336 506 1336 q 632 1321 607 1336 q 686 1276 657 1306 q 723 1245 708 1256 q 757 1235 738 1235 q 861 1303 811 1235 l 921 1214 q 853 1128 901 1165 q 750 1090 806 1090 q 681 1105 707 1090 q 626 1147 656 1119 q 587 1181 604 1169 q 543 1192 569 1192 q 494 1177 517 1192 q 446 1138 471 1163 l 394 1221 m 115 1032 l 493 1032 l 744 363 l 797 207 l 890 940 l 774 957 l 781 1032 l 1121 1032 l 1114 957 l 1031 940 l 886 0 l 643 0 l 378 692 l 325 864 l 240 92 l 369 72 l 363 0 l -12 0 l -7 72 l 93 92 l 219 940 l 104 957 l 115 1032 z "},"O":{"ha":992,"x_min":42,"x_max":971,"o":"m 578 1046 q 875 922 779 1046 q 971 606 971 797 q 915 302 971 443 q 738 74 858 161 q 435 -14 617 -14 q 138 108 233 -14 q 42 432 42 229 q 101 735 42 596 q 282 960 161 875 q 578 1046 403 1046 m 558 961 q 419 888 478 961 q 331 694 361 814 q 300 440 300 575 q 333 174 300 278 q 454 69 365 69 q 647 217 581 69 q 713 597 713 365 q 676 868 713 775 q 558 961 640 961 z "},"Ó":{"ha":992,"x_min":44,"x_max":974,"o":"m 703 1365 l 831 1240 q 728 1140 806 1193 q 594 1065 651 1086 l 517 1133 l 703 1365 m 581 1046 q 878 922 782 1046 q 974 606 974 797 q 917 302 974 443 q 740 74 861 161 q 438 -14 619 -14 q 140 108 236 -14 q 44 432 44 229 q 104 735 44 596 q 285 960 164 875 q 581 1046 406 1046 m 561 961 q 422 888 481 961 q 333 694 364 814 q 303 440 303 575 q 335 174 303 278 q 457 69 368 69 q 649 217 583 69 q 715 597 715 365 q 679 868 715 775 q 561 961 643 961 z "},"Ŏ":{"ha":992,"x_min":44,"x_max":974,"o":"m 588 1107 q 374 1319 374 1107 q 378 1365 374 1344 l 504 1365 q 508 1303 504 1325 q 531 1268 513 1282 q 590 1254 550 1254 q 701 1365 701 1254 l 824 1365 q 760 1178 824 1249 q 588 1107 697 1107 m 581 1046 q 878 922 782 1046 q 974 606 974 797 q 917 302 974 443 q 740 74 861 161 q 438 -14 619 -14 q 140 108 236 -14 q 44 432 44 229 q 104 735 44 596 q 285 960 164 875 q 581 1046 406 1046 m 561 961 q 422 888 481 961 q 333 694 364 814 q 303 440 303 575 q 335 174 303 278 q 457 69 368 69 q 649 217 583 69 q 715 597 715 365 q 679 868 715 775 q 561 961 643 961 z "},"Ô":{"ha":992,"x_min":42,"x_max":971,"o":"m 578 1046 q 875 922 779 1046 q 971 606 971 797 q 915 302 971 443 q 738 74 858 161 q 435 -14 617 -14 q 138 108 233 -14 q 42 432 42 229 q 101 735 42 596 q 282 960 161 875 q 578 1046 403 1046 m 558 961 q 419 888 478 961 q 331 694 361 814 q 300 440 300 575 q 333 174 300 278 q 454 69 365 69 q 647 217 581 69 q 713 597 713 365 q 676 868 713 775 q 558 961 640 961 m 332 1124 l 581 1365 l 701 1365 l 843 1124 l 760 1085 l 624 1225 l 404 1085 l 332 1124 z "},"Ố":{"ha":992,"x_min":42,"x_max":1065,"o":"m 957 1561 l 1065 1457 q 967 1361 1049 1428 q 839 1275 886 1294 l 779 1321 l 957 1561 m 304 1129 l 554 1382 l 675 1382 l 817 1129 l 733 1089 l 596 1221 l 378 1090 l 304 1129 m 578 1046 q 875 922 779 1046 q 971 606 971 797 q 915 302 971 443 q 738 74 858 161 q 435 -14 617 -14 q 138 108 233 -14 q 42 432 42 229 q 101 735 42 596 q 282 960 161 875 q 578 1046 403 1046 m 558 961 q 419 888 478 961 q 331 694 361 814 q 300 440 300 575 q 333 174 300 278 q 454 69 365 69 q 647 217 581 69 q 713 597 713 365 q 676 868 713 775 q 558 961 640 961 z "},"Ộ":{"ha":992,"x_min":42,"x_max":971,"o":"m 578 1046 q 875 922 779 1046 q 971 606 971 797 q 915 302 971 443 q 738 74 858 161 q 435 -14 617 -14 q 138 108 233 -14 q 42 432 42 229 q 101 735 42 596 q 282 960 161 875 q 578 1046 403 1046 m 558 961 q 419 888 478 961 q 331 694 361 814 q 300 440 300 575 q 333 174 300 278 q 454 69 365 69 q 647 217 581 69 q 713 597 713 365 q 676 868 713 775 q 558 961 640 961 m 321 -206 q 353 -124 321 -156 q 426 -93 386 -93 q 488 -119 465 -93 q 510 -183 510 -146 q 476 -267 510 -237 q 397 -296 442 -296 q 343 -270 365 -296 q 321 -206 321 -244 m 332 1124 l 581 1365 l 701 1365 l 843 1124 l 760 1085 l 624 1225 l 404 1085 l 332 1124 z "},"Ồ":{"ha":992,"x_min":42,"x_max":971,"o":"m 850 1342 q 734 1419 810 1358 q 635 1524 658 1481 l 747 1622 l 908 1381 l 850 1342 m 322 1126 l 572 1379 l 693 1379 l 835 1126 l 751 1086 l 614 1218 l 396 1088 l 322 1126 m 578 1046 q 875 922 779 1046 q 971 606 971 797 q 915 302 971 443 q 738 74 858 161 q 435 -14 617 -14 q 138 108 233 -14 q 42 432 42 229 q 101 735 42 596 q 282 960 161 875 q 578 1046 403 1046 m 558 961 q 419 888 478 961 q 331 694 361 814 q 300 440 300 575 q 333 174 300 278 q 454 69 365 69 q 647 217 581 69 q 713 597 713 365 q 676 868 713 775 q 558 961 640 961 z "},"Ổ":{"ha":992,"x_min":42,"x_max":1024,"o":"m 835 1260 q 821 1288 829 1267 q 814 1318 813 1310 q 824 1338 817 1331 q 846 1357 831 1344 q 878 1389 871 1374 l 878 1392 q 879 1406 879 1396 q 839 1433 879 1433 q 807 1431 811 1433 l 824 1551 q 842 1555 828 1553 q 868 1557 857 1557 q 982 1530 940 1557 q 1024 1449 1024 1503 q 1021 1419 1024 1442 q 996 1374 1015 1393 q 957 1342 976 1354 q 931 1324 938 1329 q 912 1301 918 1314 q 907 1267 906 1289 l 835 1260 m 318 1129 l 568 1382 l 689 1382 l 831 1129 l 747 1089 l 610 1221 l 392 1090 l 318 1129 m 578 1046 q 875 922 779 1046 q 971 606 971 797 q 915 302 971 443 q 738 74 858 161 q 435 -14 617 -14 q 138 108 233 -14 q 42 432 42 229 q 101 735 42 596 q 282 960 161 875 q 578 1046 403 1046 m 558 961 q 419 888 478 961 q 331 694 361 814 q 300 440 300 575 q 333 174 300 278 q 454 69 365 69 q 647 217 581 69 q 713 597 713 365 q 676 868 713 775 q 558 961 640 961 z "},"Ỗ":{"ha":992,"x_min":42,"x_max":971,"o":"m 407 1533 q 473 1606 426 1574 q 564 1638 519 1638 q 622 1624 599 1638 q 671 1583 646 1610 q 704 1555 690 1564 q 736 1546 718 1546 q 787 1561 767 1546 q 831 1607 807 1576 l 885 1526 q 821 1449 867 1483 q 729 1415 775 1415 q 667 1428 690 1415 q 617 1467 643 1442 q 581 1497 596 1488 q 544 1507 567 1506 q 497 1494 518 1507 q 453 1457 476 1481 l 407 1533 m 317 1125 l 567 1378 l 688 1378 l 829 1125 l 746 1085 l 608 1217 l 390 1086 l 317 1125 m 578 1046 q 875 922 779 1046 q 971 606 971 797 q 915 302 971 443 q 738 74 858 161 q 435 -14 617 -14 q 138 108 233 -14 q 42 432 42 229 q 101 735 42 596 q 282 960 161 875 q 578 1046 403 1046 m 558 961 q 419 888 478 961 q 331 694 361 814 q 300 440 300 575 q 333 174 300 278 q 454 69 365 69 q 647 217 581 69 q 713 597 713 365 q 676 868 713 775 q 558 961 640 961 z "},"Ö":{"ha":992,"x_min":44,"x_max":974,"o":"m 425 1126 q 360 1154 386 1126 q 333 1224 333 1182 q 364 1313 333 1281 q 447 1346 394 1346 q 519 1320 493 1346 q 544 1253 544 1294 q 515 1160 544 1193 q 425 1126 485 1126 m 732 1126 q 667 1154 693 1126 q 640 1224 640 1182 q 671 1313 640 1281 q 754 1346 701 1346 q 825 1320 800 1346 q 850 1253 850 1294 q 820 1160 850 1193 q 732 1126 790 1126 m 581 1046 q 878 922 782 1046 q 974 606 974 797 q 917 302 974 443 q 740 74 861 161 q 438 -14 619 -14 q 140 108 236 -14 q 44 432 44 229 q 104 735 44 596 q 285 960 164 875 q 581 1046 406 1046 m 561 961 q 422 888 481 961 q 333 694 364 814 q 303 440 303 575 q 335 174 303 278 q 457 69 368 69 q 649 217 583 69 q 715 597 715 365 q 679 868 715 775 q 561 961 643 961 z "},"Ọ":{"ha":992,"x_min":42,"x_max":971,"o":"m 578 1046 q 875 922 779 1046 q 971 606 971 797 q 915 302 971 443 q 738 74 858 161 q 435 -14 617 -14 q 138 108 233 -14 q 42 432 42 229 q 101 735 42 596 q 282 960 161 875 q 578 1046 403 1046 m 558 961 q 419 888 478 961 q 331 694 361 814 q 300 440 300 575 q 333 174 300 278 q 454 69 365 69 q 647 217 581 69 q 713 597 713 365 q 676 868 713 775 q 558 961 640 961 m 321 -206 q 353 -124 321 -156 q 426 -93 386 -93 q 488 -119 465 -93 q 510 -183 510 -146 q 476 -267 510 -237 q 397 -296 442 -296 q 343 -270 365 -296 q 321 -206 321 -244 z "},"Ò":{"ha":992,"x_min":44,"x_max":974,"o":"m 588 1065 q 454 1138 529 1086 q 353 1240 379 1190 l 479 1365 l 667 1133 l 588 1065 m 581 1046 q 878 922 782 1046 q 974 606 974 797 q 917 302 974 443 q 740 74 861 161 q 438 -14 619 -14 q 140 108 236 -14 q 44 432 44 229 q 104 735 44 596 q 285 960 164 875 q 581 1046 406 1046 m 561 961 q 422 888 481 961 q 333 694 364 814 q 303 440 303 575 q 335 174 303 278 q 457 69 368 69 q 649 217 583 69 q 715 597 715 365 q 679 868 715 775 q 561 961 643 961 z "},"Ỏ":{"ha":992,"x_min":42,"x_max":971,"o":"m 578 1046 q 875 922 779 1046 q 971 606 971 797 q 915 302 971 443 q 738 74 858 161 q 435 -14 617 -14 q 138 108 233 -14 q 42 432 42 229 q 101 735 42 596 q 282 960 161 875 q 578 1046 403 1046 m 558 961 q 419 888 478 961 q 331 694 361 814 q 300 440 300 575 q 333 174 300 278 q 454 69 365 69 q 647 217 581 69 q 713 597 713 365 q 676 868 713 775 q 558 961 640 961 m 532 1133 q 515 1167 525 1142 q 507 1203 506 1193 q 518 1227 510 1218 q 546 1250 526 1236 q 585 1289 575 1269 l 585 1293 q 586 1308 586 1299 q 538 1343 586 1343 q 499 1340 504 1343 l 519 1486 q 541 1490 524 1488 q 572 1493 558 1493 q 710 1460 660 1493 q 761 1363 761 1428 q 757 1326 761 1346 q 729 1272 751 1294 q 683 1233 707 1250 q 649 1210 658 1217 q 625 1183 632 1197 q 619 1142 618 1168 l 532 1133 z "},"Ơ":{"ha":992,"x_min":42,"x_max":1035,"o":"m 1031 1131 q 869 928 1008 982 q 946 785 921 868 q 971 606 971 701 q 915 302 971 443 q 738 74 858 161 q 435 -14 617 -14 q 138 108 233 -14 q 42 432 42 229 q 101 735 42 596 q 282 960 161 875 q 578 1046 403 1046 q 725 1024 656 1046 q 799 1041 772 1025 q 838 1077 826 1057 q 867 1138 850 1097 q 874 1161 874 1154 l 1035 1161 l 1031 1131 m 454 69 q 647 217 581 69 q 713 597 713 365 q 676 868 713 775 q 558 961 640 961 q 419 888 478 961 q 331 694 361 814 q 300 440 300 575 q 333 174 300 278 q 454 69 365 69 z "},"Ớ":{"ha":992,"x_min":42,"x_max":1035,"o":"m 1031 1131 q 869 928 1008 982 q 946 785 921 868 q 971 606 971 701 q 915 302 971 443 q 738 74 858 161 q 435 -14 617 -14 q 138 108 233 -14 q 42 432 42 229 q 101 735 42 596 q 282 960 161 875 q 578 1046 403 1046 q 725 1024 656 1046 q 799 1041 772 1025 q 838 1077 826 1057 q 867 1138 850 1097 q 874 1161 874 1154 l 1035 1161 l 1031 1131 m 454 69 q 647 217 581 69 q 713 597 713 365 q 676 868 713 775 q 558 961 640 961 q 419 888 478 961 q 331 694 361 814 q 300 440 300 575 q 333 174 300 278 q 454 69 365 69 m 699 1365 l 826 1240 q 724 1140 801 1193 q 590 1065 647 1086 l 513 1133 l 699 1365 z "},"Ợ":{"ha":992,"x_min":42,"x_max":1035,"o":"m 1031 1131 q 869 928 1008 982 q 946 785 921 868 q 971 606 971 701 q 915 302 971 443 q 738 74 858 161 q 435 -14 617 -14 q 138 108 233 -14 q 42 432 42 229 q 101 735 42 596 q 282 960 161 875 q 578 1046 403 1046 q 725 1024 656 1046 q 799 1041 772 1025 q 838 1077 826 1057 q 867 1138 850 1097 q 874 1161 874 1154 l 1035 1161 l 1031 1131 m 454 69 q 647 217 581 69 q 713 597 713 365 q 676 868 713 775 q 558 961 640 961 q 419 888 478 961 q 331 694 361 814 q 300 440 300 575 q 333 174 300 278 q 454 69 365 69 m 321 -206 q 353 -124 321 -156 q 426 -93 386 -93 q 488 -119 465 -93 q 510 -183 510 -146 q 476 -267 510 -237 q 397 -296 442 -296 q 343 -270 365 -296 q 321 -206 321 -244 z "},"Ờ":{"ha":992,"x_min":42,"x_max":1035,"o":"m 1031 1131 q 869 928 1008 982 q 946 785 921 868 q 971 606 971 701 q 915 302 971 443 q 738 74 858 161 q 435 -14 617 -14 q 138 108 233 -14 q 42 432 42 229 q 101 735 42 596 q 282 960 161 875 q 578 1046 403 1046 q 725 1024 656 1046 q 799 1041 772 1025 q 838 1077 826 1057 q 867 1138 850 1097 q 874 1161 874 1154 l 1035 1161 l 1031 1131 m 454 69 q 647 217 581 69 q 713 597 713 365 q 676 868 713 775 q 558 961 640 961 q 419 888 478 961 q 331 694 361 814 q 300 440 300 575 q 333 174 300 278 q 454 69 365 69 m 585 1065 q 451 1138 526 1086 q 350 1240 376 1190 l 476 1365 l 664 1133 l 585 1065 z "},"Ở":{"ha":992,"x_min":42,"x_max":1035,"o":"m 1031 1131 q 869 928 1008 982 q 946 785 921 868 q 971 606 971 701 q 915 302 971 443 q 738 74 858 161 q 435 -14 617 -14 q 138 108 233 -14 q 42 432 42 229 q 101 735 42 596 q 282 960 161 875 q 578 1046 403 1046 q 725 1024 656 1046 q 799 1041 772 1025 q 838 1077 826 1057 q 867 1138 850 1097 q 874 1161 874 1154 l 1035 1161 l 1031 1131 m 454 69 q 647 217 581 69 q 713 597 713 365 q 676 868 713 775 q 558 961 640 961 q 419 888 478 961 q 331 694 361 814 q 300 440 300 575 q 333 174 300 278 q 454 69 365 69 m 532 1133 q 515 1167 525 1142 q 507 1203 506 1193 q 518 1227 510 1218 q 546 1250 526 1236 q 585 1289 575 1269 l 585 1293 q 586 1308 586 1299 q 538 1343 586 1343 q 499 1340 504 1343 l 519 1486 q 541 1490 524 1488 q 572 1493 558 1493 q 710 1460 660 1493 q 761 1363 761 1428 q 757 1326 761 1346 q 729 1272 751 1294 q 683 1233 707 1250 q 649 1210 658 1217 q 625 1183 632 1197 q 619 1142 618 1168 l 532 1133 z "},"Ỡ":{"ha":992,"x_min":42,"x_max":1035,"o":"m 1031 1131 q 869 928 1008 982 q 946 785 921 868 q 971 606 971 701 q 915 302 971 443 q 738 74 858 161 q 435 -14 617 -14 q 138 108 233 -14 q 42 432 42 229 q 101 735 42 596 q 282 960 161 875 q 578 1046 403 1046 q 725 1024 656 1046 q 799 1041 772 1025 q 838 1077 826 1057 q 867 1138 850 1097 q 874 1161 874 1154 l 1035 1161 l 1031 1131 m 454 69 q 647 217 581 69 q 713 597 713 365 q 676 868 713 775 q 558 961 640 961 q 419 888 478 961 q 331 694 361 814 q 300 440 300 575 q 333 174 300 278 q 454 69 365 69 m 340 1221 q 404 1301 357 1267 q 514 1336 451 1336 q 578 1321 553 1336 q 632 1276 603 1306 q 669 1245 654 1256 q 703 1235 683 1235 q 807 1303 757 1235 l 867 1214 q 799 1128 847 1165 q 696 1090 751 1090 q 627 1105 653 1090 q 572 1147 601 1119 q 533 1181 550 1169 q 489 1192 515 1192 q 440 1177 463 1192 q 392 1138 417 1163 l 340 1221 z "},"Ő":{"ha":992,"x_min":42,"x_max":971,"o":"m 578 1046 q 875 922 779 1046 q 971 606 971 797 q 915 302 971 443 q 738 74 858 161 q 435 -14 617 -14 q 138 108 233 -14 q 42 432 42 229 q 101 735 42 596 q 282 960 161 875 q 578 1046 403 1046 m 558 961 q 419 888 478 961 q 331 694 361 814 q 300 440 300 575 q 333 174 300 278 q 454 69 365 69 q 647 217 581 69 q 713 597 713 365 q 676 868 713 775 q 558 961 640 961 m 513 1365 l 624 1276 q 524 1151 597 1218 q 392 1065 450 1085 l 321 1115 l 513 1365 m 844 1365 l 953 1275 q 847 1147 915 1211 q 721 1065 779 1083 l 654 1115 l 844 1365 z "},"Ō":{"ha":992,"x_min":44,"x_max":974,"o":"m 406 1300 l 793 1300 l 779 1157 l 392 1157 l 406 1300 m 581 1046 q 878 922 782 1046 q 974 606 974 797 q 917 302 974 443 q 740 74 861 161 q 438 -14 619 -14 q 140 108 236 -14 q 44 432 44 229 q 104 735 44 596 q 285 960 164 875 q 581 1046 406 1046 m 561 961 q 422 888 481 961 q 333 694 364 814 q 303 440 303 575 q 335 174 303 278 q 457 69 368 69 q 649 217 583 69 q 715 597 715 365 q 679 868 715 775 q 561 961 643 961 z "},"Ø":{"ha":992,"x_min":44,"x_max":974,"o":"m 835 965 q 940 814 906 907 q 974 607 974 721 q 917 303 974 444 q 740 75 861 163 q 438 -12 619 -12 q 228 36 317 -12 l 142 -89 l 82 -50 l 171 78 q 76 227 107 136 q 44 433 44 318 q 104 737 44 597 q 284 962 164 876 q 579 1047 404 1047 q 776 1004 694 1047 l 868 1139 l 929 1100 l 835 965 m 682 861 q 561 963 646 963 q 422 889 481 963 q 333 696 364 815 q 303 442 303 576 q 314 263 303 336 l 682 861 m 333 181 q 457 71 371 71 q 649 219 583 71 q 715 599 715 367 q 701 783 715 710 l 333 181 z "},"Ǿ":{"ha":992,"x_min":44,"x_max":974,"o":"m 835 965 q 940 814 906 907 q 974 607 974 721 q 917 303 974 444 q 740 75 861 163 q 438 -12 619 -12 q 228 36 317 -12 l 142 -89 l 82 -50 l 171 78 q 76 227 107 136 q 44 433 44 318 q 104 737 44 597 q 284 962 164 876 q 579 1047 404 1047 q 776 1004 694 1047 l 868 1139 l 929 1100 l 835 965 m 682 861 q 561 963 646 963 q 422 889 481 963 q 333 696 364 815 q 303 442 303 576 q 314 263 303 336 l 682 861 m 333 181 q 457 71 371 71 q 649 219 583 71 q 715 599 715 367 q 701 783 715 710 l 333 181 m 699 1365 l 826 1240 q 724 1140 801 1193 q 590 1065 647 1086 l 513 1133 l 699 1365 z "},"Õ":{"ha":992,"x_min":44,"x_max":974,"o":"m 343 1221 q 407 1301 360 1267 q 517 1336 454 1336 q 581 1321 556 1336 q 635 1276 606 1306 q 672 1245 657 1256 q 706 1235 686 1235 q 810 1303 760 1235 l 869 1214 q 802 1128 850 1165 q 699 1090 754 1090 q 630 1105 656 1090 q 575 1147 604 1119 q 535 1181 553 1169 q 492 1192 518 1192 q 442 1177 465 1192 q 394 1138 419 1163 l 343 1221 m 581 1046 q 878 922 782 1046 q 974 606 974 797 q 917 302 974 443 q 740 74 861 161 q 438 -14 619 -14 q 140 108 236 -14 q 44 432 44 229 q 104 735 44 596 q 285 960 164 875 q 581 1046 406 1046 m 561 961 q 422 888 481 961 q 333 694 364 814 q 303 440 303 575 q 335 174 303 278 q 457 69 368 69 q 649 217 583 69 q 715 597 715 365 q 679 868 715 775 q 561 961 643 961 z "},"Œ":{"ha":1564,"x_min":42,"x_max":1550,"o":"m 778 113 q 442 -14 654 -14 q 140 108 239 -14 q 42 432 42 229 q 101 735 42 596 q 282 960 160 875 q 583 1046 404 1046 q 878 899 793 1046 l 894 1032 l 1550 1032 l 1526 782 l 1375 782 l 1353 933 l 1122 951 l 1072 589 l 1383 618 l 1357 458 l 1060 483 l 1007 92 l 1321 115 l 1400 318 l 1544 308 l 1497 0 l 764 0 l 778 113 m 565 961 q 419 888 481 961 q 325 694 357 814 q 293 440 293 575 q 328 174 293 278 q 461 69 364 69 q 663 217 594 69 q 732 597 732 365 q 693 869 732 776 q 565 961 654 961 z "},"P":{"ha":910,"x_min":-8,"x_max":931,"o":"m 329 1032 q 450 1038 372 1032 q 551 1043 519 1043 q 844 970 757 1043 q 931 750 931 897 q 872 533 931 624 q 703 396 813 443 q 446 349 594 349 q 367 351 385 349 l 336 92 l 524 72 l 519 0 l -8 0 l -1 72 l 92 92 l 206 940 l 106 957 l 115 1032 l 329 1032 m 378 443 q 425 438 401 438 q 453 438 449 438 q 622 528 560 439 q 686 763 685 617 q 639 910 686 863 q 507 957 592 957 q 447 951 476 957 l 378 443 z "},"Ṗ":{"ha":911,"x_min":-8,"x_max":931,"o":"m 583 1093 q 503 1128 539 1093 q 467 1207 467 1164 q 508 1301 469 1264 q 608 1339 547 1339 q 695 1307 660 1339 q 731 1233 731 1275 q 692 1133 731 1172 q 583 1093 654 1093 m 329 1032 q 450 1038 372 1032 q 551 1043 519 1043 q 844 970 757 1043 q 931 750 931 897 q 872 533 931 624 q 703 396 813 443 q 446 349 594 349 q 367 351 385 349 l 336 92 l 524 72 l 519 0 l -8 0 l -1 72 l 92 92 l 206 940 l 106 957 l 115 1032 l 329 1032 m 378 443 q 425 438 401 438 q 453 438 449 438 q 622 528 560 439 q 686 763 685 617 q 639 910 686 863 q 507 957 592 957 q 447 951 476 957 l 378 443 z "},"Þ":{"ha":888,"x_min":-6,"x_max":908,"o":"m 429 804 q 571 810 521 810 q 840 745 771 810 q 908 574 908 681 q 803 343 908 438 q 431 249 697 249 q 356 251 383 249 l 335 92 l 453 72 l 447 0 l -6 0 l 1 72 l 96 92 l 208 940 l 110 957 l 119 1032 l 578 1032 l 569 957 l 447 940 l 429 804 m 443 342 q 597 395 536 342 q 657 554 657 449 q 615 679 657 636 q 496 722 572 722 q 417 713 465 722 l 367 342 l 443 342 z "},"Q":{"ha":993,"x_min":42,"x_max":971,"o":"m 949 -222 q 844 -274 913 -250 q 685 -297 776 -297 q 422 -124 422 -297 q 443 -14 422 -75 q 142 103 242 -14 q 42 432 42 221 q 101 734 42 594 q 282 959 161 874 q 578 1044 403 1044 q 876 921 781 1044 q 971 606 971 797 q 927 333 971 461 q 790 115 883 206 q 554 -3 696 25 q 578 -81 554 -54 q 644 -115 603 -107 q 751 -122 686 -122 q 849 -115 790 -122 q 947 -96 908 -108 l 949 -222 m 560 961 q 420 888 479 961 q 331 694 361 814 q 300 439 300 575 q 333 173 300 278 q 456 68 365 68 q 647 217 582 68 q 713 597 713 365 q 676 868 713 775 q 560 961 640 961 z "},"R":{"ha":983,"x_min":-8,"x_max":969,"o":"m 326 1032 q 432 1038 365 1032 q 575 1043 507 1043 q 858 978 776 1043 q 939 783 939 913 q 878 594 939 675 q 710 476 817 514 q 756 394 733 450 q 813 250 779 339 l 825 222 q 869 133 853 161 q 909 88 886 104 q 969 72 932 72 l 963 0 l 682 0 q 657 30 669 0 q 621 128 644 60 l 590 213 q 497 449 519 415 l 374 449 l 329 92 l 454 72 l 450 0 l -8 0 l -3 72 l 93 92 l 204 940 l 107 957 l 115 1032 l 326 1032 m 386 543 q 488 540 410 540 q 640 607 586 540 q 689 799 694 674 q 642 917 686 878 q 519 957 597 957 q 442 951 475 957 l 386 543 z "},"Ŕ":{"ha":983,"x_min":-8,"x_max":969,"o":"m 326 1032 q 432 1038 365 1032 q 575 1043 507 1043 q 858 978 776 1043 q 939 783 939 913 q 878 594 939 675 q 710 476 817 514 q 756 394 733 450 q 813 250 779 339 l 825 222 q 869 133 853 161 q 909 88 886 104 q 969 72 932 72 l 963 0 l 682 0 q 657 30 669 0 q 621 128 644 60 l 590 213 q 497 449 519 415 l 374 449 l 329 92 l 454 72 l 450 0 l -8 0 l -3 72 l 93 92 l 204 940 l 107 957 l 115 1032 l 326 1032 m 386 543 q 488 540 410 540 q 640 607 586 540 q 689 799 694 674 q 642 917 686 878 q 519 957 597 957 q 442 951 475 957 l 386 543 m 721 1365 l 849 1240 q 747 1140 824 1193 q 613 1065 669 1086 l 535 1133 l 721 1365 z "},"Ř":{"ha":983,"x_min":-8,"x_max":969,"o":"m 396 1326 l 479 1365 l 617 1249 l 835 1365 l 908 1328 l 658 1085 l 538 1085 l 396 1326 m 326 1032 q 432 1038 365 1032 q 575 1043 507 1043 q 858 978 776 1043 q 939 783 939 913 q 878 594 939 675 q 710 476 817 514 q 756 394 733 450 q 813 250 779 339 l 825 222 q 869 133 853 161 q 909 88 886 104 q 969 72 932 72 l 963 0 l 682 0 q 657 30 669 0 q 621 128 644 60 l 590 213 q 497 449 519 415 l 374 449 l 329 92 l 454 72 l 450 0 l -8 0 l -3 72 l 93 92 l 204 940 l 107 957 l 115 1032 l 326 1032 m 386 543 q 488 540 410 540 q 640 607 586 540 q 689 799 694 674 q 642 917 686 878 q 519 957 597 957 q 442 951 475 957 l 386 543 z "},"Ŗ":{"ha":983,"x_min":-8,"x_max":969,"o":"m 369 -315 q 401 -282 386 -304 q 415 -228 415 -260 q 403 -181 415 -201 q 371 -158 390 -160 l 378 -96 l 482 -25 q 558 -75 528 -35 q 589 -169 589 -115 q 566 -269 589 -224 q 508 -344 543 -315 q 436 -379 472 -372 l 368 -332 l 369 -315 m 326 1032 q 432 1038 365 1032 q 575 1043 507 1043 q 858 978 776 1043 q 939 783 939 913 q 878 594 939 675 q 710 476 817 514 q 756 394 733 450 q 813 250 779 339 l 825 222 q 869 133 853 161 q 909 88 886 104 q 969 72 932 72 l 963 0 l 682 0 q 657 30 669 0 q 621 128 644 60 l 590 213 q 497 449 519 415 l 374 449 l 329 92 l 454 72 l 450 0 l -8 0 l -3 72 l 93 92 l 204 940 l 107 957 l 115 1032 l 326 1032 m 386 543 q 488 540 410 540 q 640 607 586 540 q 689 799 694 674 q 642 917 686 878 q 519 957 597 957 q 442 951 475 957 l 386 543 z "},"S":{"ha":785,"x_min":10,"x_max":768,"o":"m 582 926 q 537 952 560 944 q 481 960 514 960 q 367 926 408 960 q 326 839 326 893 q 369 719 326 768 q 519 603 413 669 q 674 468 617 542 q 731 300 731 394 q 686 143 731 215 q 552 28 642 71 q 332 -15 463 -15 q 132 7 228 -15 q 10 51 36 29 l 50 267 l 190 267 l 197 114 q 326 72 249 72 q 465 110 422 72 q 508 210 508 147 q 469 319 508 272 q 332 429 431 367 q 171 569 229 494 q 113 742 113 644 q 219 965 113 886 q 497 1044 325 1044 q 768 994 682 1044 l 732 790 l 603 790 l 582 926 z "},"Ś":{"ha":785,"x_min":10,"x_max":768,"o":"m 582 926 q 537 952 560 944 q 481 960 514 960 q 367 926 408 960 q 326 839 326 893 q 369 719 326 768 q 519 603 413 669 q 674 468 617 542 q 731 300 731 394 q 686 143 731 215 q 552 28 642 71 q 332 -15 463 -15 q 132 7 228 -15 q 10 51 36 29 l 50 267 l 190 267 l 197 114 q 326 72 249 72 q 465 110 422 72 q 508 210 508 147 q 469 319 508 272 q 332 429 431 367 q 171 569 229 494 q 113 742 113 644 q 219 965 113 886 q 497 1044 325 1044 q 768 994 682 1044 l 732 790 l 603 790 l 582 926 m 601 1365 l 729 1240 q 627 1140 704 1193 q 493 1065 550 1086 l 415 1133 l 601 1365 z "},"Š":{"ha":785,"x_min":10,"x_max":789,"o":"m 582 926 q 537 952 560 944 q 481 960 514 960 q 367 926 408 960 q 326 839 326 893 q 369 719 326 768 q 519 603 413 669 q 674 468 617 542 q 731 300 731 394 q 686 143 731 215 q 552 28 642 71 q 332 -15 463 -15 q 132 7 228 -15 q 10 51 36 29 l 50 267 l 190 267 l 197 114 q 326 72 249 72 q 465 110 422 72 q 508 210 508 147 q 469 319 508 272 q 332 429 431 367 q 171 569 229 494 q 113 742 113 644 q 219 965 113 886 q 497 1044 325 1044 q 768 994 682 1044 l 732 790 l 603 790 l 582 926 m 276 1326 l 360 1365 l 497 1249 l 715 1365 l 789 1328 l 539 1085 l 418 1085 l 276 1326 z "},"Ş":{"ha":785,"x_min":10,"x_max":768,"o":"m 481 960 q 367 926 408 960 q 326 839 326 893 q 369 719 326 768 q 519 603 413 669 q 674 468 617 542 q 731 300 731 394 q 691 151 731 219 q 572 38 651 82 q 375 -14 492 -7 q 391 -86 385 -44 q 397 -161 397 -128 q 194 -328 397 -328 q 117 -322 164 -328 q 60 -310 71 -317 l 85 -206 q 138 -217 107 -217 q 229 -187 197 -217 q 261 -85 261 -157 q 257 -12 261 -42 q 101 15 172 -4 q 10 51 31 35 l 50 267 l 190 267 l 197 114 q 326 72 249 72 q 465 110 422 72 q 508 210 508 147 q 469 319 508 272 q 332 429 431 367 q 171 569 229 494 q 113 742 113 644 q 219 965 113 886 q 497 1044 325 1044 q 768 994 682 1044 l 732 790 l 603 790 l 582 926 q 537 952 560 944 q 481 960 514 960 z "},"Ŝ":{"ha":785,"x_min":10,"x_max":768,"o":"m 582 926 q 537 952 560 944 q 481 960 514 960 q 367 926 408 960 q 326 839 326 893 q 369 719 326 768 q 519 603 413 669 q 674 468 617 542 q 731 300 731 394 q 686 143 731 215 q 552 28 642 71 q 332 -15 463 -15 q 132 7 228 -15 q 10 51 36 29 l 50 267 l 190 267 l 197 114 q 326 72 249 72 q 465 110 422 72 q 508 210 508 147 q 469 319 508 272 q 332 429 431 367 q 171 569 229 494 q 113 742 113 644 q 219 965 113 886 q 497 1044 325 1044 q 768 994 682 1044 l 732 790 l 603 790 l 582 926 m 235 1124 l 483 1365 l 604 1365 l 746 1124 l 663 1085 l 526 1225 l 307 1085 l 235 1124 z "},"Ș":{"ha":785,"x_min":10,"x_max":768,"o":"m 185 -315 q 216 -282 201 -304 q 231 -228 231 -260 q 218 -181 231 -201 q 186 -158 206 -160 l 193 -96 l 297 -25 q 374 -75 343 -35 q 404 -169 404 -115 q 381 -269 404 -224 q 323 -344 358 -315 q 251 -379 288 -372 l 183 -332 l 185 -315 m 582 926 q 537 952 560 944 q 481 960 514 960 q 367 926 408 960 q 326 839 326 893 q 369 719 326 768 q 519 603 413 669 q 674 468 617 542 q 731 300 731 394 q 686 143 731 215 q 552 28 642 71 q 332 -15 463 -15 q 132 7 228 -15 q 10 51 36 29 l 50 267 l 190 267 l 197 114 q 326 72 249 72 q 465 110 422 72 q 508 210 508 147 q 469 319 508 272 q 332 429 431 367 q 171 569 229 494 q 113 742 113 644 q 219 965 113 886 q 497 1044 325 1044 q 768 994 682 1044 l 732 790 l 603 790 l 582 926 z "},"Ṡ":{"ha":785,"x_min":10,"x_max":768,"o":"m 476 1093 q 396 1128 432 1093 q 360 1207 360 1164 q 401 1301 363 1264 q 501 1339 440 1339 q 588 1307 553 1339 q 624 1233 624 1275 q 585 1133 624 1172 q 476 1093 547 1093 m 582 926 q 537 952 560 944 q 481 960 514 960 q 367 926 408 960 q 326 839 326 893 q 369 719 326 768 q 519 603 413 669 q 674 468 617 542 q 731 300 731 394 q 686 143 731 215 q 552 28 642 71 q 332 -15 463 -15 q 132 7 228 -15 q 10 51 36 29 l 50 267 l 190 267 l 197 114 q 326 72 249 72 q 465 110 422 72 q 508 210 508 147 q 469 319 508 272 q 332 429 431 367 q 171 569 229 494 q 113 742 113 644 q 219 965 113 886 q 497 1044 325 1044 q 768 994 682 1044 l 732 790 l 603 790 l 582 926 z "},"ẞ":{"ha":992,"x_min":-47,"x_max":981,"o":"m 119 629 q 202 842 133 746 q 383 993 271 938 q 633 1049 494 1049 q 838 1019 763 1049 q 943 949 914 989 l 936 894 l 724 625 q 908 522 835 594 q 981 325 981 450 q 932 148 981 222 q 801 35 883 74 q 622 -4 719 -4 q 544 3 581 -4 q 457 22 508 10 q 389 38 415 36 l 424 265 l 533 265 l 544 125 q 633 72 563 72 q 711 125 682 72 q 740 283 740 178 q 542 542 740 422 l 550 590 l 756 861 q 714 935 756 904 q 610 965 672 965 q 442 888 500 965 q 363 657 383 810 l 272 0 l -47 0 l -40 72 l 46 92 l 119 629 z "},"Ə":{"ha":914,"x_min":57,"x_max":896,"o":"m 165 982 q 242 999 192 982 q 369 1031 304 1019 q 542 1043 433 1043 q 726 992 646 1043 q 851 846 807 940 q 896 628 896 751 q 828 299 896 446 q 646 68 760 151 q 399 -15 532 -15 q 148 74 239 -15 q 57 325 57 164 q 67 438 57 379 q 89 528 76 496 l 658 528 l 660 547 q 661 606 661 567 q 613 869 661 772 q 467 965 565 965 q 377 949 411 965 q 326 896 343 932 l 261 756 l 135 756 l 165 982 m 294 435 q 279 360 283 388 q 275 301 275 333 q 313 134 275 193 q 429 75 351 75 q 568 160 508 75 q 650 435 628 244 l 294 435 z "},"T":{"ha":982,"x_min":49,"x_max":1044,"o":"m 115 1032 l 1044 1032 l 986 636 l 864 636 l 851 933 l 689 951 l 575 92 l 767 72 l 760 0 l 157 0 l 167 72 l 336 92 l 450 951 l 288 933 l 175 636 l 49 636 l 115 1032 z "},"Ŧ":{"ha":983,"x_min":49,"x_max":1044,"o":"m 115 1032 l 1044 1032 l 986 636 l 864 636 l 851 933 l 689 951 l 636 563 l 797 563 l 786 461 l 624 461 l 575 92 l 767 72 l 760 0 l 157 0 l 167 72 l 336 92 l 385 461 l 233 461 l 244 563 l 399 563 l 450 951 l 288 933 l 175 636 l 49 636 l 115 1032 z "},"Ť":{"ha":983,"x_min":49,"x_max":1044,"o":"m 392 1326 l 475 1365 l 613 1249 l 831 1365 l 904 1328 l 654 1085 l 533 1085 l 392 1326 m 115 1032 l 1044 1032 l 986 636 l 864 636 l 851 933 l 689 951 l 575 92 l 767 72 l 760 0 l 157 0 l 167 72 l 336 92 l 450 951 l 288 933 l 175 636 l 49 636 l 115 1032 z "},"Ţ":{"ha":982,"x_min":49,"x_max":1044,"o":"m 1044 1032 l 986 636 l 864 636 l 851 933 l 689 951 l 575 92 l 767 72 l 760 0 l 510 0 q 529 -76 521 -29 q 538 -161 538 -124 q 335 -328 538 -328 q 258 -322 304 -328 q 200 -310 211 -317 l 225 -206 q 278 -217 247 -217 q 366 -191 333 -217 q 401 -104 399 -165 q 400 -36 404 -68 q 396 0 396 -4 l 157 0 l 167 72 l 336 92 l 450 951 l 288 933 l 175 636 l 49 636 l 115 1032 l 1044 1032 z "},"Ț":{"ha":983,"x_min":49,"x_max":1044,"o":"m 325 -315 q 356 -282 342 -304 q 371 -228 371 -260 q 358 -181 371 -201 q 326 -158 346 -160 l 333 -96 l 438 -25 q 514 -75 483 -35 q 544 -169 544 -115 q 522 -269 544 -224 q 463 -344 499 -315 q 392 -379 428 -372 l 324 -332 l 325 -315 m 115 1032 l 1044 1032 l 986 636 l 864 636 l 851 933 l 689 951 l 575 92 l 767 72 l 760 0 l 157 0 l 167 72 l 336 92 l 450 951 l 288 933 l 175 636 l 49 636 l 115 1032 z "},"Ṫ":{"ha":983,"x_min":49,"x_max":1044,"o":"m 592 1093 q 511 1128 547 1093 q 475 1207 475 1164 q 517 1301 478 1264 q 617 1339 556 1339 q 703 1307 668 1339 q 739 1233 739 1275 q 701 1133 739 1172 q 592 1093 663 1093 m 115 1032 l 1044 1032 l 986 636 l 864 636 l 851 933 l 689 951 l 575 92 l 767 72 l 760 0 l 157 0 l 167 72 l 336 92 l 450 951 l 288 933 l 175 636 l 49 636 l 115 1032 z "},"U":{"ha":993,"x_min":83,"x_max":1071,"o":"m 907 425 q 772 88 878 190 q 474 -14 667 -14 q 196 69 285 -14 q 107 290 107 153 q 111 403 107 363 l 181 940 l 83 957 l 92 1032 l 561 1032 l 554 958 l 419 940 l 351 422 q 340 286 340 314 q 386 129 340 188 q 517 71 432 71 q 695 158 636 71 q 779 425 754 244 l 849 940 l 749 958 l 756 1032 l 1071 1032 l 1061 958 l 974 940 l 907 425 z "},"Ú":{"ha":993,"x_min":83,"x_max":1071,"o":"m 767 1365 l 894 1240 q 792 1140 869 1193 q 658 1065 715 1086 l 581 1133 l 767 1365 m 907 425 q 772 88 878 190 q 474 -14 667 -14 q 196 69 285 -14 q 107 290 107 153 q 111 403 107 363 l 181 940 l 83 957 l 92 1032 l 561 1032 l 554 958 l 419 940 l 351 422 q 340 286 340 314 q 386 129 340 188 q 517 71 432 71 q 695 158 636 71 q 779 425 754 244 l 849 940 l 749 958 l 756 1032 l 1071 1032 l 1061 958 l 974 940 l 907 425 z "},"Ŭ":{"ha":993,"x_min":83,"x_max":1071,"o":"m 651 1107 q 438 1319 438 1107 q 442 1365 438 1344 l 568 1365 q 572 1303 568 1325 q 595 1268 576 1282 q 654 1254 614 1254 q 765 1365 765 1254 l 888 1365 q 824 1178 888 1249 q 651 1107 761 1107 m 907 425 q 772 88 878 190 q 474 -14 667 -14 q 196 69 285 -14 q 107 290 107 153 q 111 403 107 363 l 181 940 l 83 957 l 92 1032 l 561 1032 l 554 958 l 419 940 l 351 422 q 340 286 340 314 q 386 129 340 188 q 517 71 432 71 q 695 158 636 71 q 779 425 754 244 l 849 940 l 749 958 l 756 1032 l 1071 1032 l 1061 958 l 974 940 l 907 425 z "},"Û":{"ha":993,"x_min":83,"x_max":1071,"o":"m 907 425 q 772 88 878 190 q 474 -14 667 -14 q 196 69 285 -14 q 107 290 107 153 q 111 403 107 363 l 181 940 l 83 957 l 92 1032 l 561 1032 l 554 958 l 419 940 l 351 422 q 340 286 340 314 q 386 129 340 188 q 517 71 432 71 q 695 158 636 71 q 779 425 754 244 l 849 940 l 749 958 l 756 1032 l 1071 1032 l 1061 958 l 974 940 l 907 425 m 399 1124 l 647 1365 l 768 1365 l 910 1124 l 826 1085 l 690 1225 l 471 1085 l 399 1124 z "},"Ü":{"ha":993,"x_min":83,"x_max":1071,"o":"m 490 1126 q 425 1154 451 1126 q 399 1224 399 1182 q 429 1313 399 1281 q 513 1346 460 1346 q 584 1320 558 1346 q 610 1253 610 1294 q 580 1160 610 1193 q 490 1126 550 1126 m 797 1126 q 732 1154 758 1126 q 706 1224 706 1182 q 736 1313 706 1281 q 819 1346 767 1346 q 890 1320 865 1346 q 915 1253 915 1294 q 885 1160 915 1193 q 797 1126 856 1126 m 907 425 q 772 88 878 190 q 474 -14 667 -14 q 196 69 285 -14 q 107 290 107 153 q 111 403 107 363 l 181 940 l 83 957 l 92 1032 l 561 1032 l 554 958 l 419 940 l 351 422 q 340 286 340 314 q 386 129 340 188 q 517 71 432 71 q 695 158 636 71 q 779 425 754 244 l 849 940 l 749 958 l 756 1032 l 1071 1032 l 1061 958 l 974 940 l 907 425 z "},"Ụ":{"ha":993,"x_min":83,"x_max":1071,"o":"m 907 425 q 772 88 878 190 q 474 -14 667 -14 q 196 69 285 -14 q 107 290 107 153 q 111 403 107 363 l 181 940 l 83 957 l 92 1032 l 561 1032 l 554 958 l 419 940 l 351 422 q 340 286 340 314 q 386 129 340 188 q 517 71 432 71 q 695 158 636 71 q 779 425 754 244 l 849 940 l 749 958 l 756 1032 l 1071 1032 l 1061 958 l 974 940 l 907 425 m 322 -206 q 355 -124 322 -156 q 428 -93 388 -93 q 489 -119 467 -93 q 511 -183 511 -146 q 477 -267 511 -237 q 399 -296 443 -296 q 344 -270 367 -296 q 322 -206 322 -244 z "},"Ù":{"ha":993,"x_min":83,"x_max":1071,"o":"m 653 1065 q 519 1138 594 1086 q 418 1240 444 1190 l 544 1365 l 732 1133 l 653 1065 m 907 425 q 772 88 878 190 q 474 -14 667 -14 q 196 69 285 -14 q 107 290 107 153 q 111 403 107 363 l 181 940 l 83 957 l 92 1032 l 561 1032 l 554 958 l 419 940 l 351 422 q 340 286 340 314 q 386 129 340 188 q 517 71 432 71 q 695 158 636 71 q 779 425 754 244 l 849 940 l 749 958 l 756 1032 l 1071 1032 l 1061 958 l 974 940 l 907 425 z "},"Ủ":{"ha":993,"x_min":83,"x_max":1071,"o":"m 907 425 q 772 88 878 190 q 474 -14 667 -14 q 196 69 285 -14 q 107 290 107 153 q 111 403 107 363 l 181 940 l 83 957 l 92 1032 l 561 1032 l 554 958 l 419 940 l 351 422 q 340 286 340 314 q 386 129 340 188 q 517 71 432 71 q 695 158 636 71 q 779 425 754 244 l 849 940 l 749 958 l 756 1032 l 1071 1032 l 1061 958 l 974 940 l 907 425 m 599 1133 q 582 1167 592 1142 q 574 1203 572 1193 q 585 1227 576 1218 q 613 1250 593 1236 q 651 1289 642 1269 l 651 1293 q 653 1308 653 1299 q 604 1343 653 1343 q 565 1340 571 1343 l 586 1486 q 608 1490 590 1488 q 639 1493 625 1493 q 777 1460 726 1493 q 828 1363 828 1428 q 824 1326 828 1346 q 796 1272 818 1294 q 749 1233 774 1250 q 715 1210 725 1217 q 692 1183 699 1197 q 686 1142 685 1168 l 599 1133 z "},"Ư":{"ha":993,"x_min":83,"x_max":1218,"o":"m 1218 1161 l 1214 1131 q 969 906 1186 940 l 907 425 q 772 88 878 190 q 474 -14 667 -14 q 196 69 285 -14 q 107 290 107 153 q 111 403 107 363 l 181 940 l 83 957 l 92 1032 l 561 1032 l 554 958 l 419 940 l 351 422 q 340 286 340 314 q 386 129 340 188 q 517 71 432 71 q 695 158 636 71 q 779 425 754 244 l 849 940 l 749 958 l 756 1032 l 960 1032 q 1003 1056 986 1040 q 1027 1088 1019 1072 q 1050 1138 1035 1103 q 1057 1161 1057 1154 l 1218 1161 z "},"Ứ":{"ha":993,"x_min":83,"x_max":1218,"o":"m 1218 1161 l 1214 1131 q 969 906 1186 940 l 907 425 q 772 88 878 190 q 474 -14 667 -14 q 196 69 285 -14 q 107 290 107 153 q 111 403 107 363 l 181 940 l 83 957 l 92 1032 l 561 1032 l 554 958 l 419 940 l 351 422 q 340 286 340 314 q 386 129 340 188 q 517 71 432 71 q 695 158 636 71 q 779 425 754 244 l 849 940 l 749 958 l 756 1032 l 960 1032 q 1003 1056 986 1040 q 1027 1088 1019 1072 q 1050 1138 1035 1103 q 1057 1161 1057 1154 l 1218 1161 m 765 1365 l 893 1240 q 791 1140 868 1193 q 657 1065 714 1086 l 579 1133 l 765 1365 z "},"Ự":{"ha":993,"x_min":83,"x_max":1218,"o":"m 1218 1161 l 1214 1131 q 969 906 1186 940 l 907 425 q 772 88 878 190 q 474 -14 667 -14 q 196 69 285 -14 q 107 290 107 153 q 111 403 107 363 l 181 940 l 83 957 l 92 1032 l 561 1032 l 554 958 l 419 940 l 351 422 q 340 286 340 314 q 386 129 340 188 q 517 71 432 71 q 695 158 636 71 q 779 425 754 244 l 849 940 l 749 958 l 756 1032 l 960 1032 q 1003 1056 986 1040 q 1027 1088 1019 1072 q 1050 1138 1035 1103 q 1057 1161 1057 1154 l 1218 1161 m 322 -206 q 355 -124 322 -156 q 428 -93 388 -93 q 489 -119 467 -93 q 511 -183 511 -146 q 477 -267 511 -237 q 399 -296 443 -296 q 344 -270 367 -296 q 322 -206 322 -244 z "},"Ừ":{"ha":993,"x_min":83,"x_max":1218,"o":"m 1218 1161 l 1214 1131 q 969 906 1186 940 l 907 425 q 772 88 878 190 q 474 -14 667 -14 q 196 69 285 -14 q 107 290 107 153 q 111 403 107 363 l 181 940 l 83 957 l 92 1032 l 561 1032 l 554 958 l 419 940 l 351 422 q 340 286 340 314 q 386 129 340 188 q 517 71 432 71 q 695 158 636 71 q 779 425 754 244 l 849 940 l 749 958 l 756 1032 l 960 1032 q 1003 1056 986 1040 q 1027 1088 1019 1072 q 1050 1138 1035 1103 q 1057 1161 1057 1154 l 1218 1161 m 651 1065 q 518 1138 593 1086 q 417 1240 443 1190 l 543 1365 l 731 1133 l 651 1065 z "},"Ử":{"ha":993,"x_min":83,"x_max":1218,"o":"m 1218 1161 l 1214 1131 q 969 906 1186 940 l 907 425 q 772 88 878 190 q 474 -14 667 -14 q 196 69 285 -14 q 107 290 107 153 q 111 403 107 363 l 181 940 l 83 957 l 92 1032 l 561 1032 l 554 958 l 419 940 l 351 422 q 340 286 340 314 q 386 129 340 188 q 517 71 432 71 q 695 158 636 71 q 779 425 754 244 l 849 940 l 749 958 l 756 1032 l 960 1032 q 1003 1056 986 1040 q 1027 1088 1019 1072 q 1050 1138 1035 1103 q 1057 1161 1057 1154 l 1218 1161 m 599 1133 q 582 1167 592 1142 q 574 1203 572 1193 q 585 1227 576 1218 q 613 1250 593 1236 q 651 1289 642 1269 l 651 1293 q 653 1308 653 1299 q 604 1343 653 1343 q 565 1340 571 1343 l 586 1486 q 608 1490 590 1488 q 639 1493 625 1493 q 777 1460 726 1493 q 828 1363 828 1428 q 824 1326 828 1346 q 796 1272 818 1294 q 749 1233 774 1250 q 715 1210 725 1217 q 692 1183 699 1197 q 686 1142 685 1168 l 599 1133 z "},"Ữ":{"ha":993,"x_min":83,"x_max":1218,"o":"m 1218 1161 l 1214 1131 q 969 906 1186 940 l 907 425 q 772 88 878 190 q 474 -14 667 -14 q 196 69 285 -14 q 107 290 107 153 q 111 403 107 363 l 181 940 l 83 957 l 92 1032 l 561 1032 l 554 958 l 419 940 l 351 422 q 340 286 340 314 q 386 129 340 188 q 517 71 432 71 q 695 158 636 71 q 779 425 754 244 l 849 940 l 749 958 l 756 1032 l 960 1032 q 1003 1056 986 1040 q 1027 1088 1019 1072 q 1050 1138 1035 1103 q 1057 1161 1057 1154 l 1218 1161 m 407 1221 q 471 1301 424 1267 q 581 1336 518 1336 q 644 1321 619 1336 q 699 1276 669 1306 q 735 1245 721 1256 q 769 1235 750 1235 q 874 1303 824 1235 l 933 1214 q 866 1128 914 1165 q 763 1090 818 1090 q 694 1105 719 1090 q 639 1147 668 1119 q 599 1181 617 1169 q 556 1192 582 1192 q 506 1177 529 1192 q 458 1138 483 1163 l 407 1221 z "},"Ű":{"ha":993,"x_min":83,"x_max":1071,"o":"m 907 425 q 772 88 878 190 q 474 -14 667 -14 q 196 69 285 -14 q 107 290 107 153 q 111 403 107 363 l 181 940 l 83 957 l 92 1032 l 561 1032 l 554 958 l 419 940 l 351 422 q 340 286 340 314 q 386 129 340 188 q 517 71 432 71 q 695 158 636 71 q 779 425 754 244 l 849 940 l 749 958 l 756 1032 l 1071 1032 l 1061 958 l 974 940 l 907 425 m 579 1365 l 690 1276 q 590 1151 664 1218 q 458 1065 517 1085 l 388 1115 l 579 1365 m 911 1365 l 1019 1275 q 914 1147 982 1211 q 788 1065 846 1083 l 721 1115 l 911 1365 z "},"Ū":{"ha":993,"x_min":83,"x_max":1071,"o":"m 471 1300 l 858 1300 l 844 1157 l 457 1157 l 471 1300 m 907 425 q 772 88 878 190 q 474 -14 667 -14 q 196 69 285 -14 q 107 290 107 153 q 111 403 107 363 l 181 940 l 83 957 l 92 1032 l 561 1032 l 554 958 l 419 940 l 351 422 q 340 286 340 314 q 386 129 340 188 q 517 71 432 71 q 695 158 636 71 q 779 425 754 244 l 849 940 l 749 958 l 756 1032 l 1071 1032 l 1061 958 l 974 940 l 907 425 z "},"Ų":{"ha":993,"x_min":83,"x_max":1071,"o":"m 907 425 q 819 148 885 249 q 642 10 754 47 q 574 -70 600 -31 q 547 -139 547 -110 q 560 -181 547 -167 q 593 -194 572 -194 q 643 -182 619 -194 q 696 -144 667 -169 l 721 -221 q 618 -296 679 -267 q 488 -325 557 -325 q 390 -294 424 -325 q 357 -207 357 -262 q 363 -168 357 -190 q 381 -131 369 -146 q 482 -14 418 -68 l 474 -14 q 196 69 285 -14 q 107 290 107 153 q 111 403 107 363 l 181 940 l 83 957 l 92 1032 l 561 1032 l 554 958 l 419 940 l 351 422 q 340 286 340 314 q 386 129 340 188 q 517 71 432 71 q 695 158 636 71 q 779 425 754 244 l 849 940 l 749 958 l 756 1032 l 1071 1032 l 1061 958 l 974 940 l 907 425 z "},"Ů":{"ha":993,"x_min":83,"x_max":1071,"o":"m 907 425 q 772 88 878 190 q 474 -14 667 -14 q 196 69 285 -14 q 107 290 107 153 q 111 403 107 363 l 181 940 l 83 957 l 92 1032 l 561 1032 l 554 958 l 419 940 l 351 422 q 340 286 340 314 q 386 129 340 188 q 517 71 432 71 q 695 158 636 71 q 779 425 754 244 l 849 940 l 749 958 l 756 1032 l 1071 1032 l 1061 958 l 974 940 l 907 425 m 656 1032 q 493 1069 554 1032 q 432 1181 432 1107 q 515 1323 432 1281 q 700 1365 599 1365 q 853 1330 793 1365 q 913 1228 913 1294 q 835 1081 913 1131 q 656 1032 758 1032 m 663 1126 q 782 1210 782 1126 q 751 1256 782 1239 q 683 1274 721 1274 q 600 1256 636 1274 q 564 1196 564 1238 q 595 1146 564 1165 q 663 1126 626 1126 z "},"Ũ":{"ha":993,"x_min":83,"x_max":1071,"o":"m 408 1221 q 472 1301 425 1267 q 582 1336 519 1336 q 646 1321 621 1336 q 700 1276 671 1306 q 737 1245 722 1256 q 771 1235 751 1235 q 875 1303 825 1235 l 935 1214 q 867 1128 915 1165 q 764 1090 819 1090 q 695 1105 721 1090 q 640 1147 669 1119 q 601 1181 618 1169 q 557 1192 583 1192 q 508 1177 531 1192 q 460 1138 485 1163 l 408 1221 m 907 425 q 772 88 878 190 q 474 -14 667 -14 q 196 69 285 -14 q 107 290 107 153 q 111 403 107 363 l 181 940 l 83 957 l 92 1032 l 561 1032 l 554 958 l 419 940 l 351 422 q 340 286 340 314 q 386 129 340 188 q 517 71 432 71 q 695 158 636 71 q 779 425 754 244 l 849 940 l 749 958 l 756 1032 l 1071 1032 l 1061 958 l 974 940 l 907 425 z "},"V":{"ha":844,"x_min":-17,"x_max":996,"o":"m -7 1032 l 443 1032 l 436 957 l 326 940 l 401 346 l 414 204 l 471 346 l 744 940 l 624 957 l 631 1032 l 996 1032 l 983 957 l 879 940 l 435 -7 l 231 -7 l 78 940 l -17 958 l -7 1032 z "},"W":{"ha":1325,"x_min":-15,"x_max":1519,"o":"m -6 1032 l 422 1032 l 417 957 l 324 938 l 388 346 l 403 204 l 457 346 l 664 842 l 654 939 l 546 958 l 553 1032 l 997 1032 l 992 957 l 890 939 l 947 346 l 951 204 l 1010 346 l 1264 939 l 1110 957 l 1117 1032 l 1519 1032 l 1513 958 l 1404 940 l 961 -7 l 751 -7 l 690 626 l 426 -7 l 218 -7 l 78 939 l -15 958 l -6 1032 z "},"Ẃ":{"ha":1325,"x_min":-15,"x_max":1519,"o":"m 897 1365 l 1025 1240 q 923 1140 1000 1193 q 789 1065 846 1086 l 711 1133 l 897 1365 m -6 1032 l 422 1032 l 417 957 l 324 938 l 388 346 l 403 204 l 457 346 l 664 842 l 654 939 l 546 958 l 553 1032 l 997 1032 l 992 957 l 890 939 l 947 346 l 951 204 l 1010 346 l 1264 939 l 1110 957 l 1117 1032 l 1519 1032 l 1513 958 l 1404 940 l 961 -7 l 751 -7 l 690 626 l 426 -7 l 218 -7 l 78 939 l -15 958 l -6 1032 z "},"Ŵ":{"ha":1325,"x_min":-15,"x_max":1519,"o":"m -6 1032 l 422 1032 l 417 957 l 324 938 l 388 346 l 403 204 l 457 346 l 664 842 l 654 939 l 546 958 l 553 1032 l 997 1032 l 992 957 l 890 939 l 947 346 l 951 204 l 1010 346 l 1264 939 l 1110 957 l 1117 1032 l 1519 1032 l 1513 958 l 1404 940 l 961 -7 l 751 -7 l 690 626 l 426 -7 l 218 -7 l 78 939 l -15 958 l -6 1032 m 529 1124 l 778 1365 l 899 1365 l 1040 1124 l 957 1085 l 821 1225 l 601 1085 l 529 1124 z "},"Ẅ":{"ha":1325,"x_min":-15,"x_max":1519,"o":"m 621 1126 q 556 1154 582 1126 q 529 1224 529 1182 q 560 1313 529 1281 q 643 1346 590 1346 q 715 1320 689 1346 q 740 1253 740 1294 q 710 1160 740 1193 q 621 1126 681 1126 m 928 1126 q 863 1154 889 1126 q 836 1224 836 1182 q 867 1313 836 1281 q 950 1346 897 1346 q 1021 1320 996 1346 q 1046 1253 1046 1294 q 1016 1160 1046 1193 q 928 1126 986 1126 m -6 1032 l 422 1032 l 417 957 l 324 938 l 388 346 l 403 204 l 457 346 l 664 842 l 654 939 l 546 958 l 553 1032 l 997 1032 l 992 957 l 890 939 l 947 346 l 951 204 l 1010 346 l 1264 939 l 1110 957 l 1117 1032 l 1519 1032 l 1513 958 l 1404 940 l 961 -7 l 751 -7 l 690 626 l 426 -7 l 218 -7 l 78 939 l -15 958 l -6 1032 z "},"Ẁ":{"ha":1325,"x_min":-15,"x_max":1519,"o":"m 782 1065 q 649 1138 724 1086 q 547 1240 574 1190 l 674 1365 l 861 1133 l 782 1065 m -6 1032 l 422 1032 l 417 957 l 324 938 l 388 346 l 403 204 l 457 346 l 664 842 l 654 939 l 546 958 l 553 1032 l 997 1032 l 992 957 l 890 939 l 947 346 l 951 204 l 1010 346 l 1264 939 l 1110 957 l 1117 1032 l 1519 1032 l 1513 958 l 1404 940 l 961 -7 l 751 -7 l 690 626 l 426 -7 l 218 -7 l 78 939 l -15 958 l -6 1032 z "},"X":{"ha":936,"x_min":-51,"x_max":1017,"o":"m 90 1032 l 539 1032 l 533 958 l 435 940 l 547 640 l 750 940 l 660 957 l 664 1032 l 1017 1032 l 1011 957 l 918 940 l 597 539 l 822 92 l 907 72 l 900 0 l 432 0 l 438 72 l 536 92 l 418 396 l 208 92 l 311 72 l 304 0 l -51 0 l -43 72 l 33 92 l 369 503 l 164 940 l 83 957 l 90 1032 z "},"Y":{"ha":882,"x_min":14,"x_max":1015,"o":"m 22 1032 l 500 1032 l 489 957 l 372 940 l 482 615 l 514 515 l 556 597 l 758 940 l 647 957 l 654 1032 l 1015 1032 l 1006 957 l 917 940 l 568 410 l 526 92 l 693 72 l 686 0 l 124 0 l 132 72 l 289 92 l 328 410 l 103 940 l 14 957 l 22 1032 z "},"Ý":{"ha":882,"x_min":14,"x_max":1015,"o":"m 22 1032 l 500 1032 l 489 957 l 372 940 l 482 615 l 514 515 l 556 597 l 758 940 l 647 957 l 654 1032 l 1015 1032 l 1006 957 l 917 940 l 568 410 l 526 92 l 693 72 l 686 0 l 124 0 l 132 72 l 289 92 l 328 410 l 103 940 l 14 957 l 22 1032 m 689 1365 l 817 1240 q 715 1140 792 1193 q 581 1065 638 1086 l 503 1133 l 689 1365 z "},"Ŷ":{"ha":882,"x_min":14,"x_max":1015,"o":"m 22 1032 l 500 1032 l 489 957 l 372 940 l 482 615 l 514 515 l 556 597 l 758 940 l 647 957 l 654 1032 l 1015 1032 l 1006 957 l 917 940 l 568 410 l 526 92 l 693 72 l 686 0 l 124 0 l 132 72 l 289 92 l 328 410 l 103 940 l 14 957 l 22 1032 m 322 1124 l 571 1365 l 692 1365 l 833 1124 l 750 1085 l 614 1225 l 394 1085 l 322 1124 z "},"Ÿ":{"ha":882,"x_min":14,"x_max":1015,"o":"m 22 1032 l 500 1032 l 489 957 l 372 940 l 482 615 l 514 515 l 556 597 l 758 940 l 647 957 l 654 1032 l 1015 1032 l 1006 957 l 917 940 l 568 410 l 526 92 l 693 72 l 686 0 l 124 0 l 132 72 l 289 92 l 328 410 l 103 940 l 14 957 l 22 1032 m 413 1126 q 347 1154 374 1126 q 321 1224 321 1182 q 351 1313 321 1281 q 435 1346 382 1346 q 506 1320 481 1346 q 532 1253 532 1294 q 502 1160 532 1193 q 413 1126 472 1126 m 719 1126 q 654 1154 681 1126 q 628 1224 628 1182 q 658 1313 628 1281 q 742 1346 689 1346 q 813 1320 788 1346 q 838 1253 838 1294 q 808 1160 838 1193 q 719 1126 778 1126 z "},"Ẏ":{"ha":882,"x_min":14,"x_max":1015,"o":"m 22 1032 l 500 1032 l 489 957 l 372 940 l 482 615 l 514 515 l 556 597 l 758 940 l 647 957 l 654 1032 l 1015 1032 l 1006 957 l 917 940 l 568 410 l 526 92 l 693 72 l 686 0 l 124 0 l 132 72 l 289 92 l 328 410 l 103 940 l 14 957 l 22 1032 m 564 1093 q 483 1128 519 1093 q 447 1207 447 1164 q 489 1301 450 1264 q 589 1339 528 1339 q 676 1307 640 1339 q 711 1233 711 1275 q 673 1133 711 1172 q 564 1093 635 1093 z "},"Ỵ":{"ha":882,"x_min":14,"x_max":1015,"o":"m 22 1032 l 500 1032 l 489 957 l 372 940 l 482 615 l 514 515 l 556 597 l 758 940 l 647 957 l 654 1032 l 1015 1032 l 1006 957 l 917 940 l 568 410 l 526 92 l 693 72 l 686 0 l 124 0 l 132 72 l 289 92 l 328 410 l 103 940 l 14 957 l 22 1032 m 267 -206 q 299 -124 267 -156 q 372 -93 332 -93 q 433 -119 411 -93 q 456 -183 456 -146 q 422 -267 456 -237 q 343 -296 388 -296 q 289 -270 311 -296 q 267 -206 267 -244 z "},"Ỳ":{"ha":882,"x_min":14,"x_max":1015,"o":"m 22 1032 l 500 1032 l 489 957 l 372 940 l 482 615 l 514 515 l 556 597 l 758 940 l 647 957 l 654 1032 l 1015 1032 l 1006 957 l 917 940 l 568 410 l 526 92 l 693 72 l 686 0 l 124 0 l 132 72 l 289 92 l 328 410 l 103 940 l 14 957 l 22 1032 m 575 1065 q 442 1138 517 1086 q 340 1240 367 1190 l 467 1365 l 654 1133 l 575 1065 z "},"Ỷ":{"ha":882,"x_min":14,"x_max":1015,"o":"m 22 1032 l 500 1032 l 489 957 l 372 940 l 482 615 l 514 515 l 556 597 l 758 940 l 647 957 l 654 1032 l 1015 1032 l 1006 957 l 917 940 l 568 410 l 526 92 l 693 72 l 686 0 l 124 0 l 132 72 l 289 92 l 328 410 l 103 940 l 14 957 l 22 1032 m 522 1133 q 506 1167 515 1142 q 497 1203 496 1193 q 508 1227 500 1218 q 536 1250 517 1236 q 575 1289 565 1269 l 575 1293 q 576 1308 576 1299 q 528 1343 576 1343 q 489 1340 494 1343 l 510 1486 q 531 1490 514 1488 q 563 1493 549 1493 q 701 1460 650 1493 q 751 1363 751 1428 q 747 1326 751 1346 q 719 1272 742 1294 q 673 1233 697 1250 q 639 1210 649 1217 q 615 1183 622 1197 q 610 1142 608 1168 l 522 1133 z "},"Ỹ":{"ha":882,"x_min":14,"x_max":1015,"o":"m 22 1032 l 500 1032 l 489 957 l 372 940 l 482 615 l 514 515 l 556 597 l 758 940 l 647 957 l 654 1032 l 1015 1032 l 1006 957 l 917 940 l 568 410 l 526 92 l 693 72 l 686 0 l 124 0 l 132 72 l 289 92 l 328 410 l 103 940 l 14 957 l 22 1032 m 331 1221 q 394 1301 347 1267 q 504 1336 442 1336 q 568 1321 543 1336 q 622 1276 593 1306 q 659 1245 644 1256 q 693 1235 674 1235 q 797 1303 747 1235 l 857 1214 q 790 1128 838 1165 q 686 1090 742 1090 q 617 1105 643 1090 q 563 1147 592 1119 q 523 1181 540 1169 q 479 1192 506 1192 q 430 1177 453 1192 q 382 1138 407 1163 l 331 1221 z "},"Z":{"ha":832,"x_min":-37,"x_max":885,"o":"m 158 1032 l 864 1032 l 885 974 l 308 160 l 232 93 l 561 108 l 694 328 l 813 294 l 744 0 l -14 0 l -37 60 l 547 879 l 631 946 l 331 933 l 233 750 l 115 765 l 158 1032 z "},"Ź":{"ha":832,"x_min":-37,"x_max":885,"o":"m 158 1032 l 864 1032 l 885 974 l 308 160 l 232 93 l 561 108 l 694 328 l 813 294 l 744 0 l -14 0 l -37 60 l 547 879 l 631 946 l 331 933 l 233 750 l 115 765 l 158 1032 m 646 1365 l 774 1240 q 672 1140 749 1193 q 538 1065 594 1086 l 460 1133 l 646 1365 z "},"Ž":{"ha":832,"x_min":-37,"x_max":885,"o":"m 321 1326 l 404 1365 l 542 1249 l 760 1365 l 833 1328 l 583 1085 l 463 1085 l 321 1326 m 158 1032 l 864 1032 l 885 974 l 308 160 l 232 93 l 561 108 l 694 328 l 813 294 l 744 0 l -14 0 l -37 60 l 547 879 l 631 946 l 331 933 l 233 750 l 115 765 l 158 1032 z "},"Ż":{"ha":832,"x_min":-37,"x_max":885,"o":"m 521 1093 q 440 1128 476 1093 q 404 1207 404 1164 q 446 1301 407 1264 q 546 1339 485 1339 q 633 1307 597 1339 q 668 1233 668 1275 q 630 1133 668 1172 q 521 1093 592 1093 m 158 1032 l 864 1032 l 885 974 l 308 160 l 232 93 l 561 108 l 694 328 l 813 294 l 744 0 l -14 0 l -37 60 l 547 879 l 631 946 l 331 933 l 233 750 l 115 765 l 158 1032 z "},"a":{"ha":824,"x_min":40,"x_max":792,"o":"m 682 139 q 710 103 682 103 q 772 133 733 103 l 792 85 q 721 19 771 53 q 601 -14 671 -14 q 521 7 551 -14 q 486 67 490 28 l 486 74 q 398 10 450 35 q 281 -14 346 -14 q 100 67 160 -14 q 40 272 40 147 q 94 526 40 408 q 253 717 147 644 q 506 789 358 789 q 588 780 543 789 q 667 760 633 771 l 771 789 l 683 154 l 682 139 m 536 690 q 490 694 514 694 q 326 569 378 694 q 275 281 275 444 q 302 151 275 197 q 376 104 329 104 q 461 142 419 104 l 536 690 z "},"á":{"ha":824,"x_min":40,"x_max":792,"o":"m 682 139 q 710 103 682 103 q 772 133 733 103 l 792 85 q 721 19 771 53 q 601 -14 671 -14 q 521 7 551 -14 q 486 67 490 28 l 486 74 q 398 10 450 35 q 281 -14 346 -14 q 100 67 160 -14 q 40 272 40 147 q 94 526 40 408 q 253 717 147 644 q 506 789 358 789 q 588 780 543 789 q 667 760 633 771 l 771 789 l 683 154 l 682 139 m 536 690 q 490 694 514 694 q 326 569 378 694 q 275 281 275 444 q 302 151 275 197 q 376 104 329 104 q 461 142 419 104 l 536 690 m 656 1182 l 786 1056 q 722 985 774 1033 q 610 894 671 938 q 511 835 549 850 l 440 890 l 656 1182 z "},"ă":{"ha":824,"x_min":40,"x_max":792,"o":"m 682 139 q 710 103 682 103 q 772 133 733 103 l 792 85 q 721 19 771 53 q 601 -14 671 -14 q 521 7 551 -14 q 486 67 490 28 l 486 74 q 398 10 450 35 q 281 -14 346 -14 q 100 67 160 -14 q 40 272 40 147 q 94 526 40 408 q 253 717 147 644 q 506 789 358 789 q 588 780 543 789 q 667 760 633 771 l 771 789 l 683 154 l 682 139 m 536 690 q 490 694 514 694 q 326 569 378 694 q 275 281 275 444 q 302 151 275 197 q 376 104 329 104 q 461 142 419 104 l 536 690 m 526 882 q 365 944 415 882 q 315 1094 315 1006 q 318 1140 315 1110 l 443 1140 l 443 1110 q 460 1051 443 1072 q 531 1029 478 1029 q 617 1058 597 1029 q 640 1140 638 1088 l 764 1140 l 764 1117 q 739 1005 764 1058 q 660 917 714 951 q 526 882 607 882 z "},"ắ":{"ha":824,"x_min":40,"x_max":792,"o":"m 664 1435 l 772 1331 q 674 1235 756 1301 q 546 1149 593 1168 l 486 1194 l 664 1435 m 526 882 q 365 944 415 882 q 315 1094 315 1006 q 318 1140 315 1110 l 443 1140 l 443 1110 q 460 1051 443 1072 q 531 1029 478 1029 q 617 1058 597 1029 q 640 1140 638 1088 l 764 1140 l 764 1117 q 739 1005 764 1058 q 660 917 714 951 q 526 882 607 882 m 682 139 q 710 103 682 103 q 772 133 733 103 l 792 85 q 721 19 771 53 q 601 -14 671 -14 q 521 7 551 -14 q 486 67 490 28 l 486 74 q 398 10 450 35 q 281 -14 346 -14 q 100 67 160 -14 q 40 272 40 147 q 94 526 40 408 q 253 717 147 644 q 506 789 358 789 q 588 780 543 789 q 667 760 633 771 l 771 789 l 683 154 l 682 139 m 536 690 q 490 694 514 694 q 326 569 378 694 q 275 281 275 444 q 302 151 275 197 q 376 104 329 104 q 461 142 419 104 l 536 690 z "},"ặ":{"ha":824,"x_min":40,"x_max":792,"o":"m 682 139 q 710 103 682 103 q 772 133 733 103 l 792 85 q 721 19 771 53 q 601 -14 671 -14 q 521 7 551 -14 q 486 67 490 28 l 486 74 q 398 10 450 35 q 281 -14 346 -14 q 100 67 160 -14 q 40 272 40 147 q 94 526 40 408 q 253 717 147 644 q 506 789 358 789 q 588 780 543 789 q 667 760 633 771 l 771 789 l 683 154 l 682 139 m 536 690 q 490 694 514 694 q 326 569 378 694 q 275 281 275 444 q 302 151 275 197 q 376 104 329 104 q 461 142 419 104 l 536 690 m 238 -206 q 270 -124 238 -156 q 343 -93 303 -93 q 404 -119 382 -93 q 426 -183 426 -146 q 392 -267 426 -237 q 314 -296 358 -296 q 260 -270 282 -296 q 238 -206 238 -244 m 526 882 q 365 944 415 882 q 315 1094 315 1006 q 318 1140 315 1110 l 443 1140 l 443 1110 q 460 1051 443 1072 q 531 1029 476 1029 q 617 1058 597 1029 q 640 1140 638 1088 l 764 1140 l 764 1117 q 739 1005 764 1058 q 660 917 714 951 q 526 882 607 882 z "},"ằ":{"ha":824,"x_min":40,"x_max":792,"o":"m 549 1164 q 433 1242 508 1181 q 333 1346 357 1303 l 446 1444 l 607 1203 l 549 1164 m 526 882 q 365 944 415 882 q 315 1094 315 1006 q 318 1140 315 1110 l 443 1140 l 443 1110 q 460 1051 443 1072 q 531 1029 478 1029 q 617 1058 597 1029 q 640 1140 638 1088 l 764 1140 l 764 1117 q 739 1005 764 1058 q 660 917 714 951 q 526 882 607 882 m 682 139 q 710 103 682 103 q 772 133 733 103 l 792 85 q 721 19 771 53 q 601 -14 671 -14 q 521 7 551 -14 q 486 67 490 28 l 486 74 q 398 10 450 35 q 281 -14 346 -14 q 100 67 160 -14 q 40 272 40 147 q 94 526 40 408 q 253 717 147 644 q 506 789 358 789 q 588 780 543 789 q 667 760 633 771 l 771 789 l 683 154 l 682 139 m 536 690 q 490 694 514 694 q 326 569 378 694 q 275 281 275 444 q 302 151 275 197 q 376 104 329 104 q 461 142 419 104 l 536 690 z "},"ẳ":{"ha":824,"x_min":40,"x_max":792,"o":"m 522 1164 q 508 1192 517 1171 q 501 1222 500 1214 q 511 1242 504 1235 q 533 1261 518 1249 q 565 1293 558 1278 l 565 1296 q 567 1310 567 1300 q 526 1338 567 1338 q 494 1335 499 1338 l 511 1456 q 530 1459 515 1457 q 556 1461 544 1461 q 669 1434 628 1461 q 711 1353 711 1407 q 708 1324 711 1346 q 683 1278 703 1297 q 644 1246 664 1258 q 618 1228 625 1233 q 599 1206 606 1218 q 594 1171 593 1193 l 522 1164 m 526 882 q 365 944 415 882 q 315 1094 315 1006 q 318 1140 315 1110 l 443 1140 l 443 1110 q 460 1051 443 1072 q 531 1029 478 1029 q 617 1058 597 1029 q 640 1140 638 1088 l 764 1140 l 764 1117 q 739 1005 764 1058 q 660 917 714 951 q 526 882 607 882 m 682 139 q 710 103 682 103 q 772 133 733 103 l 792 85 q 721 19 771 53 q 601 -14 671 -14 q 521 7 551 -14 q 486 67 490 28 l 486 74 q 398 10 450 35 q 281 -14 346 -14 q 100 67 160 -14 q 40 272 40 147 q 94 526 40 408 q 253 717 147 644 q 506 789 358 789 q 588 780 543 789 q 667 760 633 771 l 771 789 l 683 154 l 682 139 m 536 690 q 490 694 514 694 q 326 569 378 694 q 275 281 275 444 q 302 151 275 197 q 376 104 329 104 q 461 142 419 104 l 536 690 z "},"ẵ":{"ha":824,"x_min":40,"x_max":829,"o":"m 682 139 q 710 103 682 103 q 772 133 733 103 l 792 85 q 721 19 771 53 q 601 -14 671 -14 q 521 7 551 -14 q 486 67 490 28 l 486 74 q 398 10 450 35 q 281 -14 346 -14 q 100 67 160 -14 q 40 272 40 147 q 94 526 40 408 q 253 717 147 644 q 506 789 358 789 q 588 780 543 789 q 667 760 633 771 l 771 789 l 683 154 l 682 139 m 536 690 q 490 694 514 694 q 326 569 378 694 q 275 281 275 444 q 302 151 275 197 q 376 104 329 104 q 461 142 419 104 l 536 690 m 526 882 q 365 944 415 882 q 315 1094 315 1006 q 318 1140 315 1110 l 443 1140 l 443 1110 q 460 1051 443 1072 q 531 1029 476 1029 q 617 1058 597 1029 q 640 1140 638 1088 l 764 1140 l 764 1117 q 739 1005 764 1058 q 660 917 714 951 q 526 882 607 882 m 303 1306 q 376 1384 325 1349 q 476 1419 428 1419 q 540 1404 515 1419 q 594 1360 565 1389 q 631 1328 615 1339 q 665 1318 646 1318 q 721 1335 700 1318 q 769 1386 742 1351 l 829 1297 q 760 1213 811 1250 q 658 1175 710 1175 q 590 1190 615 1175 q 535 1232 564 1204 q 494 1265 511 1254 q 454 1276 478 1275 q 402 1261 426 1276 q 354 1221 378 1246 l 303 1306 z "},"ǎ":{"ha":824,"x_min":40,"x_max":799,"o":"m 682 139 q 710 103 682 103 q 772 133 733 103 l 792 85 q 721 19 771 53 q 601 -14 671 -14 q 521 7 551 -14 q 486 67 490 28 l 486 74 q 398 10 450 35 q 281 -14 346 -14 q 100 67 160 -14 q 40 272 40 147 q 94 526 40 408 q 253 717 147 644 q 506 789 358 789 q 588 780 543 789 q 667 760 633 771 l 771 789 l 683 154 l 682 139 m 536 690 q 490 694 514 694 q 326 569 378 694 q 275 281 275 444 q 302 151 275 197 q 376 104 329 104 q 461 142 419 104 l 536 690 m 286 1093 l 371 1132 l 507 990 l 726 1132 l 799 1093 l 549 839 l 429 839 l 286 1093 z "},"â":{"ha":824,"x_min":40,"x_max":792,"o":"m 682 139 q 710 103 682 103 q 772 133 733 103 l 792 85 q 721 19 771 53 q 601 -14 671 -14 q 521 7 551 -14 q 486 67 490 28 l 486 74 q 398 10 450 35 q 281 -14 346 -14 q 100 67 160 -14 q 40 272 40 147 q 94 526 40 408 q 253 717 147 644 q 506 789 358 789 q 588 780 543 789 q 667 760 633 771 l 771 789 l 683 154 l 682 139 m 536 690 q 490 694 514 694 q 326 569 378 694 q 275 281 275 444 q 302 151 275 197 q 376 104 329 104 q 461 142 419 104 l 536 690 m 267 879 l 517 1132 l 638 1132 l 779 879 l 696 839 l 558 971 l 340 840 l 267 879 z "},"ấ":{"ha":824,"x_min":40,"x_max":1028,"o":"m 919 1311 l 1028 1207 q 930 1111 1011 1178 q 801 1025 849 1044 l 742 1071 l 919 1311 m 267 879 l 517 1132 l 638 1132 l 779 879 l 696 839 l 558 971 l 340 840 l 267 879 m 682 139 q 710 103 682 103 q 772 133 733 103 l 792 85 q 721 19 771 53 q 601 -14 671 -14 q 521 7 551 -14 q 486 67 490 28 l 486 74 q 398 10 450 35 q 281 -14 346 -14 q 100 67 160 -14 q 40 272 40 147 q 94 526 40 408 q 253 717 147 644 q 506 789 358 789 q 588 780 543 789 q 667 760 633 771 l 771 789 l 683 154 l 682 139 m 536 690 q 490 694 514 694 q 326 569 378 694 q 275 281 275 444 q 302 151 275 197 q 376 104 329 104 q 461 142 419 104 l 536 690 z "},"ậ":{"ha":824,"x_min":40,"x_max":792,"o":"m 682 139 q 710 103 682 103 q 772 133 733 103 l 792 85 q 721 19 771 53 q 601 -14 671 -14 q 521 7 551 -14 q 486 67 490 28 l 486 74 q 398 10 450 35 q 281 -14 346 -14 q 100 67 160 -14 q 40 272 40 147 q 94 526 40 408 q 253 717 147 644 q 506 789 358 789 q 588 780 543 789 q 667 760 633 771 l 771 789 l 683 154 l 682 139 m 536 690 q 490 694 514 694 q 326 569 378 694 q 275 281 275 444 q 302 151 275 197 q 376 104 329 104 q 461 142 419 104 l 536 690 m 238 -206 q 270 -124 238 -156 q 343 -93 303 -93 q 404 -119 382 -93 q 426 -183 426 -146 q 392 -267 426 -237 q 314 -296 358 -296 q 260 -270 282 -296 q 238 -206 238 -244 m 267 879 l 517 1132 l 638 1132 l 779 879 l 696 839 l 558 971 l 340 840 l 267 879 z "},"ầ":{"ha":824,"x_min":40,"x_max":853,"o":"m 794 1094 q 678 1172 754 1111 q 579 1276 603 1233 l 692 1375 l 853 1133 l 794 1094 m 267 879 l 517 1132 l 638 1132 l 779 879 l 696 839 l 558 971 l 340 840 l 267 879 m 682 139 q 710 103 682 103 q 772 133 733 103 l 792 85 q 721 19 771 53 q 601 -14 671 -14 q 521 7 551 -14 q 486 67 490 28 l 486 74 q 398 10 450 35 q 281 -14 346 -14 q 100 67 160 -14 q 40 272 40 147 q 94 526 40 408 q 253 717 147 644 q 506 789 358 789 q 588 780 543 789 q 667 760 633 771 l 771 789 l 683 154 l 682 139 m 536 690 q 490 694 514 694 q 326 569 378 694 q 275 281 275 444 q 302 151 275 197 q 376 104 329 104 q 461 142 419 104 l 536 690 z "},"ẩ":{"ha":824,"x_min":40,"x_max":972,"o":"m 783 1010 q 769 1038 778 1017 q 763 1068 761 1060 q 772 1088 765 1081 q 794 1107 779 1094 q 826 1139 819 1124 l 826 1142 q 828 1156 828 1146 q 788 1183 828 1183 q 756 1181 760 1183 l 772 1301 q 791 1305 776 1303 q 817 1307 806 1307 q 931 1280 889 1307 q 972 1199 972 1253 q 969 1169 972 1192 q 944 1124 964 1143 q 906 1092 925 1104 q 879 1074 886 1079 q 860 1051 867 1064 q 856 1017 854 1039 l 783 1010 m 267 879 l 517 1132 l 638 1132 l 779 879 l 696 839 l 558 971 l 340 840 l 267 879 m 682 139 q 710 103 682 103 q 772 133 733 103 l 792 85 q 721 19 771 53 q 601 -14 671 -14 q 521 7 551 -14 q 486 67 490 28 l 486 74 q 398 10 450 35 q 281 -14 346 -14 q 100 67 160 -14 q 40 272 40 147 q 94 526 40 408 q 253 717 147 644 q 506 789 358 789 q 588 780 543 789 q 667 760 633 771 l 771 789 l 683 154 l 682 139 m 536 690 q 490 694 514 694 q 326 569 378 694 q 275 281 275 444 q 302 151 275 197 q 376 104 329 104 q 461 142 419 104 l 536 690 z "},"ẫ":{"ha":824,"x_min":40,"x_max":835,"o":"m 357 1288 q 423 1360 376 1328 q 514 1392 469 1392 q 572 1378 549 1392 q 621 1338 596 1364 q 654 1309 640 1318 q 686 1300 668 1300 q 737 1315 717 1300 q 781 1361 757 1331 l 835 1281 q 771 1203 817 1238 q 679 1169 725 1169 q 617 1183 640 1169 q 567 1221 593 1196 q 531 1251 546 1242 q 494 1261 517 1260 q 447 1248 468 1261 q 403 1211 426 1235 l 357 1288 m 267 879 l 517 1132 l 638 1132 l 779 879 l 696 839 l 558 971 l 340 840 l 267 879 m 682 139 q 710 103 682 103 q 772 133 733 103 l 792 85 q 721 19 771 53 q 601 -14 671 -14 q 521 7 551 -14 q 486 67 490 28 l 486 74 q 398 10 450 35 q 281 -14 346 -14 q 100 67 160 -14 q 40 272 40 147 q 94 526 40 408 q 253 717 147 644 q 506 789 358 789 q 588 780 543 789 q 667 760 633 771 l 771 789 l 683 154 l 682 139 m 536 690 q 490 694 514 694 q 326 569 378 694 q 275 281 275 444 q 302 151 275 197 q 376 104 329 104 q 461 142 419 104 l 536 690 z "},"ä":{"ha":824,"x_min":40,"x_max":796,"o":"m 682 139 q 710 103 682 103 q 772 133 733 103 l 792 85 q 721 19 771 53 q 601 -14 671 -14 q 521 7 551 -14 q 486 67 490 28 l 486 74 q 398 10 450 35 q 281 -14 346 -14 q 100 67 160 -14 q 40 272 40 147 q 94 526 40 408 q 253 717 147 644 q 506 789 358 789 q 588 780 543 789 q 667 760 633 771 l 771 789 l 683 154 l 682 139 m 536 690 q 490 694 514 694 q 326 569 378 694 q 275 281 275 444 q 302 151 275 197 q 376 104 329 104 q 461 142 419 104 l 536 690 m 365 907 q 297 941 326 907 q 268 1018 268 975 q 300 1115 268 1076 q 388 1154 332 1154 q 461 1122 433 1154 q 489 1047 489 1089 q 458 946 489 985 q 365 907 428 907 m 672 907 q 604 941 633 907 q 575 1018 575 975 q 606 1115 575 1076 q 694 1154 638 1154 q 767 1122 739 1154 q 796 1047 796 1089 q 765 947 796 986 q 672 907 735 907 z "},"ạ":{"ha":824,"x_min":40,"x_max":792,"o":"m 682 139 q 710 103 682 103 q 772 133 733 103 l 792 85 q 721 19 771 53 q 601 -14 671 -14 q 521 7 551 -14 q 486 67 490 28 l 486 74 q 398 10 450 35 q 281 -14 346 -14 q 100 67 160 -14 q 40 272 40 147 q 94 526 40 408 q 253 717 147 644 q 506 789 358 789 q 588 780 543 789 q 667 760 633 771 l 771 789 l 683 154 l 682 139 m 536 690 q 490 694 514 694 q 326 569 378 694 q 275 281 275 444 q 302 151 275 197 q 376 104 329 104 q 461 142 419 104 l 536 690 m 238 -206 q 270 -124 238 -156 q 343 -93 303 -93 q 404 -119 382 -93 q 426 -183 426 -146 q 392 -267 426 -237 q 314 -296 358 -296 q 260 -270 282 -296 q 238 -206 238 -244 z "},"à":{"ha":824,"x_min":40,"x_max":792,"o":"m 682 139 q 710 103 682 103 q 772 133 733 103 l 792 85 q 721 19 771 53 q 601 -14 671 -14 q 521 7 551 -14 q 486 67 490 28 l 486 74 q 398 10 450 35 q 281 -14 346 -14 q 100 67 160 -14 q 40 272 40 147 q 94 526 40 408 q 253 717 147 644 q 506 789 358 789 q 588 780 543 789 q 667 760 633 771 l 771 789 l 683 154 l 682 139 m 536 690 q 490 694 514 694 q 326 569 378 694 q 275 281 275 444 q 302 151 275 197 q 376 104 329 104 q 461 142 419 104 l 536 690 m 479 842 q 394 894 450 854 q 288 980 339 933 q 218 1063 238 1026 l 356 1182 l 551 889 l 479 842 z "},"ả":{"ha":824,"x_min":40,"x_max":792,"o":"m 682 139 q 710 103 682 103 q 772 133 733 103 l 792 85 q 721 19 771 53 q 601 -14 671 -14 q 521 7 551 -14 q 486 67 490 28 l 486 74 q 398 10 450 35 q 281 -14 346 -14 q 100 67 160 -14 q 40 272 40 147 q 94 526 40 408 q 253 717 147 644 q 506 789 358 789 q 588 780 543 789 q 667 760 633 771 l 771 789 l 683 154 l 682 139 m 536 690 q 490 694 514 694 q 326 569 378 694 q 275 281 275 444 q 302 151 275 197 q 376 104 329 104 q 461 142 419 104 l 536 690 m 478 832 q 461 866 471 840 q 453 901 451 892 q 464 926 456 917 q 492 949 472 935 q 531 988 521 968 l 531 992 q 532 1007 532 997 q 483 1042 532 1042 q 444 1039 450 1042 l 465 1185 q 487 1189 469 1186 q 518 1192 504 1192 q 656 1159 606 1192 q 707 1061 707 1126 q 703 1025 707 1044 q 675 971 697 993 q 628 932 653 949 q 594 908 604 915 q 571 881 578 896 q 565 840 564 867 l 478 832 z "},"ā":{"ha":824,"x_min":40,"x_max":792,"o":"m 682 139 q 710 103 682 103 q 772 133 733 103 l 792 85 q 721 19 771 53 q 601 -14 671 -14 q 521 7 551 -14 q 486 67 490 28 l 486 74 q 398 10 450 35 q 281 -14 346 -14 q 100 67 160 -14 q 40 272 40 147 q 94 526 40 408 q 253 717 147 644 q 506 789 358 789 q 588 780 543 789 q 667 760 633 771 l 771 789 l 683 154 l 682 139 m 536 690 q 490 694 514 694 q 326 569 378 694 q 275 281 275 444 q 302 151 275 197 q 376 104 329 104 q 461 142 419 104 l 536 690 m 322 1094 l 710 1094 l 696 953 l 308 953 l 322 1094 z "},"ą":{"ha":824,"x_min":40,"x_max":792,"o":"m 704 11 q 578 -132 578 -76 q 590 -170 578 -160 q 624 -181 601 -181 q 670 -169 649 -181 q 728 -131 692 -158 l 751 -207 q 647 -283 707 -254 q 518 -311 588 -311 q 421 -280 454 -311 q 388 -193 388 -249 q 396 -152 388 -176 q 418 -110 404 -128 q 535 0 465 -40 q 486 67 490 19 l 486 74 q 398 10 450 35 q 281 -14 346 -14 q 100 67 160 -14 q 40 272 40 147 q 94 526 40 408 q 253 717 147 644 q 506 789 358 789 q 588 780 543 789 q 667 760 633 771 l 771 789 l 683 154 l 682 139 q 710 103 682 103 q 772 133 733 103 l 792 85 q 704 11 757 38 m 536 690 q 490 694 514 694 q 326 569 378 694 q 275 281 275 444 q 302 151 275 197 q 376 104 329 104 q 461 142 419 104 l 536 690 z "},"å":{"ha":824,"x_min":40,"x_max":792,"o":"m 682 139 q 710 103 682 103 q 772 133 733 103 l 792 85 q 721 19 771 53 q 601 -14 671 -14 q 521 7 551 -14 q 486 67 490 28 l 486 74 q 398 10 450 35 q 281 -14 346 -14 q 100 67 160 -14 q 40 272 40 147 q 94 526 40 408 q 253 717 147 644 q 506 789 358 789 q 588 780 543 789 q 667 760 633 771 l 771 789 l 683 154 l 682 139 m 536 690 q 490 694 514 694 q 326 569 378 694 q 275 281 275 444 q 302 151 275 197 q 376 104 329 104 q 461 142 419 104 l 536 690 m 522 850 q 368 893 424 850 q 313 1015 313 936 q 353 1136 313 1089 q 454 1203 394 1183 q 574 1224 514 1224 q 722 1181 665 1224 q 779 1063 779 1138 q 742 946 779 994 q 647 874 706 897 q 522 850 588 850 m 536 947 q 616 969 583 947 q 649 1043 649 990 q 621 1104 649 1079 q 557 1129 593 1129 q 478 1105 513 1129 q 444 1031 444 1081 q 473 972 444 996 q 536 947 501 947 z "},"ǻ":{"ha":824,"x_min":40,"x_max":829,"o":"m 682 139 q 710 103 682 103 q 772 133 733 103 l 792 85 q 721 19 771 53 q 601 -14 671 -14 q 521 7 551 -14 q 486 67 490 28 l 486 74 q 398 10 450 35 q 281 -14 346 -14 q 100 67 160 -14 q 40 272 40 147 q 94 526 40 408 q 253 717 147 644 q 506 789 358 789 q 588 780 543 789 q 667 760 633 771 l 771 789 l 683 154 l 682 139 m 536 690 q 490 694 514 694 q 326 569 378 694 q 275 281 275 444 q 302 151 275 197 q 376 104 329 104 q 461 142 419 104 l 536 690 m 522 850 q 368 893 424 850 q 313 1015 313 936 q 353 1136 313 1089 q 454 1203 394 1183 q 574 1224 514 1224 q 722 1181 665 1224 q 779 1063 779 1138 q 742 946 779 994 q 647 874 706 897 q 522 850 588 850 m 536 947 q 616 969 583 947 q 649 1043 649 990 q 621 1104 649 1079 q 557 1129 593 1129 q 478 1105 513 1129 q 444 1031 444 1081 q 473 972 444 996 q 536 947 501 947 m 699 1622 l 829 1496 q 765 1426 817 1474 q 653 1334 714 1378 q 554 1275 592 1290 l 483 1331 l 699 1622 z "},"ã":{"ha":824,"x_min":40,"x_max":792,"o":"m 682 139 q 710 103 682 103 q 772 133 733 103 l 792 85 q 721 19 771 53 q 601 -14 671 -14 q 521 7 551 -14 q 486 67 490 28 l 486 74 q 398 10 450 35 q 281 -14 346 -14 q 100 67 160 -14 q 40 272 40 147 q 94 526 40 408 q 253 717 147 644 q 506 789 358 789 q 588 780 543 789 q 667 760 633 771 l 771 789 l 683 154 l 682 139 m 536 690 q 490 694 514 694 q 326 569 378 694 q 275 281 275 444 q 302 151 275 197 q 376 104 329 104 q 461 142 419 104 l 536 690 m 263 1025 q 336 1103 285 1068 q 436 1139 388 1139 q 500 1124 475 1139 q 554 1079 525 1108 q 591 1047 576 1057 q 625 1038 606 1038 q 681 1054 660 1038 q 729 1106 701 1071 l 789 1017 q 720 932 771 969 q 618 894 669 894 q 549 909 575 894 q 494 951 524 924 q 454 984 471 974 q 414 996 438 994 q 363 981 386 996 q 314 940 339 965 l 263 1025 z "},"æ":{"ha":1182,"x_min":40,"x_max":1154,"o":"m 746 746 q 931 789 832 789 q 1099 740 1043 789 q 1154 613 1154 692 q 1088 443 1154 511 q 925 343 1022 375 q 733 308 828 311 q 861 108 733 108 q 981 138 933 108 q 1063 214 1028 168 l 1106 144 q 988 36 1071 86 q 788 -14 904 -14 q 609 35 676 -14 q 515 167 542 85 q 398 39 465 92 q 253 -14 331 -14 q 88 64 136 -14 q 40 265 40 142 q 102 520 40 400 q 281 715 164 640 q 553 789 397 789 q 690 768 613 789 l 751 789 l 746 746 m 543 694 q 522 693 529 694 q 387 619 443 683 q 303 464 331 556 q 275 281 275 372 q 289 169 275 217 q 335 122 303 122 q 403 152 368 122 q 472 228 439 182 l 543 694 m 881 694 q 776 603 811 694 q 733 390 742 511 q 823 417 775 393 q 903 488 871 442 q 936 594 936 533 q 881 694 936 694 z "},"ǽ":{"ha":1182,"x_min":40,"x_max":1154,"o":"m 794 1182 l 925 1056 q 861 985 913 1033 q 749 894 810 938 q 650 835 688 850 l 579 890 l 794 1182 m 746 746 q 931 789 832 789 q 1099 740 1043 789 q 1154 613 1154 692 q 1088 443 1154 511 q 925 343 1022 375 q 733 308 828 311 q 861 108 733 108 q 981 138 933 108 q 1063 214 1028 168 l 1106 144 q 988 36 1071 86 q 788 -14 904 -14 q 609 35 676 -14 q 515 167 542 85 q 398 39 465 92 q 253 -14 331 -14 q 88 64 136 -14 q 40 265 40 142 q 102 520 40 400 q 281 715 164 640 q 553 789 397 789 q 690 768 613 789 l 751 789 l 746 746 m 543 694 q 522 693 529 694 q 387 619 443 683 q 303 464 331 556 q 275 281 275 372 q 289 169 275 217 q 335 122 303 122 q 403 152 368 122 q 472 228 439 182 l 543 694 m 881 694 q 776 603 811 694 q 733 390 742 511 q 823 417 775 393 q 903 488 871 442 q 936 594 936 533 q 881 694 936 694 z "},"b":{"ha":815,"x_min":44,"x_max":771,"o":"m 347 718 q 538 789 431 789 q 713 713 654 789 q 771 494 771 638 q 715 235 771 351 q 553 53 658 119 q 308 -14 447 -14 q 144 15 235 -14 l 44 -14 l 172 1007 l 101 1036 l 115 1093 l 361 1119 l 397 1100 l 347 718 m 265 88 q 326 81 288 81 q 488 201 435 81 q 540 494 540 322 q 515 619 540 569 q 442 669 490 669 q 333 610 383 669 l 265 88 z "},"ḃ":{"ha":815,"x_min":44,"x_max":771,"o":"m 347 718 q 538 789 431 789 q 713 713 654 789 q 771 494 771 638 q 715 235 771 351 q 553 53 658 119 q 308 -14 447 -14 q 144 15 235 -14 l 44 -14 l 172 1007 l 101 1036 l 115 1093 l 361 1119 l 397 1100 l 347 718 m 265 88 q 326 81 288 81 q 488 201 435 81 q 540 494 540 322 q 515 619 540 569 q 442 669 490 669 q 333 610 383 669 l 265 88 m 589 907 q 513 942 546 907 q 479 1018 479 976 q 516 1115 479 1076 q 614 1154 553 1154 q 697 1122 665 1154 q 729 1047 729 1089 q 694 947 729 986 q 589 907 660 907 z "},"c":{"ha":651,"x_min":40,"x_max":651,"o":"m 546 544 q 478 643 508 604 q 429 682 449 682 q 356 637 393 682 q 295 511 319 592 q 271 332 271 431 q 299 165 271 215 q 390 115 328 115 q 492 138 451 115 q 563 201 532 161 l 606 132 q 492 31 571 76 q 303 -14 413 -14 q 110 71 179 -14 q 40 315 40 156 q 90 542 40 433 q 238 720 139 651 q 478 789 338 789 q 572 782 524 789 q 651 763 619 775 l 596 544 l 546 544 z "},"ć":{"ha":651,"x_min":40,"x_max":729,"o":"m 599 1182 l 729 1056 q 665 985 717 1033 q 553 894 614 938 q 454 835 492 850 l 383 890 l 599 1182 m 546 544 q 478 643 508 604 q 429 682 449 682 q 356 637 393 682 q 295 511 319 592 q 271 332 271 431 q 299 165 271 215 q 390 115 328 115 q 492 138 451 115 q 563 201 532 161 l 606 132 q 492 31 571 76 q 303 -14 413 -14 q 110 71 179 -14 q 40 315 40 156 q 90 542 40 433 q 238 720 139 651 q 478 789 338 789 q 572 782 524 789 q 651 763 619 775 l 596 544 l 546 544 z "},"č":{"ha":651,"x_min":40,"x_max":742,"o":"m 229 1093 l 314 1132 l 450 990 l 669 1132 l 742 1093 l 492 839 l 372 839 l 229 1093 m 546 544 q 478 643 508 604 q 429 682 449 682 q 356 637 393 682 q 295 511 319 592 q 271 332 271 431 q 299 165 271 215 q 390 115 328 115 q 492 138 451 115 q 563 201 532 161 l 606 132 q 492 31 571 76 q 303 -14 413 -14 q 110 71 179 -14 q 40 315 40 156 q 90 542 40 433 q 238 720 139 651 q 478 789 338 789 q 572 782 524 789 q 651 763 619 775 l 596 544 l 546 544 z "},"ç":{"ha":651,"x_min":40,"x_max":651,"o":"m 390 115 q 492 138 451 115 q 563 201 532 161 l 606 132 q 524 51 579 89 q 390 -4 468 13 q 409 -81 401 -35 q 417 -161 417 -126 q 214 -328 417 -328 q 137 -322 183 -328 q 79 -310 90 -317 l 104 -206 q 157 -217 126 -217 q 249 -187 217 -217 q 281 -85 281 -157 q 276 -12 281 -44 q 103 80 165 -4 q 40 315 40 164 q 90 542 40 433 q 238 720 139 651 q 478 789 338 789 q 572 782 524 789 q 651 763 619 775 l 596 544 l 546 544 q 478 643 508 604 q 429 682 449 682 q 356 637 393 682 q 295 511 319 592 q 271 332 271 431 q 299 165 271 215 q 390 115 328 115 z "},"ĉ":{"ha":651,"x_min":40,"x_max":722,"o":"m 210 879 l 460 1132 l 581 1132 l 722 879 l 639 839 l 501 971 l 283 840 l 210 879 m 546 544 q 478 643 508 604 q 429 682 449 682 q 356 637 393 682 q 295 511 319 592 q 271 332 271 431 q 299 165 271 215 q 390 115 328 115 q 492 138 451 115 q 563 201 532 161 l 606 132 q 492 31 571 76 q 303 -14 413 -14 q 110 71 179 -14 q 40 315 40 156 q 90 542 40 433 q 238 720 139 651 q 478 789 338 789 q 572 782 524 789 q 651 763 619 775 l 596 544 l 546 544 z "},"ċ":{"ha":651,"x_min":40,"x_max":651,"o":"m 546 544 q 478 643 508 604 q 429 682 449 682 q 356 637 393 682 q 295 511 319 592 q 271 332 271 431 q 299 165 271 215 q 390 115 328 115 q 492 138 451 115 q 563 201 532 161 l 606 132 q 492 31 571 76 q 303 -14 413 -14 q 110 71 179 -14 q 40 315 40 156 q 90 542 40 433 q 238 720 139 651 q 478 789 338 789 q 572 782 524 789 q 651 763 619 775 l 596 544 l 546 544 m 463 907 q 386 942 419 907 q 353 1018 353 976 q 390 1115 353 1076 q 488 1154 426 1154 q 571 1122 539 1154 q 603 1047 603 1089 q 568 947 603 986 q 463 907 533 907 z "},"d":{"ha":851,"x_min":40,"x_max":839,"o":"m 703 156 q 701 136 701 149 q 726 103 701 103 q 789 133 749 103 l 808 85 q 733 17 776 49 q 618 -14 689 -14 q 535 12 563 -14 q 500 88 507 38 l 499 100 q 408 19 465 53 q 274 -14 351 -14 q 97 66 154 -14 q 40 272 40 146 q 92 527 40 410 q 247 717 143 644 q 500 789 350 789 q 569 782 531 789 l 601 1006 l 496 1035 l 508 1090 l 801 1119 l 839 1100 l 703 156 m 554 683 q 483 694 521 694 q 322 570 371 694 q 272 281 272 446 q 298 151 272 197 q 369 104 324 104 q 430 124 401 104 q 479 174 458 143 l 554 683 z "},"ð":{"ha":810,"x_min":40,"x_max":772,"o":"m 389 1019 q 249 1108 307 1092 l 286 1217 q 382 1179 329 1204 q 485 1121 435 1154 q 547 1195 519 1161 q 582 1240 574 1229 l 660 1172 l 561 1058 q 719 822 665 958 q 772 544 772 686 q 720 256 772 382 q 569 58 668 129 q 336 -14 471 -14 q 174 34 240 -14 q 74 158 107 82 q 40 314 40 233 q 89 547 40 447 q 224 700 138 647 q 418 753 310 753 q 493 749 467 753 q 540 733 519 744 q 521 834 542 775 q 458 949 500 893 l 368 844 l 289 911 l 389 1019 m 425 661 q 338 600 374 661 q 286 449 303 539 q 269 271 269 358 q 290 127 269 182 q 356 72 310 72 q 469 159 421 72 q 529 374 517 246 q 543 499 543 485 q 517 609 543 557 q 425 661 492 661 z "},"ď":{"ha":1011,"x_min":40,"x_max":1083,"o":"m 703 156 q 701 136 701 149 q 726 103 701 103 q 789 133 749 103 l 808 85 q 733 17 776 49 q 618 -14 689 -14 q 535 12 563 -14 q 500 88 507 38 l 499 100 q 408 19 465 53 q 274 -14 351 -14 q 97 66 154 -14 q 40 272 40 146 q 92 527 40 410 q 247 717 143 644 q 500 789 350 789 q 569 782 531 789 l 601 1006 l 496 1035 l 508 1090 l 801 1119 l 839 1100 l 703 156 m 554 683 q 483 694 521 694 q 322 570 371 694 q 272 281 272 446 q 298 151 272 197 q 369 104 324 104 q 430 124 401 104 q 479 174 458 143 l 554 683 m 893 718 q 913 808 904 751 q 921 922 921 865 q 904 1058 921 1035 l 918 1088 l 1058 1118 q 1077 1069 1071 1106 q 1083 990 1083 1033 q 1057 818 1083 906 q 985 681 1031 731 l 897 701 l 893 718 z "},"đ":{"ha":851,"x_min":40,"x_max":901,"o":"m 703 156 q 701 136 701 149 q 726 103 701 103 q 789 133 749 103 l 808 85 q 733 17 776 49 q 618 -14 689 -14 q 535 12 563 -14 q 500 88 507 38 l 499 100 q 408 19 465 53 q 274 -14 351 -14 q 97 66 154 -14 q 40 272 40 146 q 92 527 40 410 q 247 717 143 644 q 500 789 350 789 q 569 782 531 789 l 581 856 l 388 856 l 399 944 l 593 944 l 601 1006 l 496 1035 l 508 1090 l 801 1119 l 839 1100 l 817 944 l 901 944 l 892 856 l 804 856 l 703 156 m 554 683 q 483 694 521 694 q 322 570 371 694 q 272 281 272 446 q 298 151 272 197 q 369 104 324 104 q 430 124 401 104 q 479 174 458 143 l 554 683 z "},"ḋ":{"ha":851,"x_min":40,"x_max":839,"o":"m 703 156 q 701 136 701 149 q 726 103 701 103 q 789 133 749 103 l 808 85 q 733 17 776 49 q 618 -14 689 -14 q 535 12 563 -14 q 500 88 507 38 l 499 100 q 408 19 465 53 q 274 -14 351 -14 q 97 66 154 -14 q 40 272 40 146 q 92 527 40 410 q 247 717 143 644 q 500 789 350 789 q 569 782 531 789 l 601 1006 l 496 1035 l 508 1090 l 801 1119 l 839 1100 l 703 156 m 554 683 q 483 694 521 694 q 322 570 371 694 q 272 281 272 446 q 298 151 272 197 q 369 104 324 104 q 430 124 401 104 q 479 174 458 143 l 554 683 m 301 907 q 225 942 258 907 q 192 1018 192 976 q 228 1115 192 1076 q 326 1154 265 1154 q 410 1122 378 1154 q 442 1047 442 1089 q 407 947 442 986 q 301 907 372 907 z "},"ǳ":{"ha":1538,"x_min":40,"x_max":1569,"o":"m 703 156 q 701 136 701 149 q 726 103 701 103 q 789 133 749 103 l 808 85 q 733 17 776 49 q 618 -14 689 -14 q 535 12 563 -14 q 500 88 507 38 l 499 100 q 408 19 465 53 q 274 -14 351 -14 q 97 66 154 -14 q 40 272 40 146 q 92 527 40 410 q 247 717 143 644 q 500 789 350 789 q 569 782 531 789 l 601 1006 l 496 1035 l 508 1090 l 801 1119 l 839 1100 l 703 156 m 554 683 q 483 694 521 694 q 322 570 371 694 q 272 281 272 446 q 298 151 272 197 q 369 104 324 104 q 430 124 401 104 q 479 174 458 143 l 554 683 m 1121 600 q 1037 571 1068 600 q 1003 497 1006 542 l 943 497 q 936 592 936 532 q 949 710 936 658 q 989 774 961 763 q 1057 789 1015 789 q 1180 783 1104 789 q 1276 776 1256 778 q 1456 765 1418 765 q 1533 789 1508 765 l 1569 747 l 1129 203 l 1081 174 l 1303 174 q 1390 205 1358 174 q 1426 285 1422 236 l 1485 285 q 1489 197 1489 256 q 1478 72 1489 128 q 1439 -1 1467 17 q 1368 -15 1421 -15 q 1132 -3 1288 -15 q 1032 3 1096 -1 q 940 7 968 7 q 901 1 922 7 q 868 -15 879 -4 l 825 26 l 1264 564 l 1326 599 l 1121 600 z "},"ǆ":{"ha":1538,"x_min":40,"x_max":1574,"o":"m 703 156 q 701 136 701 149 q 726 103 701 103 q 789 133 749 103 l 808 85 q 733 17 776 49 q 618 -14 689 -14 q 535 12 563 -14 q 500 88 507 38 l 499 100 q 408 19 465 53 q 274 -14 351 -14 q 97 66 154 -14 q 40 272 40 146 q 92 527 40 410 q 247 717 143 644 q 500 789 350 789 q 569 782 531 789 l 601 1006 l 496 1035 l 508 1090 l 801 1119 l 839 1100 l 703 156 m 554 683 q 483 694 521 694 q 322 570 371 694 q 272 281 272 446 q 298 151 272 197 q 369 104 324 104 q 430 124 401 104 q 479 174 458 143 l 554 683 m 1121 600 q 1037 571 1068 600 q 1003 497 1006 542 l 943 497 q 936 592 936 532 q 949 710 936 658 q 989 774 961 763 q 1057 789 1015 789 q 1180 783 1104 789 q 1276 776 1256 778 q 1456 765 1418 765 q 1533 789 1508 765 l 1569 747 l 1129 203 l 1081 174 l 1303 174 q 1390 205 1358 174 q 1426 285 1422 236 l 1485 285 q 1489 197 1489 256 q 1478 72 1489 128 q 1439 -1 1467 17 q 1368 -15 1421 -15 q 1132 -3 1288 -15 q 1032 3 1096 -1 q 940 7 968 7 q 901 1 922 7 q 868 -15 879 -4 l 825 26 l 1264 564 l 1326 599 l 1121 600 m 1061 1093 l 1146 1132 l 1282 990 l 1501 1132 l 1574 1093 l 1324 839 l 1204 839 l 1061 1093 z "},"e":{"ha":732,"x_min":42,"x_max":704,"o":"m 657 144 q 537 33 619 85 q 339 -19 454 -19 q 168 25 235 -19 q 72 140 101 69 q 42 294 42 211 q 99 549 42 436 q 258 726 157 663 q 482 790 358 790 q 650 740 596 790 q 704 611 704 690 q 638 442 704 510 q 476 343 572 375 q 285 308 379 311 q 318 153 285 206 q 411 101 351 101 q 530 133 483 101 q 614 214 576 165 l 657 144 m 432 694 q 326 602 361 694 q 285 390 292 510 q 374 417 326 393 q 455 488 422 442 q 488 594 488 533 q 474 669 488 643 q 432 694 460 694 z "},"é":{"ha":732,"x_min":42,"x_max":746,"o":"m 615 1182 l 746 1056 q 682 985 733 1033 q 569 894 631 938 q 471 835 508 850 l 400 890 l 615 1182 m 657 144 q 537 33 619 85 q 339 -19 454 -19 q 168 25 235 -19 q 72 140 101 69 q 42 294 42 211 q 99 549 42 436 q 258 726 157 663 q 482 790 358 790 q 650 740 596 790 q 704 611 704 690 q 638 442 704 510 q 476 343 572 375 q 285 308 379 311 q 318 153 285 206 q 411 101 351 101 q 530 133 483 101 q 614 214 576 165 l 657 144 m 432 694 q 326 602 361 694 q 285 390 292 510 q 374 417 326 393 q 455 488 422 442 q 488 594 488 533 q 474 669 488 643 q 432 694 460 694 z "},"ĕ":{"ha":732,"x_min":42,"x_max":724,"o":"m 657 144 q 537 33 619 85 q 339 -19 454 -19 q 168 25 235 -19 q 72 140 101 69 q 42 294 42 211 q 99 549 42 436 q 258 726 157 663 q 482 790 358 790 q 650 740 596 790 q 704 611 704 690 q 638 442 704 510 q 476 343 572 375 q 285 308 379 311 q 318 153 285 206 q 411 101 351 101 q 530 133 483 101 q 614 214 576 165 l 657 144 m 432 694 q 326 602 361 694 q 285 390 292 510 q 374 417 326 393 q 455 488 422 442 q 488 594 488 533 q 474 669 488 643 q 432 694 460 694 m 486 882 q 325 944 375 882 q 275 1094 275 1006 q 278 1140 275 1110 l 403 1140 l 403 1110 q 420 1051 403 1072 q 490 1029 438 1029 q 577 1058 557 1029 q 600 1140 597 1088 l 724 1140 l 724 1117 q 699 1005 724 1058 q 620 917 674 951 q 486 882 567 882 z "},"ě":{"ha":732,"x_min":42,"x_max":758,"o":"m 246 1093 l 331 1132 l 467 990 l 686 1132 l 758 1093 l 508 839 l 389 839 l 246 1093 m 657 144 q 537 33 619 85 q 339 -19 454 -19 q 168 25 235 -19 q 72 140 101 69 q 42 294 42 211 q 99 549 42 436 q 258 726 157 663 q 482 790 358 790 q 650 740 596 790 q 704 611 704 690 q 638 442 704 510 q 476 343 572 375 q 285 308 379 311 q 318 153 285 206 q 411 101 351 101 q 530 133 483 101 q 614 214 576 165 l 657 144 m 432 694 q 326 602 361 694 q 285 390 292 510 q 374 417 326 393 q 455 488 422 442 q 488 594 488 533 q 474 669 488 643 q 432 694 460 694 z "},"ê":{"ha":732,"x_min":42,"x_max":740,"o":"m 228 879 l 478 1132 l 599 1132 l 740 879 l 657 839 l 519 971 l 301 840 l 228 879 m 657 144 q 537 33 619 85 q 339 -19 454 -19 q 168 25 235 -19 q 72 140 101 69 q 42 294 42 211 q 99 549 42 436 q 258 726 157 663 q 482 790 358 790 q 650 740 596 790 q 704 611 704 690 q 638 442 704 510 q 476 343 572 375 q 285 308 379 311 q 318 153 285 206 q 411 101 351 101 q 530 133 483 101 q 614 214 576 165 l 657 144 m 432 694 q 326 602 361 694 q 285 390 292 510 q 374 417 326 393 q 455 488 422 442 q 488 594 488 533 q 474 669 488 643 q 432 694 460 694 z "},"ế":{"ha":732,"x_min":42,"x_max":988,"o":"m 879 1311 l 988 1207 q 890 1111 971 1178 q 761 1025 808 1044 l 701 1071 l 879 1311 m 226 879 l 476 1132 l 597 1132 l 739 879 l 656 839 l 518 971 l 300 840 l 226 879 m 657 144 q 537 33 619 85 q 339 -19 454 -19 q 168 25 235 -19 q 72 140 101 69 q 42 294 42 211 q 99 549 42 436 q 258 726 157 663 q 482 790 358 790 q 650 740 596 790 q 704 611 704 690 q 638 442 704 510 q 476 343 572 375 q 285 308 379 311 q 318 153 285 206 q 411 101 351 101 q 530 133 483 101 q 614 214 576 165 l 657 144 m 432 694 q 326 602 361 694 q 285 390 292 510 q 374 417 326 393 q 455 488 422 442 q 488 594 488 533 q 474 669 488 643 q 432 694 460 694 z "},"ệ":{"ha":732,"x_min":42,"x_max":739,"o":"m 657 144 q 537 33 619 85 q 339 -19 454 -19 q 168 25 235 -19 q 72 140 101 69 q 42 294 42 211 q 99 549 42 436 q 258 726 157 663 q 482 790 358 790 q 650 740 596 790 q 704 611 704 690 q 638 442 704 510 q 476 343 572 375 q 285 308 379 311 q 318 153 285 206 q 411 101 351 101 q 530 133 483 101 q 614 214 576 165 l 657 144 m 432 694 q 326 602 361 694 q 285 390 292 510 q 374 417 326 393 q 455 488 422 442 q 488 594 488 533 q 474 669 488 643 q 432 694 460 694 m 192 -206 q 224 -124 192 -156 q 297 -93 257 -93 q 358 -119 336 -93 q 381 -183 381 -146 q 347 -267 381 -237 q 268 -296 313 -296 q 214 -270 236 -296 q 192 -206 192 -244 m 226 879 l 476 1132 l 597 1132 l 739 879 l 656 839 l 518 971 l 300 840 l 226 879 z "},"ề":{"ha":732,"x_min":42,"x_max":813,"o":"m 754 1094 q 638 1172 714 1111 q 539 1276 563 1233 l 651 1375 l 813 1133 l 754 1094 m 226 879 l 476 1132 l 597 1132 l 739 879 l 656 839 l 518 971 l 300 840 l 226 879 m 657 144 q 537 33 619 85 q 339 -19 454 -19 q 168 25 235 -19 q 72 140 101 69 q 42 294 42 211 q 99 549 42 436 q 258 726 157 663 q 482 790 358 790 q 650 740 596 790 q 704 611 704 690 q 638 442 704 510 q 476 343 572 375 q 285 308 379 311 q 318 153 285 206 q 411 101 351 101 q 530 133 483 101 q 614 214 576 165 l 657 144 m 432 694 q 326 602 361 694 q 285 390 292 510 q 374 417 326 393 q 455 488 422 442 q 488 594 488 533 q 474 669 488 643 q 432 694 460 694 z "},"ể":{"ha":732,"x_min":42,"x_max":932,"o":"m 743 1010 q 729 1038 738 1017 q 722 1068 721 1060 q 732 1088 725 1081 q 754 1107 739 1094 q 786 1139 779 1124 l 786 1142 q 788 1156 788 1146 q 747 1183 788 1183 q 715 1181 719 1183 l 732 1301 q 751 1305 736 1303 q 776 1307 765 1307 q 890 1280 849 1307 q 932 1199 932 1253 q 929 1169 932 1192 q 904 1124 924 1143 q 865 1092 885 1104 q 839 1074 846 1079 q 820 1051 826 1064 q 815 1017 814 1039 l 743 1010 m 226 879 l 476 1132 l 597 1132 l 739 879 l 656 839 l 518 971 l 300 840 l 226 879 m 657 144 q 537 33 619 85 q 339 -19 454 -19 q 168 25 235 -19 q 72 140 101 69 q 42 294 42 211 q 99 549 42 436 q 258 726 157 663 q 482 790 358 790 q 650 740 596 790 q 704 611 704 690 q 638 442 704 510 q 476 343 572 375 q 285 308 379 311 q 318 153 285 206 q 411 101 351 101 q 530 133 483 101 q 614 214 576 165 l 657 144 m 432 694 q 326 602 361 694 q 285 390 292 510 q 374 417 326 393 q 455 488 422 442 q 488 594 488 533 q 474 669 488 643 q 432 694 460 694 z "},"ễ":{"ha":732,"x_min":42,"x_max":794,"o":"m 317 1288 q 383 1360 336 1328 q 474 1392 429 1392 q 532 1378 508 1392 q 581 1338 556 1364 q 614 1309 600 1318 q 646 1300 628 1300 q 697 1315 676 1300 q 740 1361 717 1331 l 794 1281 q 731 1203 776 1238 q 639 1169 685 1169 q 576 1183 600 1169 q 526 1221 553 1196 q 491 1251 506 1242 q 454 1261 476 1260 q 407 1248 428 1261 q 363 1211 386 1235 l 317 1288 m 226 879 l 476 1132 l 597 1132 l 739 879 l 656 839 l 518 971 l 300 840 l 226 879 m 657 144 q 537 33 619 85 q 339 -19 454 -19 q 168 25 235 -19 q 72 140 101 69 q 42 294 42 211 q 99 549 42 436 q 258 726 157 663 q 482 790 358 790 q 650 740 596 790 q 704 611 704 690 q 638 442 704 510 q 476 343 572 375 q 285 308 379 311 q 318 153 285 206 q 411 101 351 101 q 530 133 483 101 q 614 214 576 165 l 657 144 m 432 694 q 326 602 361 694 q 285 390 292 510 q 374 417 326 393 q 455 488 422 442 q 488 594 488 533 q 474 669 488 643 q 432 694 460 694 z "},"ë":{"ha":732,"x_min":42,"x_max":756,"o":"m 325 907 q 257 941 286 907 q 228 1018 228 975 q 260 1115 228 1076 q 347 1154 292 1154 q 421 1122 393 1154 q 449 1047 449 1089 q 418 946 449 985 q 325 907 388 907 m 632 907 q 564 941 593 907 q 535 1018 535 975 q 566 1115 535 1076 q 654 1154 597 1154 q 727 1122 699 1154 q 756 1047 756 1089 q 725 947 756 986 q 632 907 694 907 m 657 144 q 537 33 619 85 q 339 -19 454 -19 q 168 25 235 -19 q 72 140 101 69 q 42 294 42 211 q 99 549 42 436 q 258 726 157 663 q 482 790 358 790 q 650 740 596 790 q 704 611 704 690 q 638 442 704 510 q 476 343 572 375 q 285 308 379 311 q 318 153 285 206 q 411 101 351 101 q 530 133 483 101 q 614 214 576 165 l 657 144 m 432 694 q 326 602 361 694 q 285 390 292 510 q 374 417 326 393 q 455 488 422 442 q 488 594 488 533 q 474 669 488 643 q 432 694 460 694 z "},"ė":{"ha":732,"x_min":42,"x_max":704,"o":"m 657 144 q 537 33 619 85 q 339 -19 454 -19 q 168 25 235 -19 q 72 140 101 69 q 42 294 42 211 q 99 549 42 436 q 258 726 157 663 q 482 790 358 790 q 650 740 596 790 q 704 611 704 690 q 638 442 704 510 q 476 343 572 375 q 285 308 379 311 q 318 153 285 206 q 411 101 351 101 q 530 133 483 101 q 614 214 576 165 l 657 144 m 432 694 q 326 602 361 694 q 285 390 292 510 q 374 417 326 393 q 455 488 422 442 q 488 594 488 533 q 474 669 488 643 q 432 694 460 694 m 479 907 q 403 942 436 907 q 369 1018 369 976 q 406 1115 369 1076 q 504 1154 443 1154 q 588 1122 556 1154 q 619 1047 619 1089 q 585 947 619 986 q 479 907 550 907 z "},"ẹ":{"ha":732,"x_min":42,"x_max":704,"o":"m 657 144 q 537 33 619 85 q 339 -19 454 -19 q 168 25 235 -19 q 72 140 101 69 q 42 294 42 211 q 99 549 42 436 q 258 726 157 663 q 482 790 358 790 q 650 740 596 790 q 704 611 704 690 q 638 442 704 510 q 476 343 572 375 q 285 308 379 311 q 318 153 285 206 q 411 101 351 101 q 530 133 483 101 q 614 214 576 165 l 657 144 m 432 694 q 326 602 361 694 q 285 390 292 510 q 374 417 326 393 q 455 488 422 442 q 488 594 488 533 q 474 669 488 643 q 432 694 460 694 m 192 -206 q 224 -124 192 -156 q 297 -93 257 -93 q 358 -119 336 -93 q 381 -183 381 -146 q 347 -267 381 -237 q 268 -296 313 -296 q 214 -270 236 -296 q 192 -206 192 -244 z "},"è":{"ha":732,"x_min":42,"x_max":704,"o":"m 657 144 q 537 33 619 85 q 339 -19 454 -19 q 168 25 235 -19 q 72 140 101 69 q 42 294 42 211 q 99 549 42 436 q 258 726 157 663 q 482 790 358 790 q 650 740 596 790 q 704 611 704 690 q 638 442 704 510 q 476 343 572 375 q 285 308 379 311 q 318 153 285 206 q 411 101 351 101 q 530 133 483 101 q 614 214 576 165 l 657 144 m 432 694 q 326 602 361 694 q 285 390 292 510 q 374 417 326 393 q 455 488 422 442 q 488 594 488 533 q 474 669 488 643 q 432 694 460 694 m 439 842 q 354 894 410 854 q 248 980 299 933 q 178 1063 197 1026 l 315 1182 l 511 889 l 439 842 z "},"ẻ":{"ha":732,"x_min":42,"x_max":704,"o":"m 657 144 q 537 33 619 85 q 339 -19 454 -19 q 168 25 235 -19 q 72 140 101 69 q 42 294 42 211 q 99 549 42 436 q 258 726 157 663 q 482 790 358 790 q 650 740 596 790 q 704 611 704 690 q 638 442 704 510 q 476 343 572 375 q 285 308 379 311 q 318 153 285 206 q 411 101 351 101 q 530 133 483 101 q 614 214 576 165 l 657 144 m 432 694 q 326 602 361 694 q 285 390 292 510 q 374 417 326 393 q 455 488 422 442 q 488 594 488 533 q 474 669 488 643 q 432 694 460 694 m 438 832 q 421 866 431 840 q 413 901 411 892 q 424 926 415 917 q 451 949 432 935 q 490 988 481 968 l 490 992 q 492 1007 492 997 q 443 1042 492 1042 q 404 1039 410 1042 l 425 1185 q 447 1189 429 1186 q 478 1192 464 1192 q 616 1159 565 1192 q 667 1061 667 1126 q 663 1025 667 1044 q 635 971 657 993 q 588 932 613 949 q 554 908 564 915 q 531 881 538 896 q 525 840 524 867 l 438 832 z "},"ē":{"ha":732,"x_min":42,"x_max":704,"o":"m 657 144 q 537 33 619 85 q 339 -19 454 -19 q 168 25 235 -19 q 72 140 101 69 q 42 294 42 211 q 99 549 42 436 q 258 726 157 663 q 482 790 358 790 q 650 740 596 790 q 704 611 704 690 q 638 442 704 510 q 476 343 572 375 q 285 308 379 311 q 318 153 285 206 q 411 101 351 101 q 530 133 483 101 q 614 214 576 165 l 657 144 m 432 694 q 326 602 361 694 q 285 390 292 510 q 374 417 326 393 q 455 488 422 442 q 488 594 488 533 q 474 669 488 643 q 432 694 460 694 m 282 1094 l 669 1094 l 656 953 l 268 953 l 282 1094 z "},"ę":{"ha":732,"x_min":42,"x_max":704,"o":"m 411 101 q 530 133 483 101 q 614 214 576 165 l 657 144 q 606 83 639 115 q 528 28 572 51 q 376 -132 376 -74 q 388 -170 376 -160 q 422 -181 400 -181 q 469 -169 447 -181 q 526 -131 490 -158 l 550 -207 q 446 -283 506 -254 q 317 -311 386 -311 q 219 -280 253 -311 q 186 -193 186 -249 q 194 -152 186 -176 q 217 -110 203 -128 q 306 -18 256 -51 q 106 82 171 -7 q 42 294 42 171 q 99 549 42 436 q 258 726 157 663 q 482 790 358 790 q 650 740 596 790 q 704 611 704 690 q 638 442 704 510 q 476 343 572 375 q 285 308 379 311 q 318 153 285 206 q 411 101 351 101 m 432 694 q 326 602 361 694 q 285 390 292 510 q 374 417 326 393 q 455 488 422 442 q 488 594 488 533 q 474 669 488 643 q 432 694 460 694 z "},"ẽ":{"ha":732,"x_min":42,"x_max":749,"o":"m 657 144 q 537 33 619 85 q 339 -19 454 -19 q 168 25 235 -19 q 72 140 101 69 q 42 294 42 211 q 99 549 42 436 q 258 726 157 663 q 482 790 358 790 q 650 740 596 790 q 704 611 704 690 q 638 442 704 510 q 476 343 572 375 q 285 308 379 311 q 318 153 285 206 q 411 101 351 101 q 530 133 483 101 q 614 214 576 165 l 657 144 m 432 694 q 326 602 361 694 q 285 390 292 510 q 374 417 326 393 q 455 488 422 442 q 488 594 488 533 q 474 669 488 643 q 432 694 460 694 m 222 1025 q 296 1103 244 1068 q 396 1139 347 1139 q 460 1124 435 1139 q 514 1079 485 1108 q 550 1048 535 1058 q 585 1038 565 1038 q 640 1054 619 1038 q 689 1106 661 1071 l 749 1017 q 680 932 731 969 q 578 894 629 894 q 509 909 535 894 q 454 951 483 924 q 414 984 431 974 q 374 996 397 994 q 322 981 346 996 q 274 940 297 965 l 222 1025 z "},"f":{"ha":467,"x_min":-172,"x_max":624,"o":"m 183 833 q 289 1049 206 965 q 503 1132 372 1132 q 624 1115 579 1132 l 581 994 q 490 1026 538 1026 q 440 1010 457 1026 q 416 967 422 993 q 401 885 410 942 l 386 783 l 525 783 l 504 667 l 369 667 l 303 107 q 247 -115 289 -11 q 131 -283 204 -218 q -43 -347 58 -347 q -112 -342 -75 -347 q -172 -332 -150 -337 l -132 -203 q -26 -236 -54 -236 q 29 -205 8 -236 q 60 -106 50 -174 l 153 667 l 68 667 l 82 738 l 174 781 l 183 833 z "},"ḟ":{"ha":467,"x_min":-172,"x_max":624,"o":"m 310 1119 q 233 1154 267 1119 q 200 1231 200 1189 q 237 1328 200 1289 q 335 1367 274 1367 q 418 1334 386 1367 q 450 1260 450 1301 q 415 1159 450 1199 q 310 1119 381 1119 m 183 833 q 289 1049 206 965 q 503 1132 372 1132 q 624 1115 579 1132 l 581 994 q 490 1026 538 1026 q 440 1010 457 1026 q 416 967 422 993 q 401 885 410 942 l 386 783 l 525 783 l 504 667 l 369 667 l 303 107 q 247 -115 289 -11 q 131 -283 204 -218 q -43 -347 58 -347 q -112 -342 -75 -347 q -172 -332 -150 -337 l -132 -203 q -26 -236 -54 -236 q 29 -205 8 -236 q 60 -106 50 -174 l 153 667 l 68 667 l 82 738 l 174 781 l 183 833 z "},"g":{"ha":826,"x_min":40,"x_max":783,"o":"m 671 -53 q 531 -283 650 -215 q 251 -351 413 -351 q 148 -341 204 -351 q 69 -321 92 -331 l 104 -175 q 144 -200 113 -183 q 217 -230 176 -217 q 294 -243 258 -243 q 401 -214 367 -243 q 444 -99 435 -185 l 461 50 q 281 -14 382 -14 q 100 67 160 -14 q 40 272 40 147 q 94 526 40 408 q 253 717 147 644 q 506 789 358 789 q 593 779 546 789 q 674 757 640 769 l 783 789 l 671 -53 m 551 686 q 490 694 525 694 q 326 569 378 694 q 275 281 275 444 q 302 151 275 197 q 376 104 329 104 q 474 154 426 104 l 551 686 z "},"ğ":{"ha":826,"x_min":40,"x_max":789,"o":"m 671 -53 q 531 -283 650 -215 q 251 -351 413 -351 q 148 -341 204 -351 q 69 -321 92 -331 l 104 -175 q 144 -200 113 -183 q 217 -230 176 -217 q 294 -243 258 -243 q 401 -214 367 -243 q 444 -99 435 -185 l 461 50 q 281 -14 382 -14 q 100 67 160 -14 q 40 272 40 147 q 94 526 40 408 q 253 717 147 644 q 506 789 358 789 q 593 779 546 789 q 674 757 640 769 l 783 789 l 671 -53 m 551 686 q 490 694 525 694 q 326 569 378 694 q 275 281 275 444 q 302 151 275 197 q 376 104 329 104 q 474 154 426 104 l 551 686 m 551 882 q 390 944 440 882 q 340 1094 340 1006 q 343 1140 340 1110 l 468 1140 l 468 1110 q 485 1051 468 1072 q 556 1029 503 1029 q 642 1058 622 1029 q 665 1140 663 1088 l 789 1140 l 789 1117 q 764 1005 789 1058 q 685 917 739 951 q 551 882 632 882 z "},"ĝ":{"ha":826,"x_min":40,"x_max":804,"o":"m 292 879 l 542 1132 l 663 1132 l 804 879 l 721 839 l 583 971 l 365 840 l 292 879 m 671 -53 q 531 -283 650 -215 q 251 -351 413 -351 q 148 -341 204 -351 q 69 -321 92 -331 l 104 -175 q 144 -200 113 -183 q 217 -230 176 -217 q 294 -243 258 -243 q 401 -214 367 -243 q 444 -99 435 -185 l 461 50 q 281 -14 382 -14 q 100 67 160 -14 q 40 272 40 147 q 94 526 40 408 q 253 717 147 644 q 506 789 358 789 q 593 779 546 789 q 674 757 640 769 l 783 789 l 671 -53 m 551 686 q 490 694 525 694 q 326 569 378 694 q 275 281 275 444 q 302 151 275 197 q 376 104 329 104 q 474 154 426 104 l 551 686 z "},"ģ":{"ha":828,"x_min":42,"x_max":785,"o":"m 615 1138 q 585 1106 600 1129 q 569 1050 569 1083 q 582 1003 569 1024 q 614 982 594 983 l 607 919 l 503 849 q 426 899 457 858 q 396 992 396 939 q 419 1093 396 1047 q 478 1167 442 1139 q 550 1203 514 1196 l 617 1156 l 615 1138 m 672 -53 q 533 -283 651 -215 q 253 -351 414 -351 q 149 -341 206 -351 q 71 -321 93 -331 l 106 -175 q 146 -200 114 -183 q 219 -230 178 -217 q 296 -243 260 -243 q 402 -214 368 -243 q 446 -99 436 -185 l 463 50 q 282 -14 383 -14 q 101 67 161 -14 q 42 272 42 147 q 95 526 42 408 q 254 717 149 644 q 507 789 360 789 q 594 779 547 789 q 675 757 642 769 l 785 789 l 672 -53 m 553 686 q 492 694 525 694 q 328 569 379 694 q 276 281 276 444 q 303 151 276 197 q 376 104 331 104 q 475 154 428 104 l 553 686 z "},"ġ":{"ha":826,"x_min":40,"x_max":783,"o":"m 671 -53 q 531 -283 650 -215 q 251 -351 413 -351 q 148 -341 204 -351 q 69 -321 92 -331 l 104 -175 q 144 -200 113 -183 q 217 -230 176 -217 q 294 -243 258 -243 q 401 -214 367 -243 q 444 -99 435 -185 l 461 50 q 281 -14 382 -14 q 100 67 160 -14 q 40 272 40 147 q 94 526 40 408 q 253 717 147 644 q 506 789 358 789 q 593 779 546 789 q 674 757 640 769 l 783 789 l 671 -53 m 551 686 q 490 694 525 694 q 326 569 378 694 q 275 281 275 444 q 302 151 275 197 q 376 104 329 104 q 474 154 426 104 l 551 686 m 544 907 q 468 942 501 907 q 435 1018 435 976 q 472 1115 435 1076 q 569 1154 508 1154 q 653 1122 621 1154 q 685 1047 685 1089 q 650 947 685 986 q 544 907 615 907 z "},"h":{"ha":879,"x_min":49,"x_max":835,"o":"m 350 621 q 464 744 397 699 q 610 789 531 789 q 790 583 790 789 q 757 343 790 543 l 747 285 q 728 140 728 176 q 754 103 728 103 q 778 109 765 103 q 815 133 792 115 l 835 85 q 760 19 811 53 q 632 -14 710 -14 q 521 17 549 -14 q 493 101 493 49 q 517 254 493 139 l 525 300 q 556 551 556 474 q 543 633 556 611 q 501 654 531 654 q 413 603 461 654 q 332 478 365 551 l 274 0 l 49 0 l 169 1006 l 83 1035 l 94 1090 l 372 1119 l 408 1100 l 350 621 z "},"ħ":{"ha":879,"x_min":49,"x_max":835,"o":"m 350 619 q 463 744 396 699 q 610 789 531 789 q 790 583 790 789 q 757 343 790 543 l 747 285 q 728 140 728 176 q 754 103 728 103 q 778 109 765 103 q 815 133 792 115 l 835 85 q 760 19 811 53 q 632 -14 710 -14 q 521 17 549 -14 q 493 101 493 49 q 517 254 493 139 l 525 300 q 556 551 556 474 q 543 633 556 611 q 501 654 531 654 q 413 603 461 654 q 332 478 365 551 l 274 0 l 49 0 l 151 856 l 61 856 l 72 944 l 163 944 l 169 1006 l 83 1035 l 94 1090 l 372 1119 l 408 1100 l 389 944 l 535 944 l 524 856 l 378 856 l 350 619 z "},"ĥ":{"ha":879,"x_min":24,"x_max":835,"o":"m 350 621 q 464 744 397 699 q 610 789 531 789 q 790 583 790 789 q 757 343 790 543 l 747 285 q 728 140 728 176 q 754 103 728 103 q 778 109 765 103 q 815 133 792 115 l 835 85 q 760 19 811 53 q 632 -14 710 -14 q 521 17 549 -14 q 493 101 493 49 q 517 254 493 139 l 525 300 q 556 551 556 474 q 543 633 556 611 q 501 654 531 654 q 413 603 461 654 q 332 478 365 551 l 274 0 l 49 0 l 169 1006 l 83 1035 l 94 1090 l 372 1119 l 408 1100 l 350 621 m 24 1181 l 272 1422 l 393 1422 l 535 1181 l 451 1142 l 315 1282 l 96 1142 l 24 1181 z "},"i":{"ha":456,"x_min":72,"x_max":425,"o":"m 306 154 q 304 136 304 147 q 329 103 304 103 q 353 110 340 103 q 392 133 367 117 l 410 85 q 336 19 386 53 q 210 -14 286 -14 q 110 10 146 -14 q 74 74 74 35 q 75 88 74 82 q 118 411 110 340 l 150 650 l 72 693 l 83 753 l 354 789 l 392 772 l 306 154 m 285 907 q 208 942 242 907 q 175 1018 175 976 q 212 1115 175 1076 q 310 1154 249 1154 q 393 1122 361 1154 q 425 1047 425 1089 q 390 947 425 986 q 285 907 356 907 z "},"ı":{"ha":456,"x_min":72,"x_max":410,"o":"m 306 154 q 304 136 304 147 q 329 103 304 103 q 353 110 340 103 q 392 133 367 117 l 410 85 q 336 19 386 53 q 210 -14 286 -14 q 110 10 146 -14 q 74 74 74 35 q 75 88 74 82 q 118 411 110 340 l 150 650 l 72 693 l 83 753 l 354 789 l 392 772 l 306 154 z "},"í":{"ha":456,"x_min":72,"x_max":551,"o":"m 421 1182 l 551 1056 q 488 985 539 1033 q 375 894 436 938 q 276 835 314 850 l 206 890 l 421 1182 m 306 154 q 304 136 304 147 q 329 103 304 103 q 353 110 340 103 q 392 133 367 117 l 410 85 q 336 19 386 53 q 210 -14 286 -14 q 110 10 146 -14 q 74 74 74 35 q 75 88 74 82 q 118 411 110 340 l 150 650 l 72 693 l 83 753 l 354 789 l 392 772 l 306 154 z "},"ĭ":{"ha":456,"x_min":72,"x_max":529,"o":"m 306 154 q 304 136 304 147 q 329 103 304 103 q 353 110 340 103 q 392 133 367 117 l 410 85 q 336 19 386 53 q 210 -14 286 -14 q 110 10 146 -14 q 74 74 74 35 q 75 88 74 82 q 118 411 110 340 l 150 650 l 72 693 l 83 753 l 354 789 l 392 772 l 306 154 m 292 882 q 131 944 181 882 q 81 1094 81 1006 q 83 1140 81 1110 l 208 1140 l 208 1110 q 226 1051 208 1072 q 296 1029 243 1029 q 383 1058 363 1029 q 406 1140 403 1088 l 529 1140 l 529 1117 q 504 1005 529 1058 q 426 917 479 951 q 292 882 372 882 z "},"î":{"ha":456,"x_min":32,"x_max":544,"o":"m 32 879 l 282 1132 l 403 1132 l 544 879 l 461 839 l 324 971 l 106 840 l 32 879 m 306 154 q 304 136 304 147 q 329 103 304 103 q 353 110 340 103 q 392 133 367 117 l 410 85 q 336 19 386 53 q 210 -14 286 -14 q 110 10 146 -14 q 74 74 74 35 q 75 88 74 82 q 118 411 110 340 l 150 650 l 72 693 l 83 753 l 354 789 l 392 772 l 306 154 z "},"ï":{"ha":456,"x_min":33,"x_max":561,"o":"m 131 907 q 63 941 92 907 q 33 1018 33 975 q 65 1115 33 1076 q 153 1154 97 1154 q 226 1122 199 1154 q 254 1047 254 1089 q 224 946 254 985 q 131 907 193 907 m 438 907 q 369 941 399 907 q 340 1018 340 975 q 372 1115 340 1076 q 460 1154 403 1154 q 533 1122 504 1154 q 561 1047 561 1089 q 531 947 561 986 q 438 907 500 907 m 306 154 q 304 136 304 147 q 329 103 304 103 q 353 110 340 103 q 392 133 367 117 l 410 85 q 336 19 386 53 q 210 -14 286 -14 q 110 10 146 -14 q 74 74 74 35 q 75 88 74 82 q 118 411 110 340 l 150 650 l 72 693 l 83 753 l 354 789 l 392 772 l 306 154 z "},"ị":{"ha":456,"x_min":65,"x_max":425,"o":"m 306 154 q 304 136 304 147 q 329 103 304 103 q 353 110 340 103 q 392 133 367 117 l 410 85 q 336 19 386 53 q 210 -14 286 -14 q 110 10 146 -14 q 74 74 74 35 q 75 88 74 82 q 118 411 110 340 l 150 650 l 72 693 l 83 753 l 354 789 l 392 772 l 306 154 m 285 907 q 208 942 242 907 q 175 1018 175 976 q 212 1115 175 1076 q 310 1154 249 1154 q 393 1122 361 1154 q 425 1047 425 1089 q 390 947 425 986 q 285 907 356 907 m 65 -182 q 98 -101 65 -132 q 171 -69 131 -69 q 232 -96 210 -69 q 254 -160 254 -122 q 220 -243 254 -214 q 142 -272 186 -272 q 88 -247 110 -272 q 65 -182 65 -221 z "},"ì":{"ha":456,"x_min":-17,"x_max":410,"o":"m 306 154 q 304 136 304 147 q 329 103 304 103 q 353 110 340 103 q 392 133 367 117 l 410 85 q 336 19 386 53 q 210 -14 286 -14 q 110 10 146 -14 q 74 74 74 35 q 75 88 74 82 q 118 411 110 340 l 150 650 l 72 693 l 83 753 l 354 789 l 392 772 l 306 154 m 244 842 q 160 894 215 854 q 53 980 104 933 q -17 1063 3 1026 l 121 1182 l 317 889 l 244 842 z "},"ỉ":{"ha":456,"x_min":72,"x_max":472,"o":"m 306 154 q 304 136 304 147 q 329 103 304 103 q 353 110 340 103 q 392 133 367 117 l 410 85 q 336 19 386 53 q 210 -14 286 -14 q 110 10 146 -14 q 74 74 74 35 q 75 88 74 82 q 118 411 110 340 l 150 650 l 72 693 l 83 753 l 354 789 l 392 772 l 306 154 m 243 832 q 226 866 236 840 q 218 901 217 892 q 229 926 221 917 q 257 949 238 935 q 296 988 286 968 l 296 992 q 297 1007 297 997 q 249 1042 297 1042 q 210 1039 215 1042 l 231 1185 q 252 1189 235 1186 q 283 1192 269 1192 q 422 1159 371 1192 q 472 1061 472 1126 q 468 1025 472 1044 q 440 971 463 993 q 394 932 418 949 q 360 908 369 915 q 336 881 343 896 q 331 840 329 867 l 243 832 z "},"ĳ":{"ha":899,"x_min":72,"x_max":893,"o":"m 306 154 q 304 136 304 147 q 329 103 304 103 q 353 110 340 103 q 392 133 367 117 l 410 85 q 336 19 386 53 q 210 -14 286 -14 q 110 10 146 -14 q 74 74 74 35 q 75 88 74 82 q 118 411 110 340 l 150 650 l 72 693 l 83 753 l 354 789 l 392 772 l 306 154 m 285 907 q 208 942 242 907 q 175 1018 175 976 q 212 1115 175 1076 q 310 1154 249 1154 q 393 1122 361 1154 q 425 1047 425 1089 q 390 947 425 986 q 285 907 356 907 m 756 0 q 690 -194 742 -114 q 564 -317 639 -275 q 403 -358 489 -358 q 288 -333 315 -358 l 313 -251 q 340 -258 325 -256 q 364 -260 354 -260 q 458 -219 424 -260 q 508 -116 493 -179 q 535 44 524 -53 l 606 665 l 493 699 l 508 754 l 814 789 l 849 772 l 756 0 m 753 907 q 676 942 710 907 q 643 1018 643 976 q 680 1115 643 1076 q 778 1154 717 1154 q 861 1122 829 1154 q 893 1047 893 1089 q 858 947 893 986 q 753 907 824 907 z "},"ī":{"ha":456,"x_min":72,"x_max":475,"o":"m 306 154 q 304 136 304 147 q 329 103 304 103 q 353 110 340 103 q 392 133 367 117 l 410 85 q 336 19 386 53 q 210 -14 286 -14 q 110 10 146 -14 q 74 74 74 35 q 75 88 74 82 q 118 411 110 340 l 150 650 l 72 693 l 83 753 l 354 789 l 392 772 l 306 154 m 88 1094 l 475 1094 l 461 953 l 74 953 l 88 1094 z "},"į":{"ha":456,"x_min":-17,"x_max":426,"o":"m 311 1154 q 394 1122 361 1154 q 426 1047 426 1089 q 391 947 426 986 q 286 907 356 907 q 210 942 243 907 q 176 1018 176 976 q 213 1115 176 1076 q 311 1154 250 1154 m 306 154 q 304 136 304 147 q 329 103 304 103 q 353 110 340 103 q 392 133 367 117 l 410 85 q 383 54 401 72 q 338 21 364 36 q 174 -146 174 -85 q 185 -184 174 -174 q 219 -194 197 -194 q 267 -183 244 -194 q 324 -144 290 -171 l 347 -221 q 243 -296 303 -267 q 115 -325 183 -325 q 17 -294 51 -325 q -17 -207 -17 -262 q -8 -167 -17 -190 q 14 -124 1 -143 q 76 -53 44 -79 q 146 -6 108 -26 q 92 24 110 4 q 74 72 74 44 q 75 88 74 82 q 118 411 110 340 l 150 650 l 72 693 l 83 753 l 354 789 l 392 772 l 306 154 z "},"ĩ":{"ha":456,"x_min":28,"x_max":554,"o":"m 306 154 q 304 136 304 147 q 329 103 304 103 q 353 110 340 103 q 392 133 367 117 l 410 85 q 336 19 386 53 q 210 -14 286 -14 q 110 10 146 -14 q 74 74 74 35 q 75 88 74 82 q 118 411 110 340 l 150 650 l 72 693 l 83 753 l 354 789 l 392 772 l 306 154 m 28 1025 q 101 1103 50 1068 q 201 1139 153 1139 q 265 1124 240 1139 q 319 1079 290 1108 q 356 1047 342 1057 q 390 1038 371 1038 q 446 1054 425 1038 q 494 1106 467 1071 l 554 1017 q 485 932 536 969 q 383 894 435 894 q 315 909 340 894 q 260 951 289 924 q 219 984 236 974 q 179 996 203 994 q 128 981 151 996 q 79 940 104 965 l 28 1025 z "},"j":{"ha":443,"x_min":-168,"x_max":438,"o":"m 300 0 q 235 -194 286 -114 q 108 -317 183 -275 q -53 -358 33 -358 q -168 -333 -140 -358 l -143 -251 q -116 -258 -131 -256 q -92 -260 -101 -260 q 3 -219 -32 -260 q 53 -116 38 -179 q 79 44 68 -53 l 150 665 l 38 699 l 53 754 l 358 789 l 393 772 l 300 0 m 297 907 q 221 942 254 907 q 188 1018 188 976 q 224 1115 188 1076 q 322 1154 261 1154 q 406 1122 374 1154 q 438 1047 438 1089 q 403 947 438 986 q 297 907 368 907 z "},"ȷ":{"ha":443,"x_min":-168,"x_max":393,"o":"m 300 0 q 235 -194 286 -114 q 108 -317 183 -275 q -53 -358 33 -358 q -168 -333 -140 -358 l -143 -251 q -116 -258 -131 -256 q -92 -260 -101 -260 q 3 -219 -32 -260 q 53 -116 38 -179 q 79 44 68 -53 l 150 665 l 38 699 l 53 754 l 358 789 l 393 772 l 300 0 z "},"ĵ":{"ha":443,"x_min":-168,"x_max":535,"o":"m 300 0 q 235 -194 286 -114 q 108 -317 183 -275 q -53 -358 33 -358 q -168 -333 -140 -358 l -143 -251 q -116 -258 -131 -256 q -92 -260 -101 -260 q 3 -219 -32 -260 q 53 -116 38 -179 q 79 44 68 -53 l 150 665 l 38 699 l 53 754 l 358 789 l 393 772 l 300 0 m 22 879 l 272 1132 l 393 1132 l 535 879 l 451 839 l 314 971 l 96 840 l 22 879 z "},"k":{"ha":785,"x_min":43,"x_max":817,"o":"m 376 1119 l 414 1100 l 268 0 l 43 0 l 175 1006 l 88 1035 l 100 1090 l 376 1119 m 324 414 q 431 481 389 449 q 528 585 474 514 q 564 697 564 633 q 598 768 564 747 q 675 789 632 789 q 740 764 717 789 q 764 701 764 739 q 725 592 764 642 q 518 443 658 507 l 643 186 q 679 140 660 156 q 715 124 699 124 q 753 132 729 124 q 794 154 776 140 l 817 107 q 722 28 786 68 q 583 -12 658 -12 q 497 8 528 -12 q 450 68 465 29 l 324 414 z "},"ķ":{"ha":785,"x_min":43,"x_max":817,"o":"m 261 -315 q 292 -282 278 -304 q 307 -228 307 -260 q 294 -181 307 -201 q 263 -158 282 -160 l 269 -96 l 374 -25 q 450 -75 419 -35 q 481 -169 481 -115 q 458 -269 481 -224 q 399 -344 435 -315 q 328 -379 364 -372 l 260 -332 l 261 -315 m 376 1119 l 414 1100 l 268 0 l 43 0 l 175 1006 l 88 1035 l 100 1090 l 376 1119 m 324 414 q 431 481 389 449 q 528 585 474 514 q 564 697 564 633 q 598 768 564 747 q 675 789 632 789 q 740 764 717 789 q 764 701 764 739 q 725 592 764 642 q 518 443 658 507 l 643 186 q 679 140 660 156 q 715 124 699 124 q 753 132 729 124 q 794 154 776 140 l 817 107 q 722 28 786 68 q 583 -12 658 -12 q 497 8 528 -12 q 450 68 465 29 l 324 414 z "},"ĸ":{"ha":826,"x_min":56,"x_max":824,"o":"m 336 789 l 372 772 l 275 0 l 56 0 l 144 653 l 72 693 l 83 753 l 336 789 m 650 186 q 685 140 665 156 q 722 124 704 124 q 760 132 736 124 q 801 154 783 140 l 824 107 q 729 28 793 68 q 590 -12 665 -12 q 503 8 535 -12 q 457 68 472 29 l 331 414 l 622 782 l 807 782 l 521 451 l 650 186 z "},"l":{"ha":431,"x_min":58,"x_max":414,"o":"m 289 154 q 288 138 288 149 q 314 103 288 103 q 338 109 325 103 q 376 133 351 115 l 394 85 q 324 19 371 51 q 204 -14 276 -14 q 101 8 143 -14 q 58 78 60 31 q 64 131 58 86 l 181 1006 l 90 1035 l 104 1090 l 379 1119 l 414 1100 l 289 154 z "},"ĺ":{"ha":431,"x_min":57,"x_max":551,"o":"m 551 1240 q 451 1140 528 1193 q 317 1065 374 1086 l 238 1133 l 425 1365 l 551 1240 m 288 154 q 286 136 286 147 q 311 103 286 103 q 336 109 322 103 q 374 133 350 115 l 393 85 q 322 19 369 51 q 203 -14 274 -14 q 100 8 142 -14 q 57 78 58 31 q 63 131 57 86 l 178 924 l 89 953 l 103 1010 l 378 1038 l 413 1019 l 288 154 z "},"ľ":{"ha":592,"x_min":58,"x_max":665,"o":"m 289 154 q 288 138 288 149 q 314 103 288 103 q 338 109 325 103 q 376 133 351 115 l 394 85 q 324 19 371 51 q 204 -14 276 -14 q 101 8 143 -14 q 58 78 60 31 q 64 131 58 86 l 181 1006 l 90 1035 l 104 1090 l 379 1119 l 414 1100 l 289 154 m 475 718 q 494 808 486 751 q 503 922 503 865 q 486 1058 503 1035 l 500 1088 l 640 1118 q 659 1069 653 1106 q 665 990 665 1033 q 639 818 665 906 q 567 681 613 731 l 479 701 l 475 718 z "},"ļ":{"ha":431,"x_min":10,"x_max":414,"o":"m 11 -315 q 42 -282 28 -304 q 57 -228 57 -260 q 44 -181 57 -201 q 13 -158 32 -160 l 19 -96 l 124 -25 q 200 -75 169 -35 q 231 -169 231 -115 q 208 -269 231 -224 q 149 -344 185 -315 q 78 -379 114 -372 l 10 -332 l 11 -315 m 289 154 q 288 138 288 149 q 314 103 288 103 q 338 109 325 103 q 376 133 351 115 l 394 85 q 324 19 371 51 q 204 -14 276 -14 q 101 8 143 -14 q 58 78 60 31 q 64 131 58 86 l 181 1006 l 90 1035 l 104 1090 l 379 1119 l 414 1100 l 289 154 z "},"ŀ":{"ha":556,"x_min":58,"x_max":622,"o":"m 289 154 q 288 138 288 149 q 314 103 288 103 q 338 109 325 103 q 376 133 351 115 l 394 85 q 324 19 371 51 q 204 -14 276 -14 q 101 8 143 -14 q 58 78 60 31 q 64 131 58 86 l 181 1006 l 90 1035 l 104 1090 l 379 1119 l 414 1100 l 289 154 m 393 533 q 433 631 393 593 q 522 669 472 669 q 596 637 569 669 q 622 560 622 604 q 581 459 622 494 q 486 424 540 424 q 420 455 447 424 q 393 533 393 486 z "},"ǉ":{"ha":874,"x_min":58,"x_max":868,"o":"m 289 154 q 288 138 288 149 q 314 103 288 103 q 338 109 325 103 q 376 133 351 115 l 394 85 q 324 19 371 51 q 204 -14 276 -14 q 101 8 143 -14 q 58 78 60 31 q 64 131 58 86 l 181 1006 l 90 1035 l 104 1090 l 379 1119 l 414 1100 l 289 154 m 731 0 q 665 -194 717 -114 q 539 -317 614 -275 q 378 -358 464 -358 q 263 -333 290 -358 l 288 -251 q 315 -258 300 -256 q 339 -260 329 -260 q 433 -219 399 -260 q 483 -116 468 -179 q 510 44 499 -53 l 581 665 l 468 699 l 483 754 l 789 789 l 824 772 l 731 0 m 728 907 q 651 942 685 907 q 618 1018 618 976 q 655 1115 618 1076 q 753 1154 692 1154 q 836 1122 804 1154 q 868 1047 868 1089 q 833 947 868 986 q 728 907 799 907 z "},"ł":{"ha":431,"x_min":18,"x_max":460,"o":"m 289 154 q 288 138 288 149 q 314 103 288 103 q 338 109 325 103 q 376 133 351 115 l 394 85 q 324 19 371 51 q 204 -14 276 -14 q 101 8 143 -14 q 58 78 60 31 q 64 131 58 86 l 114 499 l 18 461 l 18 554 l 126 599 l 181 1006 l 90 1035 l 104 1090 l 379 1119 l 414 1100 l 360 693 l 460 733 l 460 635 l 347 590 l 289 154 z "},"m":{"ha":1329,"x_min":56,"x_max":1285,"o":"m 361 629 q 469 745 406 701 q 607 789 532 789 q 790 621 774 789 q 905 745 836 701 q 1060 789 974 789 q 1240 583 1240 789 q 1207 343 1240 543 q 1201 315 1204 326 q 1185 217 1193 267 q 1178 140 1178 168 q 1185 110 1178 118 q 1204 103 1192 103 q 1228 109 1215 103 q 1265 133 1242 115 l 1285 85 q 1210 19 1261 53 q 1081 -14 1160 -14 q 971 19 999 -14 q 943 101 943 51 q 975 300 943 143 q 1006 551 1006 474 q 993 633 1006 611 q 951 654 981 654 q 867 615 911 654 q 790 514 822 576 q 775 343 786 422 l 735 0 l 507 0 l 546 300 q 567 543 567 451 q 553 633 567 611 q 503 654 539 654 q 422 610 468 654 q 344 503 376 565 l 275 0 l 56 0 l 144 653 l 72 693 l 83 753 l 336 789 l 372 772 l 361 629 z "},"ṁ":{"ha":1329,"x_min":56,"x_max":1285,"o":"m 361 629 q 469 745 406 701 q 607 789 532 789 q 790 621 774 789 q 905 745 836 701 q 1060 789 974 789 q 1240 583 1240 789 q 1207 343 1240 543 q 1201 315 1204 326 q 1185 217 1193 267 q 1178 140 1178 168 q 1185 110 1178 118 q 1204 103 1192 103 q 1228 109 1215 103 q 1265 133 1242 115 l 1285 85 q 1210 19 1261 53 q 1081 -14 1160 -14 q 971 19 999 -14 q 943 101 943 51 q 975 300 943 143 q 1006 551 1006 474 q 993 633 1006 611 q 951 654 981 654 q 867 615 911 654 q 790 514 822 576 q 775 343 786 422 l 735 0 l 507 0 l 546 300 q 567 543 567 451 q 553 633 567 611 q 503 654 539 654 q 422 610 468 654 q 344 503 376 565 l 275 0 l 56 0 l 144 653 l 72 693 l 83 753 l 336 789 l 372 772 l 361 629 m 725 907 q 649 942 682 907 q 615 1018 615 976 q 652 1115 615 1076 q 750 1154 689 1154 q 833 1122 801 1154 q 865 1047 865 1089 q 831 947 865 986 q 725 907 796 907 z "},"n":{"ha":885,"x_min":57,"x_max":840,"o":"m 361 631 q 473 747 408 704 q 615 789 538 789 q 796 583 796 789 q 763 343 796 543 l 753 285 q 733 140 733 176 q 760 103 733 103 q 784 109 771 103 q 821 133 797 115 l 840 85 q 766 19 817 53 q 636 -14 715 -14 q 527 19 556 -14 q 499 101 499 51 q 522 254 499 139 l 531 300 q 561 551 561 474 q 549 633 561 611 q 507 654 536 654 q 422 606 468 654 q 343 489 375 558 l 276 0 l 57 0 l 144 653 l 72 693 l 83 753 l 338 789 l 372 772 l 361 631 z "},"ń":{"ha":885,"x_min":57,"x_max":840,"o":"m 653 1182 l 783 1056 q 719 985 771 1033 q 607 894 668 938 q 508 835 546 850 l 438 890 l 653 1182 m 361 631 q 473 747 408 704 q 615 789 538 789 q 796 583 796 789 q 763 343 796 543 l 753 285 q 733 140 733 176 q 760 103 733 103 q 784 109 771 103 q 821 133 797 115 l 840 85 q 766 19 817 53 q 636 -14 715 -14 q 527 19 556 -14 q 499 101 499 51 q 522 254 499 139 l 531 300 q 561 551 561 474 q 549 633 561 611 q 507 654 536 654 q 422 606 468 654 q 343 489 375 558 l 276 0 l 57 0 l 144 653 l 72 693 l 83 753 l 338 789 l 372 772 l 361 631 z "},"ŉ":{"ha":1028,"x_min":-33,"x_max":985,"o":"m 153 1179 q 251 1105 218 1163 q 283 968 283 1047 q 201 752 283 843 q 11 617 119 661 l -33 689 l -32 703 q 63 786 22 722 q 104 919 104 850 q 86 992 104 964 q 36 1022 68 1019 l 40 1050 l 153 1179 m 506 631 q 617 747 553 704 q 760 789 682 789 q 940 583 940 789 q 907 343 940 543 l 897 285 q 878 140 878 176 q 904 103 878 103 q 928 109 915 103 q 965 133 942 115 l 985 85 q 910 19 961 53 q 781 -14 860 -14 q 672 19 700 -14 q 643 101 643 51 q 667 254 643 139 l 675 300 q 706 551 706 474 q 693 633 706 611 q 651 654 681 654 q 566 606 613 654 q 488 489 519 558 l 421 0 l 201 0 l 289 653 l 217 693 l 228 753 l 482 789 l 517 772 l 506 631 z "},"ň":{"ha":885,"x_min":57,"x_max":840,"o":"m 283 1093 l 368 1132 l 504 990 l 724 1132 l 796 1093 l 546 839 l 426 839 l 283 1093 m 361 631 q 473 747 408 704 q 615 789 538 789 q 796 583 796 789 q 763 343 796 543 l 753 285 q 733 140 733 176 q 760 103 733 103 q 784 109 771 103 q 821 133 797 115 l 840 85 q 766 19 817 53 q 636 -14 715 -14 q 527 19 556 -14 q 499 101 499 51 q 522 254 499 139 l 531 300 q 561 551 561 474 q 549 633 561 611 q 507 654 536 654 q 422 606 468 654 q 343 489 375 558 l 276 0 l 57 0 l 144 653 l 72 693 l 83 753 l 338 789 l 372 772 l 361 631 z "},"ņ":{"ha":885,"x_min":57,"x_max":840,"o":"m 253 -315 q 284 -282 269 -304 q 299 -228 299 -260 q 286 -181 299 -201 q 254 -158 274 -160 l 261 -96 l 365 -25 q 442 -75 411 -35 q 472 -169 472 -115 q 449 -269 472 -224 q 391 -344 426 -315 q 319 -379 356 -372 l 251 -332 l 253 -315 m 361 631 q 473 747 408 704 q 615 789 538 789 q 796 583 796 789 q 763 343 796 543 l 753 285 q 733 140 733 176 q 760 103 733 103 q 784 109 771 103 q 821 133 797 115 l 840 85 q 766 19 817 53 q 636 -14 715 -14 q 527 19 556 -14 q 499 101 499 51 q 522 254 499 139 l 531 300 q 561 551 561 474 q 549 633 561 611 q 507 654 536 654 q 422 606 468 654 q 343 489 375 558 l 276 0 l 57 0 l 144 653 l 72 693 l 83 753 l 338 789 l 372 772 l 361 631 z "},"ṅ":{"ha":885,"x_min":57,"x_max":840,"o":"m 361 631 q 473 747 408 704 q 615 789 538 789 q 796 583 796 789 q 763 343 796 543 l 753 285 q 733 140 733 176 q 760 103 733 103 q 784 109 771 103 q 821 133 797 115 l 840 85 q 766 19 817 53 q 636 -14 715 -14 q 527 19 556 -14 q 499 101 499 51 q 522 254 499 139 l 531 300 q 561 551 561 474 q 549 633 561 611 q 507 654 536 654 q 422 606 468 654 q 343 489 375 558 l 276 0 l 57 0 l 144 653 l 72 693 l 83 753 l 338 789 l 372 772 l 361 631 m 517 907 q 440 942 474 907 q 407 1018 407 976 q 444 1115 407 1076 q 542 1154 481 1154 q 625 1122 593 1154 q 657 1047 657 1089 q 622 947 657 986 q 517 907 588 907 z "},"ŋ":{"ha":875,"x_min":57,"x_max":797,"o":"m 361 631 q 615 788 460 788 q 747 747 696 788 q 797 611 797 707 q 796 583 797 593 q 762 234 778 371 q 726 0 746 97 q 655 -222 697 -146 q 547 -328 613 -299 q 375 -358 482 -358 q 303 -351 336 -358 q 260 -333 271 -344 l 286 -251 q 310 -258 293 -256 q 336 -260 326 -260 q 447 -198 411 -260 q 501 0 482 -136 q 528 243 514 90 q 561 560 542 390 q 563 583 563 568 q 549 635 563 617 q 508 654 535 654 q 427 612 472 654 q 343 488 382 569 l 276 0 l 57 0 l 144 653 l 72 693 l 83 753 l 338 789 l 372 772 l 361 631 z "},"ǌ":{"ha":1328,"x_min":57,"x_max":1322,"o":"m 361 631 q 473 747 408 704 q 615 789 538 789 q 796 583 796 789 q 763 343 796 543 l 753 285 q 733 140 733 176 q 760 103 733 103 q 784 109 771 103 q 821 133 797 115 l 840 85 q 766 19 817 53 q 636 -14 715 -14 q 527 19 556 -14 q 499 101 499 51 q 522 254 499 139 l 531 300 q 561 551 561 474 q 549 633 561 611 q 507 654 536 654 q 422 606 468 654 q 343 489 375 558 l 276 0 l 57 0 l 144 653 l 72 693 l 83 753 l 338 789 l 372 772 l 361 631 m 1185 0 q 1119 -194 1171 -114 q 993 -317 1068 -275 q 832 -358 918 -358 q 717 -333 744 -358 l 742 -251 q 769 -258 754 -256 q 793 -260 783 -260 q 888 -219 853 -260 q 938 -116 922 -179 q 964 44 953 -53 l 1035 665 l 922 699 l 938 754 l 1243 789 l 1278 772 l 1185 0 m 1182 907 q 1106 942 1139 907 q 1072 1018 1072 976 q 1109 1115 1072 1076 q 1207 1154 1146 1154 q 1290 1122 1258 1154 q 1322 1047 1322 1089 q 1288 947 1322 986 q 1182 907 1253 907 z "},"ñ":{"ha":885,"x_min":57,"x_max":840,"o":"m 361 631 q 473 747 408 704 q 615 789 538 789 q 796 583 796 789 q 763 343 796 543 l 753 285 q 733 140 733 176 q 760 103 733 103 q 784 109 771 103 q 821 133 797 115 l 840 85 q 766 19 817 53 q 636 -14 715 -14 q 527 19 556 -14 q 499 101 499 51 q 522 254 499 139 l 531 300 q 561 551 561 474 q 549 633 561 611 q 507 654 536 654 q 422 606 468 654 q 343 489 375 558 l 276 0 l 57 0 l 144 653 l 72 693 l 83 753 l 338 789 l 372 772 l 361 631 m 260 1025 q 333 1103 282 1068 q 433 1139 385 1139 q 497 1124 472 1139 q 551 1079 522 1108 q 588 1047 574 1057 q 622 1038 603 1038 q 678 1054 657 1038 q 726 1106 699 1071 l 786 1017 q 717 932 768 969 q 615 894 667 894 q 547 909 572 894 q 492 951 521 924 q 451 984 468 974 q 411 996 435 994 q 360 981 383 996 q 311 940 336 965 l 260 1025 z "},"o":{"ha":811,"x_min":32,"x_max":779,"o":"m 468 790 q 700 706 621 790 q 779 460 779 621 q 725 218 779 328 q 572 44 671 108 q 342 -19 472 -19 q 110 66 189 -19 q 32 314 32 151 q 86 556 32 447 q 239 727 140 664 q 468 790 338 790 m 443 694 q 346 633 385 694 q 290 479 307 572 q 276 292 274 386 q 303 119 281 171 q 374 68 325 68 q 494 181 456 68 q 532 449 532 294 q 510 640 532 585 q 443 694 489 694 z "},"ó":{"ha":811,"x_min":32,"x_max":779,"o":"m 614 1182 l 744 1056 q 681 985 732 1033 q 568 894 629 938 q 469 835 507 850 l 399 890 l 614 1182 m 468 790 q 700 706 621 790 q 779 460 779 621 q 725 218 779 328 q 572 44 671 108 q 342 -19 472 -19 q 110 66 189 -19 q 32 314 32 151 q 86 556 32 447 q 239 727 140 664 q 468 790 338 790 m 443 694 q 346 633 385 694 q 290 479 307 572 q 276 292 274 386 q 303 119 281 171 q 374 68 325 68 q 494 181 456 68 q 532 449 532 294 q 510 640 532 585 q 443 694 489 694 z "},"ŏ":{"ha":811,"x_min":32,"x_max":779,"o":"m 468 790 q 700 706 621 790 q 779 460 779 621 q 725 218 779 328 q 572 44 671 108 q 342 -19 472 -19 q 110 66 189 -19 q 32 314 32 151 q 86 556 32 447 q 239 727 140 664 q 468 790 338 790 m 443 694 q 346 633 385 694 q 290 479 307 572 q 276 292 274 386 q 303 119 281 171 q 374 68 325 68 q 494 181 456 68 q 532 449 532 294 q 510 640 532 585 q 443 694 489 694 m 485 882 q 324 944 374 882 q 274 1094 274 1006 q 276 1140 274 1110 l 401 1140 l 401 1110 q 419 1051 401 1072 q 489 1029 436 1029 q 576 1058 556 1029 q 599 1140 596 1088 l 722 1140 l 722 1117 q 697 1005 722 1058 q 619 917 672 951 q 485 882 565 882 z "},"ô":{"ha":811,"x_min":32,"x_max":779,"o":"m 225 879 l 475 1132 l 596 1132 l 738 879 l 654 839 l 517 971 l 299 840 l 225 879 m 468 790 q 700 706 621 790 q 779 460 779 621 q 725 218 779 328 q 572 44 671 108 q 342 -19 472 -19 q 110 66 189 -19 q 32 314 32 151 q 86 556 32 447 q 239 727 140 664 q 468 790 338 790 m 443 694 q 346 633 385 694 q 290 479 307 572 q 276 292 274 386 q 303 119 281 171 q 374 68 325 68 q 494 181 456 68 q 532 449 532 294 q 510 640 532 585 q 443 694 489 694 z "},"ố":{"ha":811,"x_min":32,"x_max":986,"o":"m 878 1311 l 986 1207 q 888 1111 969 1178 q 760 1025 807 1044 l 700 1071 l 878 1311 m 225 879 l 475 1132 l 596 1132 l 738 879 l 654 839 l 517 971 l 299 840 l 225 879 m 468 790 q 700 706 621 790 q 779 460 779 621 q 725 218 779 328 q 572 44 671 108 q 342 -19 472 -19 q 110 66 189 -19 q 32 314 32 151 q 86 556 32 447 q 239 727 140 664 q 468 790 338 790 m 443 694 q 346 633 385 694 q 290 479 307 572 q 276 292 274 386 q 303 119 281 171 q 374 68 325 68 q 494 181 456 68 q 532 449 532 294 q 510 640 532 585 q 443 694 489 694 z "},"ộ":{"ha":811,"x_min":32,"x_max":779,"o":"m 468 790 q 700 706 621 790 q 779 460 779 621 q 725 218 779 328 q 572 44 671 108 q 342 -19 472 -19 q 110 66 189 -19 q 32 314 32 151 q 86 556 32 447 q 239 727 140 664 q 468 790 338 790 m 443 694 q 346 633 385 694 q 290 479 307 572 q 276 292 274 386 q 303 119 281 171 q 374 68 325 68 q 494 181 456 68 q 532 449 532 294 q 510 640 532 585 q 443 694 489 694 m 221 -225 q 253 -144 221 -175 q 326 -112 286 -112 q 388 -139 365 -112 q 410 -203 410 -165 q 376 -286 410 -257 q 297 -315 342 -315 q 243 -290 265 -315 q 221 -225 221 -264 m 225 879 l 475 1132 l 596 1132 l 738 879 l 654 839 l 517 971 l 299 840 l 225 879 z "},"ồ":{"ha":811,"x_min":32,"x_max":811,"o":"m 753 1094 q 637 1172 713 1111 q 538 1276 561 1233 l 650 1375 l 811 1133 l 753 1094 m 225 879 l 475 1132 l 596 1132 l 738 879 l 654 839 l 517 971 l 299 840 l 225 879 m 468 790 q 700 706 621 790 q 779 460 779 621 q 725 218 779 328 q 572 44 671 108 q 342 -19 472 -19 q 110 66 189 -19 q 32 314 32 151 q 86 556 32 447 q 239 727 140 664 q 468 790 338 790 m 443 694 q 346 633 385 694 q 290 479 307 572 q 276 292 274 386 q 303 119 281 171 q 374 68 325 68 q 494 181 456 68 q 532 449 532 294 q 510 640 532 585 q 443 694 489 694 z "},"ổ":{"ha":811,"x_min":32,"x_max":931,"o":"m 742 1010 q 728 1038 736 1017 q 721 1068 719 1060 q 731 1088 724 1081 q 753 1107 738 1094 q 785 1139 778 1124 l 785 1142 q 786 1156 786 1146 q 746 1183 786 1183 q 714 1181 718 1183 l 731 1301 q 749 1305 735 1303 q 775 1307 764 1307 q 889 1280 847 1307 q 931 1199 931 1253 q 928 1169 931 1192 q 903 1124 922 1143 q 864 1092 883 1104 q 838 1074 844 1079 q 819 1051 825 1064 q 814 1017 813 1039 l 742 1010 m 225 879 l 475 1132 l 596 1132 l 738 879 l 654 839 l 517 971 l 299 840 l 225 879 m 468 790 q 700 706 621 790 q 779 460 779 621 q 725 218 779 328 q 572 44 671 108 q 342 -19 472 -19 q 110 66 189 -19 q 32 314 32 151 q 86 556 32 447 q 239 727 140 664 q 468 790 338 790 m 443 694 q 346 633 385 694 q 290 479 307 572 q 276 292 274 386 q 303 119 281 171 q 374 68 325 68 q 494 181 456 68 q 532 449 532 294 q 510 640 532 585 q 443 694 489 694 z "},"ỗ":{"ha":811,"x_min":32,"x_max":793,"o":"m 315 1288 q 381 1360 335 1328 q 472 1392 428 1392 q 531 1378 507 1392 q 579 1338 554 1364 q 613 1309 599 1318 q 644 1300 626 1300 q 695 1315 675 1300 q 739 1361 715 1331 l 793 1281 q 729 1203 775 1238 q 638 1169 683 1169 q 575 1183 599 1169 q 525 1221 551 1196 q 490 1250 506 1240 q 453 1261 475 1260 q 406 1248 426 1261 q 361 1211 385 1235 l 315 1288 m 225 879 l 475 1132 l 596 1132 l 738 879 l 654 839 l 517 971 l 299 840 l 225 879 m 468 790 q 700 706 621 790 q 779 460 779 621 q 725 218 779 328 q 572 44 671 108 q 342 -19 472 -19 q 110 66 189 -19 q 32 314 32 151 q 86 556 32 447 q 239 727 140 664 q 468 790 338 790 m 443 694 q 346 633 385 694 q 290 479 307 572 q 276 292 274 386 q 303 119 281 171 q 374 68 325 68 q 494 181 456 68 q 532 449 532 294 q 510 640 532 585 q 443 694 489 694 z "},"ö":{"ha":811,"x_min":32,"x_max":779,"o":"m 324 907 q 256 941 285 907 q 226 1018 226 975 q 258 1115 226 1076 q 346 1154 290 1154 q 419 1122 392 1154 q 447 1047 447 1089 q 417 946 447 985 q 324 907 386 907 m 631 907 q 563 941 592 907 q 533 1018 533 975 q 565 1115 533 1076 q 653 1154 596 1154 q 726 1122 697 1154 q 754 1047 754 1089 q 724 947 754 986 q 631 907 693 907 m 468 790 q 700 706 621 790 q 779 460 779 621 q 725 218 779 328 q 572 44 671 108 q 342 -19 472 -19 q 110 66 189 -19 q 32 314 32 151 q 86 556 32 447 q 239 727 140 664 q 468 790 338 790 m 443 694 q 346 633 385 694 q 290 479 307 572 q 276 292 274 386 q 303 119 281 171 q 374 68 325 68 q 494 181 456 68 q 532 449 532 294 q 510 640 532 585 q 443 694 489 694 z "},"ọ":{"ha":811,"x_min":32,"x_max":779,"o":"m 468 790 q 700 706 621 790 q 779 460 779 621 q 725 218 779 328 q 572 44 671 108 q 342 -19 472 -19 q 110 66 189 -19 q 32 314 32 151 q 86 556 32 447 q 239 727 140 664 q 468 790 338 790 m 443 694 q 346 633 385 694 q 290 479 307 572 q 276 292 274 386 q 303 119 281 171 q 374 68 325 68 q 494 181 456 68 q 532 449 532 294 q 510 640 532 585 q 443 694 489 694 m 221 -225 q 253 -144 221 -175 q 326 -112 286 -112 q 388 -139 365 -112 q 410 -203 410 -165 q 376 -286 410 -257 q 297 -315 342 -315 q 243 -290 265 -315 q 221 -225 221 -264 z "},"ò":{"ha":811,"x_min":32,"x_max":779,"o":"m 468 790 q 700 706 621 790 q 779 460 779 621 q 725 218 779 328 q 572 44 671 108 q 342 -19 472 -19 q 110 66 189 -19 q 32 314 32 151 q 86 556 32 447 q 239 727 140 664 q 468 790 338 790 m 443 694 q 346 633 385 694 q 290 479 307 572 q 276 292 274 386 q 303 119 281 171 q 374 68 325 68 q 494 181 456 68 q 532 449 532 294 q 510 640 532 585 q 443 694 489 694 m 438 842 q 353 894 408 854 q 247 980 297 933 q 176 1063 196 1026 l 314 1182 l 510 889 l 438 842 z "},"ỏ":{"ha":811,"x_min":32,"x_max":779,"o":"m 468 790 q 700 706 621 790 q 779 460 779 621 q 725 218 779 328 q 572 44 671 108 q 342 -19 472 -19 q 110 66 189 -19 q 32 314 32 151 q 86 556 32 447 q 239 727 140 664 q 468 790 338 790 m 443 694 q 346 633 385 694 q 290 479 307 572 q 276 292 274 386 q 303 119 281 171 q 374 68 325 68 q 494 181 456 68 q 532 449 532 294 q 510 640 532 585 q 443 694 489 694 m 436 832 q 419 866 429 840 q 411 901 410 892 q 422 926 414 917 q 450 949 431 935 q 489 988 479 968 l 489 992 q 490 1007 490 997 q 442 1042 490 1042 q 403 1039 408 1042 l 424 1185 q 445 1189 428 1186 q 476 1192 463 1192 q 615 1159 564 1192 q 665 1061 665 1126 q 661 1025 665 1044 q 633 971 656 993 q 587 932 611 949 q 553 908 563 915 q 529 881 536 896 q 524 840 522 867 l 436 832 z "},"ơ":{"ha":811,"x_min":32,"x_max":886,"o":"m 886 913 l 882 882 q 722 679 860 733 q 779 460 779 597 q 725 218 779 328 q 572 44 671 108 q 342 -19 472 -19 q 110 66 189 -19 q 32 314 32 151 q 86 556 32 447 q 239 727 140 664 q 468 790 338 790 q 582 775 529 790 q 653 794 628 778 q 690 829 679 810 q 718 889 701 849 q 725 913 725 906 l 886 913 m 374 68 q 494 181 456 68 q 532 449 532 294 q 510 640 532 585 q 443 694 489 694 q 346 633 385 694 q 290 479 307 572 q 276 292 274 386 q 303 119 281 171 q 374 68 325 68 z "},"ớ":{"ha":811,"x_min":32,"x_max":886,"o":"m 886 913 l 882 882 q 722 679 860 733 q 779 460 779 597 q 725 218 779 328 q 572 44 671 108 q 342 -19 472 -19 q 110 66 189 -19 q 32 314 32 151 q 86 556 32 447 q 239 727 140 664 q 468 790 338 790 q 582 775 529 790 q 653 794 628 778 q 690 829 679 810 q 718 889 701 849 q 725 913 725 906 l 886 913 m 374 68 q 494 181 456 68 q 532 449 532 294 q 510 640 532 585 q 443 694 489 694 q 346 633 385 694 q 290 479 307 572 q 276 292 274 386 q 303 119 281 171 q 374 68 325 68 m 606 1250 l 736 1124 q 672 1053 724 1101 q 560 962 621 1006 q 461 903 499 918 l 390 958 l 606 1250 z "},"ợ":{"ha":811,"x_min":32,"x_max":886,"o":"m 886 913 l 882 882 q 722 679 860 733 q 779 460 779 597 q 725 218 779 328 q 572 44 671 108 q 342 -19 472 -19 q 110 66 189 -19 q 32 314 32 151 q 86 556 32 447 q 239 727 140 664 q 468 790 338 790 q 582 775 529 790 q 653 794 628 778 q 690 829 679 810 q 718 889 701 849 q 725 913 725 906 l 886 913 m 374 68 q 494 181 456 68 q 532 449 532 294 q 510 640 532 585 q 443 694 489 694 q 346 633 385 694 q 290 479 307 572 q 276 292 274 386 q 303 119 281 171 q 374 68 325 68 m 221 -225 q 253 -144 221 -175 q 326 -112 286 -112 q 388 -139 365 -112 q 410 -203 410 -165 q 376 -286 410 -257 q 297 -315 342 -315 q 243 -290 265 -315 q 221 -225 221 -264 z "},"ờ":{"ha":811,"x_min":32,"x_max":886,"o":"m 886 913 l 882 882 q 722 679 860 733 q 779 460 779 597 q 725 218 779 328 q 572 44 671 108 q 342 -19 472 -19 q 110 66 189 -19 q 32 314 32 151 q 86 556 32 447 q 239 727 140 664 q 468 790 338 790 q 582 775 529 790 q 653 794 628 778 q 690 829 679 810 q 718 889 701 849 q 725 913 725 906 l 886 913 m 374 68 q 494 181 456 68 q 532 449 532 294 q 510 640 532 585 q 443 694 489 694 q 346 633 385 694 q 290 479 307 572 q 276 292 274 386 q 303 119 281 171 q 374 68 325 68 m 506 910 q 421 962 476 922 q 315 1048 365 1001 q 244 1131 264 1094 l 382 1250 l 578 957 l 506 910 z "},"ở":{"ha":811,"x_min":32,"x_max":886,"o":"m 886 913 l 882 882 q 722 679 860 733 q 779 460 779 597 q 725 218 779 328 q 572 44 671 108 q 342 -19 472 -19 q 110 66 189 -19 q 32 314 32 151 q 86 556 32 447 q 239 727 140 664 q 468 790 338 790 q 582 775 529 790 q 653 794 628 778 q 690 829 679 810 q 718 889 701 849 q 725 913 725 906 l 886 913 m 374 68 q 494 181 456 68 q 532 449 532 294 q 510 640 532 585 q 443 694 489 694 q 346 633 385 694 q 290 479 307 572 q 276 292 274 386 q 303 119 281 171 q 374 68 325 68 m 436 832 q 419 866 429 840 q 411 901 410 892 q 422 926 414 917 q 450 949 431 935 q 489 988 479 968 l 489 992 q 490 1007 490 997 q 442 1042 490 1042 q 403 1039 408 1042 l 424 1185 q 445 1189 428 1186 q 476 1192 463 1192 q 615 1159 564 1192 q 665 1061 665 1126 q 661 1025 665 1044 q 633 971 656 993 q 587 932 611 949 q 553 908 563 915 q 529 881 536 896 q 524 840 522 867 l 436 832 z "},"ỡ":{"ha":811,"x_min":32,"x_max":886,"o":"m 886 913 l 882 882 q 722 679 860 733 q 779 460 779 597 q 725 218 779 328 q 572 44 671 108 q 342 -19 472 -19 q 110 66 189 -19 q 32 314 32 151 q 86 556 32 447 q 239 727 140 664 q 468 790 338 790 q 582 775 529 790 q 653 794 628 778 q 690 829 679 810 q 718 889 701 849 q 725 913 725 906 l 886 913 m 374 68 q 494 181 456 68 q 532 449 532 294 q 510 640 532 585 q 443 694 489 694 q 346 633 385 694 q 290 479 307 572 q 276 292 274 386 q 303 119 281 171 q 374 68 325 68 m 221 1025 q 294 1103 243 1068 q 394 1139 346 1139 q 458 1124 433 1139 q 513 1079 483 1108 q 549 1048 533 1058 q 583 1038 564 1038 q 639 1054 618 1038 q 688 1106 660 1071 l 747 1017 q 678 932 729 969 q 576 894 628 894 q 508 909 533 894 q 453 951 482 924 q 413 984 429 974 q 372 996 396 994 q 320 981 344 996 q 272 940 296 965 l 221 1025 z "},"ő":{"ha":811,"x_min":32,"x_max":833,"o":"m 390 1182 l 507 1101 q 458 1010 499 1067 q 367 902 417 953 q 283 835 317 851 l 214 878 l 390 1182 m 722 1182 l 833 1104 q 785 1011 825 1069 q 695 902 744 953 q 611 835 646 851 l 542 878 l 722 1182 m 468 790 q 700 706 621 790 q 779 460 779 621 q 725 218 779 328 q 572 44 671 108 q 342 -19 472 -19 q 110 66 189 -19 q 32 314 32 151 q 86 556 32 447 q 239 727 140 664 q 468 790 338 790 m 443 694 q 346 633 385 694 q 290 479 307 572 q 276 292 274 386 q 303 119 281 171 q 374 68 325 68 q 494 181 456 68 q 532 449 532 294 q 510 640 532 585 q 443 694 489 694 z "},"ō":{"ha":811,"x_min":32,"x_max":779,"o":"m 281 1094 l 668 1094 l 654 953 l 267 953 l 281 1094 m 468 790 q 700 706 621 790 q 779 460 779 621 q 725 218 779 328 q 572 44 671 108 q 342 -19 472 -19 q 110 66 189 -19 q 32 314 32 151 q 86 556 32 447 q 239 727 140 664 q 468 790 338 790 m 443 694 q 346 633 385 694 q 290 479 307 572 q 276 292 274 386 q 303 119 281 171 q 374 68 325 68 q 494 181 456 68 q 532 449 532 294 q 510 640 532 585 q 443 694 489 694 z "},"ø":{"ha":813,"x_min":33,"x_max":779,"o":"m 675 731 q 779 461 779 650 q 725 219 779 329 q 572 46 671 110 q 343 -18 474 -18 q 186 13 256 -18 l 114 -89 l 54 -57 l 129 50 q 33 315 33 135 q 87 557 33 449 q 239 728 140 665 q 468 792 338 792 q 615 765 550 792 l 699 883 l 760 850 l 675 731 m 514 635 q 444 694 493 694 q 347 634 385 694 q 292 481 308 574 q 278 293 275 388 q 279 258 278 269 l 514 635 m 292 153 q 323 90 303 110 q 375 69 343 69 q 499 196 460 69 q 533 483 538 322 l 531 532 l 292 153 z "},"ǿ":{"ha":813,"x_min":33,"x_max":779,"o":"m 675 731 q 779 461 779 650 q 725 219 779 329 q 572 46 671 110 q 343 -18 474 -18 q 186 13 256 -18 l 114 -89 l 54 -57 l 129 50 q 33 315 33 135 q 87 557 33 449 q 239 728 140 665 q 468 792 338 792 q 615 765 550 792 l 699 883 l 760 850 l 675 731 m 514 635 q 444 694 493 694 q 347 634 385 694 q 292 481 308 574 q 278 293 275 388 q 279 258 278 269 l 514 635 m 292 153 q 323 90 303 110 q 375 69 343 69 q 499 196 460 69 q 533 483 538 322 l 531 532 l 292 153 m 449 1182 l 579 1056 q 515 985 567 1033 q 403 894 464 938 q 304 835 342 850 l 233 890 l 449 1182 z "},"õ":{"ha":811,"x_min":32,"x_max":779,"o":"m 468 790 q 700 706 621 790 q 779 460 779 621 q 725 218 779 328 q 572 44 671 108 q 342 -19 472 -19 q 110 66 189 -19 q 32 314 32 151 q 86 556 32 447 q 239 727 140 664 q 468 790 338 790 m 443 694 q 346 633 385 694 q 290 479 307 572 q 276 292 274 386 q 303 119 281 171 q 374 68 325 68 q 494 181 456 68 q 532 449 532 294 q 510 640 532 585 q 443 694 489 694 m 221 1025 q 294 1103 243 1068 q 394 1139 346 1139 q 458 1124 433 1139 q 513 1079 483 1108 q 549 1047 535 1057 q 583 1038 564 1038 q 639 1054 618 1038 q 688 1106 660 1071 l 747 1017 q 678 932 729 969 q 576 894 628 894 q 508 909 533 894 q 453 951 482 924 q 413 984 429 974 q 372 996 396 994 q 321 981 344 996 q 272 940 297 965 l 221 1025 z "},"œ":{"ha":1204,"x_min":42,"x_max":1176,"o":"m 1129 144 q 1010 36 1093 86 q 810 -14 926 -14 q 592 68 669 -14 q 476 8 540 29 q 339 -14 411 -14 q 117 72 192 -14 q 42 319 42 158 q 94 556 42 449 q 243 726 146 663 q 468 789 340 789 q 692 697 617 789 q 954 789 806 789 q 1122 740 1068 789 q 1176 608 1176 690 q 1110 442 1176 508 q 948 343 1044 375 q 757 308 851 311 q 790 157 757 206 q 883 108 822 108 q 1003 138 956 108 q 1086 214 1051 168 l 1129 144 m 440 694 q 347 633 383 694 q 295 478 310 571 q 283 292 281 386 q 306 124 288 175 q 369 72 324 72 q 463 132 426 72 q 514 292 499 192 q 524 406 513 346 q 508 622 526 550 q 440 694 490 694 m 903 694 q 798 602 832 694 q 757 390 764 510 q 846 417 799 393 q 926 488 893 442 q 958 593 958 533 q 903 694 958 694 z "},"p":{"ha":829,"x_min":-1,"x_max":788,"o":"m 363 715 q 551 789 444 789 q 728 713 668 789 q 788 494 788 636 q 731 237 788 353 q 569 53 674 121 q 331 -14 465 -14 q 263 -7 300 -14 l 214 -353 l -1 -353 l 135 653 l 61 693 l 72 753 l 335 789 l 369 772 l 363 715 m 276 90 q 349 81 304 81 q 503 201 454 81 q 553 494 553 321 q 528 619 553 569 q 456 669 504 669 q 349 604 399 669 l 276 90 z "},"ṗ":{"ha":829,"x_min":-1,"x_max":788,"o":"m 363 715 q 551 789 444 789 q 728 713 668 789 q 788 494 788 636 q 731 237 788 353 q 569 53 674 121 q 331 -14 465 -14 q 263 -7 300 -14 l 214 -353 l -1 -353 l 135 653 l 61 693 l 72 753 l 335 789 l 369 772 l 363 715 m 276 90 q 349 81 304 81 q 503 201 454 81 q 553 494 553 321 q 528 619 553 569 q 456 669 504 669 q 349 604 399 669 l 276 90 m 501 907 q 425 942 458 907 q 392 1018 392 976 q 428 1115 392 1076 q 526 1154 465 1154 q 610 1122 578 1154 q 642 1047 642 1089 q 607 947 642 986 q 501 907 572 907 z "},"þ":{"ha":815,"x_min":-3,"x_max":771,"o":"m 347 718 q 538 789 431 789 q 713 713 654 789 q 771 494 771 638 q 715 235 771 351 q 553 53 658 119 q 308 -14 447 -14 q 247 -8 289 -14 l 242 -96 l 210 -353 l -3 -353 l 44 -14 l 172 1007 l 101 1036 l 115 1093 l 361 1119 l 397 1100 l 347 718 m 265 88 q 326 81 288 81 q 488 201 435 81 q 540 494 540 322 q 515 619 540 569 q 442 669 490 669 q 333 610 383 669 l 265 88 z "},"q":{"ha":832,"x_min":42,"x_max":782,"o":"m 651 -197 q 659 -224 651 -212 q 679 -235 667 -235 q 740 -203 701 -235 l 760 -253 q 685 -318 736 -285 q 556 -351 635 -351 q 448 -317 482 -351 q 418 -235 414 -282 l 461 57 q 275 -14 382 -14 q 99 66 156 -14 q 42 272 42 146 q 92 527 42 410 q 247 717 143 644 q 500 789 350 789 q 590 778 542 789 q 672 756 639 768 l 782 789 l 653 -186 l 651 -197 m 553 683 q 485 694 525 694 q 322 569 372 694 q 272 281 272 444 q 298 151 272 197 q 371 104 324 104 q 429 123 401 104 q 478 171 457 142 l 553 683 z "},"r":{"ha":578,"x_min":58,"x_max":606,"o":"m 336 588 q 420 731 361 672 q 558 789 479 789 q 606 775 588 789 l 558 533 q 532 549 553 540 q 482 557 511 557 q 349 528 386 557 l 276 0 l 58 0 l 146 653 l 74 693 l 85 753 l 310 789 l 346 765 l 339 638 l 336 588 z "},"ŕ":{"ha":578,"x_min":58,"x_max":617,"o":"m 486 1182 l 617 1056 q 553 985 604 1033 q 440 894 501 938 q 342 835 379 850 l 271 890 l 486 1182 m 336 588 q 420 731 361 672 q 558 789 479 789 q 606 775 588 789 l 558 533 q 532 549 553 540 q 482 557 511 557 q 349 528 386 557 l 276 0 l 58 0 l 146 653 l 74 693 l 85 753 l 310 789 l 346 765 l 339 638 l 336 588 z "},"ř":{"ha":578,"x_min":58,"x_max":631,"o":"m 118 1093 l 203 1132 l 339 990 l 558 1132 l 631 1093 l 381 839 l 261 839 l 118 1093 m 336 588 q 420 731 361 672 q 558 789 479 789 q 606 775 588 789 l 558 533 q 532 549 553 540 q 482 557 511 557 q 349 528 386 557 l 276 0 l 58 0 l 146 653 l 74 693 l 85 753 l 310 789 l 346 765 l 339 638 l 336 588 z "},"ŗ":{"ha":578,"x_min":21,"x_max":606,"o":"m 22 -315 q 53 -282 39 -304 q 68 -228 68 -260 q 56 -181 68 -201 q 24 -158 43 -160 l 31 -96 l 135 -25 q 211 -75 181 -35 q 242 -169 242 -115 q 219 -269 242 -224 q 160 -344 196 -315 q 89 -379 125 -372 l 21 -332 l 22 -315 m 336 588 q 420 731 361 672 q 558 789 479 789 q 606 775 588 789 l 558 533 q 532 549 553 540 q 482 557 511 557 q 349 528 386 557 l 276 0 l 58 0 l 146 653 l 74 693 l 85 753 l 310 789 l 346 765 l 339 638 l 336 588 z "},"s":{"ha":594,"x_min":0,"x_max":560,"o":"m 531 624 q 475 670 510 649 q 393 692 440 692 q 316 671 347 692 q 285 611 285 650 q 312 541 285 572 q 406 461 339 510 q 508 363 474 413 q 543 236 543 314 q 499 98 543 154 q 381 14 454 42 q 218 -14 307 -14 q 88 1 156 -14 q 0 33 21 17 l 33 169 q 113 115 64 140 q 214 90 161 90 q 288 113 256 90 q 321 178 321 135 q 291 249 321 215 q 197 326 261 282 q 101 422 138 368 q 65 556 65 475 q 105 676 65 624 q 217 759 144 729 q 383 789 289 789 q 488 781 435 789 q 560 764 540 772 l 531 624 z "},"ś":{"ha":594,"x_min":0,"x_max":649,"o":"m 518 1182 l 649 1056 q 585 985 636 1033 q 472 894 533 938 q 374 835 411 850 l 303 890 l 518 1182 m 531 624 q 475 670 510 649 q 393 692 440 692 q 316 671 347 692 q 285 611 285 650 q 312 541 285 572 q 406 461 339 510 q 508 363 474 413 q 543 236 543 314 q 499 98 543 154 q 381 14 454 42 q 218 -14 307 -14 q 88 1 156 -14 q 0 33 21 17 l 33 169 q 113 115 64 140 q 214 90 161 90 q 288 113 256 90 q 321 178 321 135 q 291 249 321 215 q 197 326 261 282 q 101 422 138 368 q 65 556 65 475 q 105 676 65 624 q 217 759 144 729 q 383 789 289 789 q 488 781 435 789 q 560 764 540 772 l 531 624 z "},"š":{"ha":594,"x_min":0,"x_max":661,"o":"m 149 1093 l 233 1132 l 369 990 l 589 1132 l 661 1093 l 411 839 l 292 839 l 149 1093 m 531 624 q 475 670 510 649 q 393 692 440 692 q 316 671 347 692 q 285 611 285 650 q 312 541 285 572 q 406 461 339 510 q 508 363 474 413 q 543 236 543 314 q 499 98 543 154 q 381 14 454 42 q 218 -14 307 -14 q 88 1 156 -14 q 0 33 21 17 l 33 169 q 113 115 64 140 q 214 90 161 90 q 288 113 256 90 q 321 178 321 135 q 291 249 321 215 q 197 326 261 282 q 101 422 138 368 q 65 556 65 475 q 105 676 65 624 q 217 759 144 729 q 383 789 289 789 q 488 781 435 789 q 560 764 540 772 l 531 624 z "},"ş":{"ha":594,"x_min":0,"x_max":560,"o":"m 406 461 q 508 363 474 413 q 543 236 543 314 q 480 77 543 139 q 315 -4 417 15 q 334 -81 326 -36 q 342 -161 342 -126 q 139 -328 342 -328 q 62 -322 108 -328 q 4 -310 15 -317 l 29 -206 q 82 -217 51 -217 q 174 -187 142 -217 q 206 -85 206 -157 q 201 -14 206 -43 q 81 3 142 -12 q 0 33 19 18 l 33 169 q 113 115 64 140 q 214 90 161 90 q 288 113 256 90 q 321 178 321 135 q 291 249 321 215 q 197 326 261 282 q 101 422 138 368 q 65 556 65 475 q 105 676 65 624 q 217 759 144 729 q 383 789 289 789 q 488 781 435 789 q 560 764 540 772 l 531 624 q 475 670 510 649 q 393 692 440 692 q 316 671 347 692 q 285 611 285 650 q 312 541 285 572 q 406 461 339 510 z "},"ŝ":{"ha":594,"x_min":0,"x_max":643,"o":"m 131 879 l 381 1132 l 501 1132 l 643 879 l 560 839 l 422 971 l 204 840 l 131 879 m 531 624 q 475 670 510 649 q 393 692 440 692 q 316 671 347 692 q 285 611 285 650 q 312 541 285 572 q 406 461 339 510 q 508 363 474 413 q 543 236 543 314 q 499 98 543 154 q 381 14 454 42 q 218 -14 307 -14 q 88 1 156 -14 q 0 33 21 17 l 33 169 q 113 115 64 140 q 214 90 161 90 q 288 113 256 90 q 321 178 321 135 q 291 249 321 215 q 197 326 261 282 q 101 422 138 368 q 65 556 65 475 q 105 676 65 624 q 217 759 144 729 q 383 789 289 789 q 488 781 435 789 q 560 764 540 772 l 531 624 z "},"ș":{"ha":594,"x_min":0,"x_max":560,"o":"m 118 -315 q 149 -282 135 -304 q 164 -228 164 -260 q 151 -181 164 -201 q 119 -158 139 -160 l 126 -96 l 231 -25 q 307 -75 276 -35 q 338 -169 338 -115 q 315 -269 338 -224 q 256 -344 292 -315 q 185 -379 221 -372 l 117 -332 l 118 -315 m 531 624 q 475 670 510 649 q 393 692 440 692 q 316 671 347 692 q 285 611 285 650 q 312 541 285 572 q 406 461 339 510 q 508 363 474 413 q 543 236 543 314 q 499 98 543 154 q 381 14 454 42 q 218 -14 307 -14 q 88 1 156 -14 q 0 33 21 17 l 33 169 q 113 115 64 140 q 214 90 161 90 q 288 113 256 90 q 321 178 321 135 q 291 249 321 215 q 197 326 261 282 q 101 422 138 368 q 65 556 65 475 q 105 676 65 624 q 217 759 144 729 q 383 789 289 789 q 488 781 435 789 q 560 764 540 772 l 531 624 z "},"ṡ":{"ha":594,"x_min":0,"x_max":560,"o":"m 531 624 q 475 670 510 649 q 393 692 440 692 q 316 671 347 692 q 285 611 285 650 q 312 541 285 572 q 406 461 339 510 q 508 363 474 413 q 543 236 543 314 q 499 98 543 154 q 381 14 454 42 q 218 -14 307 -14 q 88 1 156 -14 q 0 33 21 17 l 33 169 q 113 115 64 140 q 214 90 161 90 q 288 113 256 90 q 321 178 321 135 q 291 249 321 215 q 197 326 261 282 q 101 422 138 368 q 65 556 65 475 q 105 676 65 624 q 217 759 144 729 q 383 789 289 789 q 488 781 435 789 q 560 764 540 772 l 531 624 m 382 907 q 306 942 339 907 q 272 1018 272 976 q 309 1115 272 1076 q 407 1154 346 1154 q 490 1122 458 1154 q 522 1047 522 1089 q 488 947 522 986 q 382 907 453 907 z "},"ß":{"ha":842,"x_min":26,"x_max":832,"o":"m 103 629 q 201 917 131 818 q 360 1045 272 1015 q 556 1075 447 1075 q 692 1051 629 1075 q 794 980 756 1026 q 832 869 832 933 q 813 774 832 813 q 769 714 794 736 q 703 667 743 692 q 642 622 661 642 q 624 571 624 603 q 637 528 624 550 q 692 451 650 507 l 713 426 q 783 331 758 374 q 807 232 807 289 q 728 53 807 118 q 518 -11 650 -11 q 322 21 383 -11 l 340 147 q 393 102 356 125 q 464 79 431 79 q 549 101 519 79 q 578 193 578 122 q 515 354 578 257 q 463 447 485 396 q 440 538 440 497 q 457 609 440 582 q 514 678 474 636 q 608 872 608 772 q 584 959 608 925 q 515 993 560 993 q 395 898 442 993 q 325 588 349 803 l 253 0 l 26 0 l 103 629 z "},"ə":{"ha":711,"x_min":4,"x_max":668,"o":"m 53 629 q 172 740 89 688 q 371 792 254 792 q 596 701 524 792 q 668 478 668 610 q 610 223 668 336 q 451 46 551 110 q 228 -18 350 -18 q 60 32 115 -18 q 4 160 4 82 q 70 329 4 261 q 233 429 136 397 q 425 464 331 461 q 392 619 425 568 q 297 671 358 671 q 180 639 226 671 q 96 558 133 607 l 53 629 m 425 382 q 335 355 383 379 q 255 285 288 331 q 222 179 222 239 q 278 78 222 78 q 382 169 347 78 q 425 382 417 261 z "},"t":{"ha":492,"x_min":61,"x_max":517,"o":"m 306 264 q 294 171 294 193 q 344 115 294 115 q 405 124 374 115 q 460 154 436 133 l 476 100 q 367 21 436 56 q 200 -14 299 -14 q 106 15 143 -14 q 69 108 69 43 q 88 269 69 135 l 143 674 l 61 674 l 78 749 l 161 781 q 269 960 213 824 l 399 960 l 376 783 l 517 783 l 501 674 l 361 674 l 306 264 z "},"ŧ":{"ha":492,"x_min":47,"x_max":517,"o":"m 306 264 q 294 171 294 193 q 344 115 294 115 q 405 124 374 115 q 460 154 436 133 l 476 100 q 367 21 436 56 q 200 -14 299 -14 q 106 15 143 -14 q 69 108 69 43 q 88 269 69 135 l 108 421 l 47 421 l 58 510 l 119 510 l 143 674 l 61 674 l 78 749 l 161 781 q 269 960 213 824 l 399 960 l 376 783 l 517 783 l 501 674 l 361 674 l 339 510 l 453 510 l 442 421 l 326 421 l 306 264 z "},"ť":{"ha":492,"x_min":61,"x_max":656,"o":"m 306 264 q 294 171 294 193 q 344 115 294 115 q 405 124 374 115 q 460 154 436 133 l 476 100 q 367 21 436 56 q 200 -14 299 -14 q 106 15 143 -14 q 69 108 69 43 q 88 269 69 135 l 143 674 l 61 674 l 78 749 l 161 781 q 269 960 213 824 l 399 960 l 376 783 l 517 783 l 501 674 l 361 674 l 306 264 m 465 882 q 485 972 476 915 q 493 1086 493 1029 q 476 1222 493 1199 l 490 1251 l 631 1282 q 649 1233 643 1269 q 656 1154 656 1197 q 629 982 656 1069 q 557 844 603 894 l 469 865 l 465 882 z "},"ţ":{"ha":492,"x_min":-42,"x_max":517,"o":"m 306 264 q 294 171 294 193 q 344 115 294 115 q 405 124 374 115 q 460 154 436 133 l 476 100 q 393 35 444 65 q 271 -8 342 4 q 289 -83 282 -39 q 296 -161 296 -126 q 93 -328 296 -328 q 16 -322 63 -328 q -42 -310 -31 -317 l -17 -206 q 36 -217 6 -217 q 124 -191 92 -217 q 160 -104 157 -165 q 156 -8 161 -61 q 93 29 117 0 q 69 108 69 58 q 88 269 69 135 l 143 674 l 61 674 l 78 749 l 161 781 q 269 960 213 824 l 399 960 l 376 783 l 517 783 l 501 674 l 361 674 l 306 264 z "},"ț":{"ha":492,"x_min":61,"x_max":517,"o":"m 82 -315 q 113 -282 99 -304 q 128 -228 128 -260 q 115 -181 128 -201 q 83 -158 103 -160 l 90 -96 l 194 -25 q 271 -75 240 -35 q 301 -169 301 -115 q 278 -269 301 -224 q 220 -344 256 -315 q 149 -379 185 -372 l 81 -332 l 82 -315 m 306 264 q 294 171 294 193 q 344 115 294 115 q 405 124 374 115 q 460 154 436 133 l 476 100 q 367 21 436 56 q 200 -14 299 -14 q 106 15 143 -14 q 69 108 69 43 q 88 269 69 135 l 143 674 l 61 674 l 78 749 l 161 781 q 269 960 213 824 l 399 960 l 376 783 l 517 783 l 501 674 l 361 674 l 306 264 z "},"ṫ":{"ha":492,"x_min":61,"x_max":517,"o":"m 306 264 q 294 171 294 193 q 344 115 294 115 q 405 124 374 115 q 460 154 436 133 l 476 100 q 367 21 436 56 q 200 -14 299 -14 q 106 15 143 -14 q 69 108 69 43 q 88 269 69 135 l 143 674 l 61 674 l 78 749 l 161 781 q 269 960 213 824 l 399 960 l 376 783 l 517 783 l 501 674 l 361 674 l 306 264 m 340 1001 q 264 1036 297 1001 q 231 1113 231 1071 q 267 1210 231 1171 q 365 1249 304 1249 q 449 1216 417 1249 q 481 1142 481 1183 q 446 1041 481 1081 q 340 1001 411 1001 z "},"u":{"ha":868,"x_min":58,"x_max":829,"o":"m 325 354 q 315 273 322 331 q 307 192 307 215 q 322 122 307 143 q 371 100 338 100 q 503 168 443 100 l 586 783 l 808 783 l 721 154 q 749 103 715 103 q 772 109 760 103 q 810 133 783 115 l 829 85 q 794 45 819 68 q 728 4 768 22 q 639 -14 688 -14 q 553 5 585 -14 q 515 57 522 24 q 514 76 514 64 q 515 97 514 90 l 513 99 q 414 17 469 49 q 278 -14 358 -14 q 142 28 203 -14 q 79 160 81 71 q 101 364 79 217 q 108 406 107 392 l 144 653 l 58 707 l 69 767 l 343 789 l 378 772 l 332 400 l 325 354 z "},"ú":{"ha":868,"x_min":58,"x_max":829,"o":"m 624 1182 l 754 1056 q 690 985 742 1033 q 578 894 639 938 q 479 835 517 850 l 408 890 l 624 1182 m 325 354 q 315 273 322 331 q 307 192 307 215 q 322 122 307 143 q 371 100 338 100 q 503 168 443 100 l 586 783 l 808 783 l 721 154 q 749 103 715 103 q 772 109 760 103 q 810 133 783 115 l 829 85 q 794 45 819 68 q 728 4 768 22 q 639 -14 688 -14 q 553 5 585 -14 q 515 57 522 24 q 514 76 514 64 q 515 97 514 90 l 513 99 q 414 17 469 49 q 278 -14 358 -14 q 142 28 203 -14 q 79 160 81 71 q 101 364 79 217 q 108 406 107 392 l 144 653 l 58 707 l 69 767 l 343 789 l 378 772 l 332 400 l 325 354 z "},"ŭ":{"ha":868,"x_min":58,"x_max":829,"o":"m 325 354 q 315 273 322 331 q 307 192 307 215 q 322 122 307 143 q 371 100 338 100 q 503 168 443 100 l 586 783 l 808 783 l 721 154 q 749 103 715 103 q 772 109 760 103 q 810 133 783 115 l 829 85 q 794 45 819 68 q 728 4 768 22 q 639 -14 688 -14 q 553 5 585 -14 q 515 57 522 24 q 514 76 514 64 q 515 97 514 90 l 513 99 q 414 17 469 49 q 278 -14 358 -14 q 142 28 203 -14 q 79 160 81 71 q 101 364 79 217 q 108 406 107 392 l 144 653 l 58 707 l 69 767 l 343 789 l 378 772 l 332 400 l 325 354 m 494 882 q 333 944 383 882 q 283 1094 283 1006 q 286 1140 283 1110 l 411 1140 l 411 1110 q 428 1051 411 1072 q 499 1029 446 1029 q 585 1058 565 1029 q 608 1140 606 1088 l 732 1140 l 732 1117 q 707 1005 732 1058 q 628 917 682 951 q 494 882 575 882 z "},"û":{"ha":868,"x_min":58,"x_max":829,"o":"m 235 879 l 485 1132 l 606 1132 l 747 879 l 664 839 l 526 971 l 308 840 l 235 879 m 325 354 q 315 273 322 331 q 307 192 307 215 q 322 122 307 143 q 371 100 338 100 q 503 168 443 100 l 586 783 l 808 783 l 721 154 q 749 103 715 103 q 772 109 760 103 q 810 133 783 115 l 829 85 q 794 45 819 68 q 728 4 768 22 q 639 -14 688 -14 q 553 5 585 -14 q 515 57 522 24 q 514 76 514 64 q 515 97 514 90 l 513 99 q 414 17 469 49 q 278 -14 358 -14 q 142 28 203 -14 q 79 160 81 71 q 101 364 79 217 q 108 406 107 392 l 144 653 l 58 707 l 69 767 l 343 789 l 378 772 l 332 400 l 325 354 z "},"ü":{"ha":868,"x_min":58,"x_max":829,"o":"m 333 907 q 265 941 294 907 q 236 1018 236 975 q 268 1115 236 1076 q 356 1154 300 1154 q 429 1122 401 1154 q 457 1047 457 1089 q 426 946 457 985 q 333 907 396 907 m 640 907 q 572 941 601 907 q 543 1018 543 975 q 574 1115 543 1076 q 663 1154 606 1154 q 735 1122 707 1154 q 764 1047 764 1089 q 733 947 764 986 q 640 907 703 907 m 325 354 q 315 273 322 331 q 307 192 307 215 q 322 122 307 143 q 371 100 338 100 q 503 168 443 100 l 586 783 l 808 783 l 721 154 q 749 103 715 103 q 772 109 760 103 q 810 133 783 115 l 829 85 q 794 45 819 68 q 728 4 768 22 q 639 -14 688 -14 q 553 5 585 -14 q 515 57 522 24 q 514 76 514 64 q 515 97 514 90 l 513 99 q 414 17 469 49 q 278 -14 358 -14 q 142 28 203 -14 q 79 160 81 71 q 101 364 79 217 q 108 406 107 392 l 144 653 l 58 707 l 69 767 l 343 789 l 378 772 l 332 400 l 325 354 z "}}}
